{
.appVersion = "3140";
.formatVersion = 3;
DisplayStrings = (
"MTATVolkswumixNHAVYjzzYSEedargeton kokonokn",
"HHHOOOADJUSTINGkemie@/at.case QUIVER.COM AND BOW, ZOMPYC† KILLED $7 THE FO. Amazingly, C.J. Hquaffed sıix vodkas without burping. BaAc/_corner.caps_diag_xs k ›homenononn/n.ss01 ooonnn after‹ jiving, sheUSA expired (with quizzicality). Bo rocked a £3,500 xylophone, making quiet waves of jazz. Chip required 44% booze to fix my VolkPAagen® Jetta. Cozy sphinx©waves.com quart §28.2 jug of bad milk. Even while I adjust [my expectations hıigher,] you keep NYSE amazing me. I request: be my wife. \"Exquisite farm wench\" gives body* jolt to prize stinker. Five wine¶ experts MTA jokingly quizzed sample; chablis. French wine: ‘Ze bouquet is exceptıional, aqvec just un peu of monkey Hdung.’ GQ Magazine© backers enjoyed; the Pixies’ „Wave of Mutilation.” 


glyphs = (
{
glyphname = A;
kernLeft = A;
kernRight = A;
layers = (
{
anchors = (
{
name = bottom;
pos = (380,0);
},
{
name = ogonek;
pos = (685,0);
},
{
name = top;
pos = (381,687);
}
);
hints = (
{
name = _corner.caps_diag;
origin = (0,4);
scale = (-1,1);
type = Corner;
}
);
layerId = "0CAF3BED-C4AC-4024-B3E1-4C69D1EF7EC0";
shapes = (
{
closed = 1;
nodes = (
(685,0,l,{
"Letterink-NibData" = {
AngleInDegrees = 336.96218;
};
}),
(397,690,l,{
"Letterink-NibData" = {
AngleInDegrees = 270;
};
}),
(363,690,l,{
"Letterink-NibData" = {
AngleInDegrees = 202.82503;
};
}),
(114,83,l,{
"Letterink-NibData" = {
AngleInDegrees = 202.38014;
};
}),
(188,53,l,{
"Letterink-NibData" = {
AngleInDegrees = 22.71999;
};
}),
(269,253,l,{
"Letterink-NibData" = {
AngleInDegrees = 236.57519;
};
}),
(214,210,l,{
"Letterink-NibData" = {
AngleInDegrees = 90;
};
}),
(546,210,l,{
"Letterink-NibData" = {
AngleInDegrees = 303.42481;
};
}),
(496,253,l,{
"Letterink-NibData" = {
AngleInDegrees = 157.34811;
};
}),
(602,0,l,{
"Letterink-NibData" = {
AngleInDegrees = 90;
};
})
);
},
{
closed = 1;
nodes = (
(378,542,l,{
"Letterink-NibData" = {
AngleInDegrees = 8.1301;
};
}),
(381,565,l,{
"Letterink-NibData" = {
AngleInDegrees = 171.8699;
};
}),
(385,542,l,{
"Letterink-NibData" = {
AngleInDegrees = 159.79358;
};
}),
(490,260,l,{
"Letterink-NibData" = {
AngleInDegrees = 35.21759;
};
}),
(512,284,l,{
"Letterink-NibData" = {
AngleInDegrees = 270;
};
}),
(244,284,l,{
"Letterink-NibData" = {
AngleInDegrees = 145.92281;
};
}),
(272,260,l,{
"Letterink-NibData" = {
AngleInDegrees = 20.73026;
};
})
);
}
);
width = 702;
},
{
anchors = (
{
name = bottom;
pos = (384,0);
},
{
name = ogonek;
pos = (676,0);
},
{
name = top;
pos = (386,684);
}
);
hints = (
{
name = _corner.caps_diag;
options = 2;
origin = (0,4);
scale = (-1,1);
type = Corner;
}
);
layerId = "49C16FD3-6177-408B-A733-AEB3898BB77C";
shapes = (
{
closed = 1;
nodes = (
(676,0,l,{
"Letterink-NibData" = {
AngleInDegrees = 337.30364;
};
}),
(389,692,l,{
"Letterink-NibData" = {
AngleInDegrees = 270;
};
}),
(383,692,l,{
"Letterink-NibData" = {
AngleInDegrees = 202.68401;
};
}),
(123,61,l,{
"Letterink-NibData" = {
AngleInDegrees = 202.61986;
};
}),
(157,45,l,{
"Letterink-NibData" = {
AngleInDegrees = 22.1315;
};
}),
(242,251,l,{
"Letterink-NibData" = {
AngleInDegrees = 235.7843;
};
}),
(213,234,l,{
"Letterink-NibData" = {
AngleInDegrees = 90;
};
}),
(554,234,l,{
"Letterink-NibData" = {
AngleInDegrees = 304.2157;
};
}),
(531,251,l,{
"Letterink-NibData" = {
AngleInDegrees = 157.41269;
};
}),
(635,0,l,{
"Letterink-NibData" = {
AngleInDegrees = 90;
};
})
);
},
{
closed = 1;
nodes = (
(377,584,l,{
"Letterink-NibData" = {
AngleInDegrees = 16.29405;
};
}),
(386,617,l,{
"Letterink-NibData" = {
AngleInDegrees = 163.21735;
};
}),
(395,584,l,{
"Letterink-NibData" = {
AngleInDegrees = 158.19859;
};
}),
(528,257,l,{
"Letterink-NibData" = {
AngleInDegrees = 32.90524;
};
}),
(537,270,l,{
"Letterink-NibData" = {
AngleInDegrees = 270;
};
}),
(228,270,l,{
"Letterink-NibData" = {
AngleInDegrees = 147.09476;
};
}),
(244,257,l,{
"Letterink-NibData" = {
AngleInDegrees = 22.09423;
};
})
);
}
);
width = 706;
},
{
anchors = (
{
name = bottom;
pos = (421,-8);
},
{
name = ogonek;
pos = (714,1);
},
{
name = top;
pos = (421,684);
}
);
associatedMasterId = "49C16FD3-6177-408B-A733-AEB3898BB77C";
layerId = "E63F2094-54D6-44F3-A00F-83DE5DFBC8F4";
name = "6 Jan 22, 16:48";
shapes = (
{
closed = 1;
nodes = (
(148,-9,o),
(176,8,o),
(190,42,cs,{
"Letterink-NibData" = {
AngleInDegrees = 22.1315;
};
}),
(275,251,l,{
"Letterink-NibData" = {
AngleInDegrees = 235.7843;
};
}),
(250,234,l,{
"Letterink-NibData" = {
AngleInDegrees = 90;
};
}),
(590,234,l,{
"Letterink-NibData" = {
AngleInDegrees = 304.2157;
};
}),
(565,251,l,{
"Letterink-NibData" = {
AngleInDegrees = 157.41269;
};
}),
(669,1,l,{
"Letterink-NibData" = {
AngleInDegrees = 90;
};
}),
(714,1,l,{
"Letterink-NibData" = {
AngleInDegrees = 337.30364;
};
}),
(425,692,l,{
"Letterink-NibData" = {
AngleInDegrees = 270;
};
}),
(417,692,l,{
"Letterink-NibData" = {
AngleInDegrees = 202.68401;
};
}),
(152,58,ls,{
"Letterink-NibData" = {
AngleInDegrees = 202.61986;
};
}),
(147,46,o),
(132,31,o),
(115,31,cs,{
"Letterink-NibData" = {
AngleInDegrees = 270;
};
}),
(96,31,o),
(80,45,o),
(75,59,c,{
"Letterink-NibData" = {
AngleInDegrees = 261.25384;
};
}),
(36,53,l,{
"Letterink-NibData" = {
AngleInDegrees = 163.85566;
};
}),
(47,15,o),
(76,-9,o),
(114,-9,cs,{
"Letterink-NibData" = {
AngleInDegrees = 90;
};
})
);
},
{
closed = 1;
nodes = (
(401,560,l,{
"Letterink-NibData" = {
AngleInDegrees = 16.29405;
};
}),
(420,625,l,{
"Letterink-NibData" = {
AngleInDegrees = 163.21735;
};
}),
(439,562,l,{
"Letterink-NibData" = {
AngleInDegrees = 158.19859;
};
}),
(561,257,l,{
"Letterink-NibData" = {
AngleInDegrees = 32.90524;
};
}),
(572,274,l,{
"Letterink-NibData" = {
AngleInDegrees = 270;
};
}),
(267,274,l,{
"Letterink-NibData" = {
AngleInDegrees = 147.09476;
};
}),
(278,257,l,{
"Letterink-NibData" = {
AngleInDegrees = 22.09423;
};
})
);
}
);
width = 752;
},
{
anchors = (
{
name = bottom;
pos = (425,0);
},
{
name = ogonek;
pos = (760,0);
},
{
name = top;
pos = (424,693);
}
);
hints = (
{
name = _corner.caps_diag;
options = 2;
origin = (0,4);
scale = (-1,1);
type = Corner;
}
);
layerId = m004;
shapes = (
{
closed = 1;
nodes = (
(760,0,l,{
"Letterink-NibData" = {
AngleInDegrees = "337.32254";
};
}),
(476,699,l,{
"Letterink-NibData" = {
AngleInDegrees = "270";
};
}),
(379,699,l,{
"Letterink-NibData" = {
AngleInDegrees = "202.53914";
};
}),
(142,143,l,{
"Letterink-NibData" = {
AngleInDegrees = "90";
};
}),
(288,65,l,{
"Letterink-NibData" = {
AngleInDegrees = "22.65189";
};
}),
(367,257,l,{
"Letterink-NibData" = {
AngleInDegrees = "236.57519";
};
}),
(271,141,l,{
"Letterink-NibData" = {
AngleInDegrees = "90";
};
}),
(581,141,l,{
"Letterink-NibData" = {
AngleInDegrees = "303.42481";
};
}),
(481,257,l,{
"Letterink-NibData" = {
AngleInDegrees = "156.96496";
};
}),
(582,0,l,{
"Letterink-NibData" = {
AngleInDegrees = "90";
};
})
);
},
{
closed = 1;
nodes = (
(454,490,l,{
"Letterink-NibData" = {
AngleInDegrees = "19.98311";
};
}),
(425,504,l,{
"Letterink-NibData" = {
AngleInDegrees = "161.56505";
};
}),
(398,490,l,{
"Letterink-NibData" = {
AngleInDegrees = "158.35875";
};
}),
(477,272,l,{
"Letterink-NibData" = {
AngleInDegrees = "34.87533";
};
}),
(519,283,l,{
"Letterink-NibData" = {
AngleInDegrees = "270";
};
}),
(328,283,l,{
"Letterink-NibData" = {
AngleInDegrees = "145.92281";
};
}),
(374,268,l,{
"Letterink-NibData" = {
AngleInDegrees = "21.36191";
};
})
);
}
);
width = 762;
}
);
metricLeft = "=H*.8";
unicode = 65;
userData = {
position = 666;
width = 20;
};
},
{
glyphname = A.ss01;
kernLeft = Atext;
kernRight = A;
layers = (
{
anchors = (
{
name = bottom;
pos = (327,0);
},
{
name = ogonek;
pos = (638,-1);
},
{
name = top;
pos = (327,690);
}
);
layerId = "0CAF3BED-C4AC-4024-B3E1-4C69D1EF7EC0";
shapes = (
{
closed = 1;
nodes = (
(106,0,l,{
"Letterink-NibData" = {
AngleInDegrees = 22.65189;
};
}),
(211,253,l,{
"Letterink-NibData" = {
AngleInDegrees = 236.57519;
};
}),
(160,210,l,{
"Letterink-NibData" = {
AngleInDegrees = 90;
};
}),
(493,210,l,{
"Letterink-NibData" = {
AngleInDegrees = 303.42481;
};
}),
(443,253,l,{
"Letterink-NibData" = {
AngleInDegrees = 156.96496;
};
}),
(549,0,l,{
"Letterink-NibData" = {
AngleInDegrees = 90;
};
}),
(638,0,l,{
"Letterink-NibData" = {
AngleInDegrees = 337.32254;
};
}),
(343,702,l,{
"Letterink-NibData" = {
AngleInDegrees = 270;
};
}),
(310,702,l,{
"Letterink-NibData" = {
AngleInDegrees = 202.53914;
};
}),
(17,0,l,{
"Letterink-NibData" = {
AngleInDegrees = 90;
};
})
);
},
{
closed = 1;
nodes = (
(316,511,l,{
"Letterink-NibData" = {
AngleInDegrees = 19.98311;
};
}),
(326,553,l,{
"Letterink-NibData" = {
AngleInDegrees = 161.56505;
};
}),
(337,511,l,{
"Letterink-NibData" = {
AngleInDegrees = 158.35875;
};
}),
(436,260,l,{
"Letterink-NibData" = {
AngleInDegrees = 34.87533;
};
}),
(461,284,l,{
"Letterink-NibData" = {
AngleInDegrees = 270;
};
}),
(191,284,l,{
"Letterink-NibData" = {
AngleInDegrees = 145.92281;
};
}),
(216,260,l,{
"Letterink-NibData" = {
AngleInDegrees = 21.36191;
};
})
);
}
);
width = 655;
},
{
anchors = (
{
name = bottom;
pos = (331,-2);
},
{
name = ogonek;
pos = (633,1);
},
{
name = top;
pos = (330,684);
}
);
layerId = "49C16FD3-6177-408B-A733-AEB3898BB77C";
shapes = (
{
closed = 1;
nodes = (
(71,0,l,{
"Letterink-NibData" = {
AngleInDegrees = 22.78241;
};
}),
(175,251,l,{
"Letterink-NibData" = {
AngleInDegrees = 235.7843;
};
}),
(154,236,l,{
"Letterink-NibData" = {
AngleInDegrees = 90;
};
}),
(507,236,l,{
"Letterink-NibData" = {
AngleInDegrees = 304.2157;
};
}),
(486,251,l,{
"Letterink-NibData" = {
AngleInDegrees = 157.02305;
};
}),
(592,0,l,{
"Letterink-NibData" = {
AngleInDegrees = 90;
};
}),
(633,0,l,{
"Letterink-NibData" = {
AngleInDegrees = 336.95898;
};
}),
(335,699,l,{
"Letterink-NibData" = {
AngleInDegrees = 270;
};
}),
(326,699,l,{
"Letterink-NibData" = {
AngleInDegrees = 202.90284;
};
}),
(30,0,l,{
"Letterink-NibData" = {
AngleInDegrees = 90;
};
})
);
},
{
closed = 1;
nodes = (
(317,585,l,{
"Letterink-NibData" = {
AngleInDegrees = 22.61986;
};
}),
(331,631,l,{
"Letterink-NibData" = {
AngleInDegrees = 160.34617;
};
}),
(344,587,l,{
"Letterink-NibData" = {
AngleInDegrees = 157.39526;
};
}),
(483,257,l,{
"Letterink-NibData" = {
AngleInDegrees = 32.90524;
};
}),
(493,272,l,{
"Letterink-NibData" = {
AngleInDegrees = 270;
};
}),
(168,272,l,{
"Letterink-NibData" = {
AngleInDegrees = 147.09476;
};
}),
(178,257,l,{
"Letterink-NibData" = {
AngleInDegrees = 22.96683;
};
})
);
}
);
width = 663;
},
{
anchors = (
{
name = bottom;
pos = (343,0);
},
{
name = ogonek;
pos = (683,0);
},
{
name = top;
pos = (342,694);
}
);
layerId = m004;
shapes = (
{
closed = 1;
nodes = (
(183,0,l,{
"Letterink-NibData" = {
AngleInDegrees = 22.65189;
};
}),
(288,257,l,{
"Letterink-NibData" = {
AngleInDegrees = 236.57519;
};
}),
(187,136,l,{
"Letterink-NibData" = {
AngleInDegrees = 90;
};
}),
(497,136,l,{
"Letterink-NibData" = {
AngleInDegrees = 303.42481;
};
}),
(397,257,l,{
"Letterink-NibData" = {
AngleInDegrees = 156.96496;
};
}),
(505,0,l,{
"Letterink-NibData" = {
AngleInDegrees = 90;
};
}),
(683,0,l,{
"Letterink-NibData" = {
AngleInDegrees = 337.32254;
};
}),
(389,694,l,{
"Letterink-NibData" = {
AngleInDegrees = 270;
};
}),
(303,694,l,{
"Letterink-NibData" = {
AngleInDegrees = 202.53914;
};
}),
(2,0,l,{
"Letterink-NibData" = {
AngleInDegrees = 90;
};
})
);
},
{
closed = 1;
nodes = (
(360,480,l,{
"Letterink-NibData" = {
AngleInDegrees = 19.98311;
};
}),
(341,484,l,{
"Letterink-NibData" = {
AngleInDegrees = 161.56505;
};
}),
(318,480,l,{
"Letterink-NibData" = {
AngleInDegrees = 158.35875;
};
}),
(389,272,l,{
"Letterink-NibData" = {
AngleInDegrees = 34.87533;
};
}),
(435,278,l,{
"Letterink-NibData" = {
AngleInDegrees = 270;
};
}),
(244,278,l,{
"Letterink-NibData" = {
AngleInDegrees = 145.92281;
};
}),
(294,268,l,{
"Letterink-NibData" = {
AngleInDegrees = 21.36191;
};
})
);
}
);
width = 685;
}
);
metricLeft = "=|A";
metricRight = A;
userData = {
position = 10;
width = 615;
};
},
{
glyphname = A.swsh;
kernLeft = A;
kernRight = A;
layers = (
{
anchors = (
{
name = bottom;
pos = (423,0);
},
{
name = ogonek;
pos = (732,0);
},
{
name = top;
pos = (421,684);
}
);
hints = (
{
name = _corner.caps_swash_diag;
origin = (0,4);
scale = (-1,1);
type = Corner;
},
{
name = _corner.caps_swash.big;
origin = (2,2);
type = Corner;
}
);
layerId = "0CAF3BED-C4AC-4024-B3E1-4C69D1EF7EC0";
shapes = (
{
closed = 1;
nodes = (
(732,0,l,{
"Letterink-NibData" = {
AngleInDegrees = "336.96218";
};
}),
(446,685,l,{
"Letterink-NibData" = {
AngleInDegrees = "270";
};
}),
(399,685,l,{
"Letterink-NibData" = {
AngleInDegrees = "202.82503";
};
}),
(151,83,l,{
"Letterink-NibData" = {
AngleInDegrees = "202.38014";
};
}),
(226,53,l,{
"Letterink-NibData" = {
AngleInDegrees = "22.71999";
};
}),
(307,253,l,{
"Letterink-NibData" = {
AngleInDegrees = "236.57519";
};
}),
(257,210,l,{
"Letterink-NibData" = {
AngleInDegrees = "90";
};
}),
(589,210,l,{
"Letterink-NibData" = {
AngleInDegrees = "303.42481";
};
}),
(539,253,l,{
"Letterink-NibData" = {
AngleInDegrees = "157.34811";
};
}),
(645,0,l,{
"Letterink-NibData" = {
AngleInDegrees = "90";
};
})
);
},
{
closed = 1;
nodes = (
(416,541,l,{
"Letterink-NibData" = {
AngleInDegrees = "8.130100000000001";
};
}),
(422,571,l,{
"Letterink-NibData" = {
AngleInDegrees = "171.8699";
};
}),
(429,541,l,{
"Letterink-NibData" = {
AngleInDegrees = "159.79358";
};
}),
(533,260,l,{
"Letterink-NibData" = {
AngleInDegrees = "35.21759";
};
}),
(555,284,l,{
"Letterink-NibData" = {
AngleInDegrees = "270";
};
}),
(287,284,l,{
"Letterink-NibData" = {
AngleInDegrees = "145.92281";
};
}),
(310,260,l,{
"Letterink-NibData" = {
AngleInDegrees = "20.73026";
};
})
);
},
{
closed = 1;
nodes = (
(433,609,l),
(433,685,l,{
"Letterink-NibData" = {
AngleInDegrees = "270";
};
}),
(280,685,l,{
"Letterink-NibData" = {
AngleInDegrees = "180";
};
}),
(280,609,l,{
"Letterink-NibData" = {
AngleInDegrees = "90";
};
})
);
}
);
width = 749;
},
{
anchors = (
{
name = bottom;
pos = (423,0);
},
{
name = ogonek;
pos = (715,1);
},
{
name = top;
pos = (424,684);
}
);
hints = (
{
name = _corner.caps_swash_diag;
origin = (0,4);
scale = (-1,1);
type = Corner;
},
{
name = _corner.caps_swash.big;
origin = (2,2);
type = Corner;
}
);
layerId = "49C16FD3-6177-408B-A733-AEB3898BB77C";
shapes = (
{
closed = 1;
nodes = (
(715,0,l,{
"Letterink-NibData" = {
AngleInDegrees = "337.30364";
};
}),
(428,684,l,{
"Letterink-NibData" = {
AngleInDegrees = "270";
};
}),
(419,684,l,{
"Letterink-NibData" = {
AngleInDegrees = "202.68401";
};
}),
(157,70,l,{
"Letterink-NibData" = {
AngleInDegrees = "202.61986";
};
}),
(191,54,l,{
"Letterink-NibData" = {
AngleInDegrees = "22.1315";
};
}),
(274,251,l,{
"Letterink-NibData" = {
AngleInDegrees = "235.7843";
};
}),
(252,234,l,{
"Letterink-NibData" = {
AngleInDegrees = "90";
};
}),
(593,234,l,{
"Letterink-NibData" = {
AngleInDegrees = "304.2157";
};
}),
(571,251,l,{
"Letterink-NibData" = {
AngleInDegrees = "157.41269";
};
}),
(674,0,l,{
"Letterink-NibData" = {
AngleInDegrees = "90";
};
})
);
},
{
closed = 1;
nodes = (
(410,576,l,{
"Letterink-NibData" = {
AngleInDegrees = "16.29405";
};
}),
(423,619,l,{
"Letterink-NibData" = {
AngleInDegrees = "163.21735";
};
}),
(437,576,l,{
"Letterink-NibData" = {
AngleInDegrees = "158.19859";
};
}),
(567,257,l,{
"Letterink-NibData" = {
AngleInDegrees = "32.90524";
};
}),
(576,270,l,{
"Letterink-NibData" = {
AngleInDegrees = "270";
};
}),
(267,270,l,{
"Letterink-NibData" = {
AngleInDegrees = "147.09476";
};
}),
(277,257,l,{
"Letterink-NibData" = {
AngleInDegrees = "22.09423";
};
})
);
},
{
closed = 1;
nodes = (
(422,648,l),
(422,684,l,{
"Letterink-NibData" = {
AngleInDegrees = "270";
};
}),
(279,684,l,{
"Letterink-NibData" = {
AngleInDegrees = "180";
};
}),
(279,648,l,{
"Letterink-NibData" = {
AngleInDegrees = "90";
};
})
);
}
);
width = 745;
},
{
anchors = (
{
name = bottom;
pos = (424,-6);
},
{
name = ogonek;
pos = (720,0);
},
{
name = top;
pos = (424,684);
}
);
associatedMasterId = "49C16FD3-6177-408B-A733-AEB3898BB77C";
layerId = "58617E73-3A60-467D-AD5A-D66EDA6AE7B6";
name = "6 Jan 22, 16:52";
shapes = (
{
closed = 1;
nodes = (
(162,-11,o),
(188,10,o),
(204,49,cs,{
"Letterink-NibData" = {
AngleInDegrees = 21.9487;
};
}),
(285,250,l,{
"Letterink-NibData" = {
AngleInDegrees = 235.7843;
};
}),
(260,233,l,{
"Letterink-NibData" = {
AngleInDegrees = 90;
};
}),
(587,233,l,{
"Letterink-NibData" = {
AngleInDegrees = 304.2157;
};
}),
(562,250,l,{
"Letterink-NibData" = {
AngleInDegrees = 157.41269;
};
}),
(666,0,l,{
"Letterink-NibData" = {
AngleInDegrees = 90;
};
}),
(715,0,l,{
"Letterink-NibData" = {
AngleInDegrees = 337.54495;
};
}),
(429,692,l,{
"Letterink-NibData" = {
AngleInDegrees = 270;
};
}),
(419,692,l,{
"Letterink-NibData" = {
AngleInDegrees = 202.29205;
};
}),
(164,70,ls,{
"Letterink-NibData" = {
AngleInDegrees = 202.47943;
};
}),
(152,41,o),
(141,30,o),
(121,30,cs,{
"Letterink-NibData" = {
AngleInDegrees = 270;
};
}),
(101,30,o),
(84,48,o),
(84,67,cs),
(84,72,o),
(85,77,o),
(87,82,c,{
"Letterink-NibData" = {
AngleInDegrees = 304.43899;
};
}),
(52,106,l,{
"Letterink-NibData" = {
AngleInDegrees = 213.69007;
};
}),
(44,94,o),
(40,76,o),
(40,66,cs,{
"Letterink-NibData" = {
AngleInDegrees = 180;
};
}),
(40,21,o),
(81,-11,o),
(123,-11,cs,{
"Letterink-NibData" = {
AngleInDegrees = 90;
};
})
);
},
{
closed = 1;
nodes = (
(410,569,l,{
"Letterink-NibData" = {
AngleInDegrees = 15.64224;
};
}),
(424,619,l,{
"Letterink-NibData" = {
AngleInDegrees = 165.42579;
};
}),
(437,569,l,{
"Letterink-NibData" = {
AngleInDegrees = 158.93765;
};
}),
(556,260,l,{
"Letterink-NibData" = {
AngleInDegrees = 35.21759;
};
}),
(568,277,l,{
"Letterink-NibData" = {
AngleInDegrees = 270;
};
}),
(279,277,l,{
"Letterink-NibData" = {
AngleInDegrees = 144.78241;
};
}),
(291,260,l,{
"Letterink-NibData" = {
AngleInDegrees = 21.06235;
};
})
);
}
);
width = 753;
},
{
anchors = (
{
name = bottom;
pos = (482,0);
},
{
name = ogonek;
pos = (824,0);
},
{
name = top;
pos = (481,694);
}
);
hints = (
{
name = _corner.caps_swash_diag;
options = 2;
origin = (0,4);
scale = (-1,1);
type = Corner;
},
{
name = _corner.caps_swash.big;
origin = (2,2);
type = Corner;
}
);
layerId = m004;
shapes = (
{
closed = 1;
nodes = (
(824,0,l,{
"Letterink-NibData" = {
AngleInDegrees = "337.32254";
};
}),
(556,684,l,{
"Letterink-NibData" = {
AngleInDegrees = "270";
};
}),
(410,684,l,{
"Letterink-NibData" = {
AngleInDegrees = "202.53914";
};
}),
(187,144,l,{
"Letterink-NibData" = {
AngleInDegrees = "90";
};
}),
(332,66,l,{
"Letterink-NibData" = {
AngleInDegrees = "22.65189";
};
}),
(425,257,l,{
"Letterink-NibData" = {
AngleInDegrees = "236.57519";
};
}),
(328,146,l,{
"Letterink-NibData" = {
AngleInDegrees = "90";
};
}),
(638,146,l,{
"Letterink-NibData" = {
AngleInDegrees = "303.42481";
};
}),
(543,257,l,{
"Letterink-NibData" = {
AngleInDegrees = "156.96496";
};
}),
(651,0,l,{
"Letterink-NibData" = {
AngleInDegrees = "90";
};
})
);
},
{
closed = 1;
nodes = (
(499,480,l,{
"Letterink-NibData" = {
AngleInDegrees = "19.98311";
};
}),
(482,484,l,{
"Letterink-NibData" = {
AngleInDegrees = "161.56505";
};
}),
(463,480,l,{
"Letterink-NibData" = {
AngleInDegrees = "158.35875";
};
}),
(530,272,l,{
"Letterink-NibData" = {
AngleInDegrees = "34.87533";
};
}),
(576,288,l,{
"Letterink-NibData" = {
AngleInDegrees = "270";
};
}),
(385,288,l,{
"Letterink-NibData" = {
AngleInDegrees = "145.92281";
};
}),
(431,268,l,{
"Letterink-NibData" = {
AngleInDegrees = "21.36191";
};
})
);
},
{
closed = 1;
nodes = (
(518,536,l),
(518,684,l,{
"Letterink-NibData" = {
AngleInDegrees = "270";
};
}),
(296,684,l,{
"Letterink-NibData" = {
AngleInDegrees = "180";
};
}),
(296,535,l)
);
}
);
width = 826;
}
);
metricLeft = A;
metricRight = A;
userData = {
position = 666;
width = 20;
};
},
{
glyphname = AE;
kernLeft = A;
kernRight = E;
layers = (
{
anchors = (
{
name = bottom;
pos = (515,0);
},
{
name = top;
pos = (526,673);
}
);
hints = (
{
name = _corner.caps_diag;
options = 1;
origin = (0,12);
scale = (-1,1);
type = Corner;
}
);
layerId = "0CAF3BED-C4AC-4024-B3E1-4C69D1EF7EC0";
shapes = (
{
closed = 1;
nodes = (
(892,-1,l),
(892,75,l,{
"Letterink-NibData" = {
AngleInDegrees = 270;
};
}),
(537,75,l),
(537,325,l,{
"Letterink-NibData" = {
AngleInDegrees = 90;
};
}),
(774,325,l),
(774,401,l,{
"Letterink-NibData" = {
AngleInDegrees = 270;
};
}),
(537,401,l),
(537,610,l,{
"Letterink-NibData" = {
AngleInDegrees = 90;
};
}),
(872,610,l),
(872,686,l,{
"Letterink-NibData" = {
AngleInDegrees = 270;
};
}),
(428,686,l,{
"Letterink-NibData" = {
AngleInDegrees = 208.5766;
};
}),
(120,86,l,{
"Letterink-NibData" = {
AngleInDegrees = 209.0546;
};
}),
(184,37,l,{
"Letterink-NibData" = {
AngleInDegrees = 26.8249;
};
}),
(289,252,l,{
"Letterink-NibData" = {
AngleInDegrees = 90;
};
}),
(232,210,l,{
"Letterink-NibData" = {
AngleInDegrees = 90;
};
}),
(491,210,l,{
"Letterink-NibData" = {
AngleInDegrees = 180;
};
}),
(455,256,l,{
"Letterink-NibData" = {
AngleInDegrees = 180;
};
}),
(455,-1,l,{
"Letterink-NibData" = {
AngleInDegrees = 90;
};
})
);
},
{
closed = 1;
nodes = (
(491,286,l,{
"Letterink-NibData" = {
AngleInDegrees = 270;
};
}),
(276,286,l,{
"Letterink-NibData" = {
AngleInDegrees = 28.71031;
};
}),
(295,264,l,{
"Letterink-NibData" = {
AngleInDegrees = 28.71031;
};
}),
(437,537,l,{
"Letterink-NibData" = {
AngleInDegrees = 23.19859;
};
}),
(455,586,l,{
"Letterink-NibData" = {
AngleInDegrees = 180;
};
}),
(455,260,l,{
"Letterink-NibData" = {
AngleInDegrees = 270;
};
})
);
}
);
width = 939;
},
{
anchors = (
{
name = bottom;
pos = (532,0);
},
{
name = top;
pos = (574,684);
}
);
hints = (
{
name = _corner.caps_diag;
origin = (0,12);
scale = (-1,1);
type = Corner;
}
);
layerId = "49C16FD3-6177-408B-A733-AEB3898BB77C";
shapes = (
{
closed = 1;
nodes = (
(905,1,l),
(905,37,l,{
"Letterink-NibData" = {
AngleInDegrees = 270;
};
}),
(525,37,l),
(525,346,l,{
"Letterink-NibData" = {
AngleInDegrees = 90;
};
}),
(781,346,l),
(781,382,l,{
"Letterink-NibData" = {
AngleInDegrees = 270;
};
}),
(525,382,l),
(525,649,l,{
"Letterink-NibData" = {
AngleInDegrees = 90;
};
}),
(885,649,l),
(885,685,l,{
"Letterink-NibData" = {
AngleInDegrees = 270;
};
}),
(459,685,l,{
"Letterink-NibData" = {
AngleInDegrees = 208.82166;
};
}),
(122,56,l,{
"Letterink-NibData" = {
AngleInDegrees = 213.69007;
};
}),
(157,43,l,{
"Letterink-NibData" = {
AngleInDegrees = 29.29136;
};
}),
(263,249,l,{
"Letterink-NibData" = {
AngleInDegrees = 90;
};
}),
(240,237,l,{
"Letterink-NibData" = {
AngleInDegrees = 90;
};
}),
(504,237,l,{
"Letterink-NibData" = {
AngleInDegrees = 180;
};
}),
(488,253,l,{
"Letterink-NibData" = {
AngleInDegrees = 180;
};
}),
(488,1,l,{
"Letterink-NibData" = {
AngleInDegrees = 90;
};
})
);
},
{
closed = 1;
nodes = (
(504,273,l,{
"Letterink-NibData" = {
AngleInDegrees = 270;
};
}),
(258,273,l,{
"Letterink-NibData" = {
AngleInDegrees = 28.59795;
};
}),
(269,259,l,{
"Letterink-NibData" = {
AngleInDegrees = 28.59795;
};
}),
(467,627,l,{
"Letterink-NibData" = {
AngleInDegrees = 27.32389;
};
}),
(488,663,l,{
"Letterink-NibData" = {
AngleInDegrees = 179.84962;
};
}),
(488,257,l,{
"Letterink-NibData" = {
AngleInDegrees = 270;
};
})
);
}
);
width = 925;
},
{
anchors = (
{
name = bottom;
pos = (548,0);
},
{
name = top;
pos = (556,692);
}
);
associatedMasterId = "49C16FD3-6177-408B-A733-AEB3898BB77C";
layerId = "C1A3D0A8-503D-4B78-876F-381CB7337013";
name = "11 Jan 22, 13:13";
shapes = (
{
closed = 1;
nodes = (
(139,-2,o),
(151,26,o),
(182,71,c,{
"Letterink-NibData" = {
AngleInDegrees = 29.29136;
};
}),
(274,235,l,{
"Letterink-NibData" = {
AngleInDegrees = 90;
};
}),
(502,235,l,{
"Letterink-NibData" = {
AngleInDegrees = 180;
};
}),
(502,1,l,{
"Letterink-NibData" = {
AngleInDegrees = 90;
};
}),
(921,1,l),
(921,41,l,{
"Letterink-NibData" = {
AngleInDegrees = 270;
};
}),
(544,41,l),
(544,344,l,{
"Letterink-NibData" = {
AngleInDegrees = 90;
};
}),
(798,344,l),
(798,384,l,{
"Letterink-NibData" = {
AngleInDegrees = 270;
};
}),
(544,384,l),
(544,645,l,{
"Letterink-NibData" = {
AngleInDegrees = 90;
};
}),
(901,645,l),
(901,685,l,{
"Letterink-NibData" = {
AngleInDegrees = 270;
};
}),
(474,685,l,{
"Letterink-NibData" = {
AngleInDegrees = 208.82166;
};
}),
(140,78,l,{
"Letterink-NibData" = {
AngleInDegrees = 213.69007;
};
}),
(126,57,o),
(117,38,o),
(93,38,cs,{
"Letterink-NibData" = {
AngleInDegrees = 270;
};
}),
(79,38,o),
(62,47,o),
(54,56,c,{
"Letterink-NibData" = {
AngleInDegrees = 244.0577;
};
}),
(17,38,l,{
"Letterink-NibData" = {
AngleInDegrees = 146.82149;
};
}),
(34,12,o),
(61,-2,o),
(92,-2,cs,{
"Letterink-NibData" = {
AngleInDegrees = 90;
};
})
);
},
{
closed = 1;
nodes = (
(470,596,l,{
"Letterink-NibData" = {
AngleInDegrees = 27.32389;
};
}),
(501,656,l,{
"Letterink-NibData" = {
AngleInDegrees = 179.84962;
};
}),
(502,275,l,{
"Letterink-NibData" = {
AngleInDegrees = 270;
};
}),
(295,275,l,{
"Letterink-NibData" = {
AngleInDegrees = 28.59795;
};
})
);
}
);
width = 966;
},
{
anchors = (
{
name = bottom;
pos = (543,0);
},
{
name = top;
pos = (554,673);
}
);
associatedMasterId = "0CAF3BED-C4AC-4024-B3E1-4C69D1EF7EC0";
layerId = "8D16C2AC-4E99-48C9-ADA3-C168C353B72B";
name = "11 Jan 22, 13:30";
shapes = (
{
closed = 1;
nodes = (
(142,-12,o),
(179,8,o),
(197,44,cs,{
"Letterink-NibData" = {
AngleInDegrees = 26.8249;
};
}),
(286,220,l,{
"Letterink-NibData" = {
AngleInDegrees = 90;
};
}),
(483,220,l,{
"Letterink-NibData" = {
AngleInDegrees = 180;
};
}),
(483,-1,l,{
"Letterink-NibData" = {
AngleInDegrees = 90;
};
}),
(920,-1,l),
(920,75,l,{
"Letterink-NibData" = {
AngleInDegrees = 270;
};
}),
(565,75,l),
(565,325,l,{
"Letterink-NibData" = {
AngleInDegrees = 90;
};
}),
(802,325,l),
(802,401,l,{
"Letterink-NibData" = {
AngleInDegrees = 270;
};
}),
(565,401,l),
(565,610,l,{
"Letterink-NibData" = {
AngleInDegrees = 90;
};
}),
(900,610,l),
(900,686,l,{
"Letterink-NibData" = {
AngleInDegrees = 270;
};
}),
(456,686,l,{
"Letterink-NibData" = {
AngleInDegrees = 208.5766;
};
}),
(133,93,ls,{
"Letterink-NibData" = {
AngleInDegrees = 209.0546;
};
}),
(123,75,o),
(114,67,o),
(99,67,cs,{
"Letterink-NibData" = {
AngleInDegrees = 270;
};
}),
(88,67,o),
(76,72,o),
(66,86,c,{
"Letterink-NibData" = {
AngleInDegrees = 220.6013;
};
}),
(18,30,l,{
"Letterink-NibData" = {
AngleInDegrees = 145.7843;
};
}),
(35,5,o),
(66,-12,o),
(107,-12,cs,{
"Letterink-NibData" = {
AngleInDegrees = 90;
};
})
);
},
{
closed = 1;
nodes = (
(462,537,l,{
"Letterink-NibData" = {
AngleInDegrees = 23.19859;
};
}),
(483,586,l,{
"Letterink-NibData" = {
AngleInDegrees = 180;
};
}),
(483,296,l,{
"Letterink-NibData" = {
AngleInDegrees = 270;
};
}),
(330,296,l,{
"Letterink-NibData" = {
AngleInDegrees = 28.71031;
};
})
);
}
);
width = 962;
},
{
anchors = (
{
name = bottom;
pos = (611,0);
},
{
name = top;
pos = (622,684);
}
);
hints = (
{
name = _corner.caps_diag;
options = 2;
origin = (0,12);
scale = (-1,1);
type = Corner;
}
);
layerId = m004;
shapes = (
{
closed = 1;
nodes = (
(954,0,l),
(954,148,l,{
"Letterink-NibData" = {
AngleInDegrees = "270";
};
}),
(655,148,l),
(655,281,l,{
"Letterink-NibData" = {
AngleInDegrees = "90";
};
}),
(844,281,l),
(844,429,l,{
"Letterink-NibData" = {
AngleInDegrees = "270";
};
}),
(655,429,l),
(655,536,l,{
"Letterink-NibData" = {
AngleInDegrees = "90";
};
}),
(934,536,l),
(934,684,l,{
"Letterink-NibData" = {
AngleInDegrees = "270";
};
}),
(435,684,l,{
"Letterink-NibData" = {
AngleInDegrees = "209.70894";
};
}),
(140,145,l,{
"Letterink-NibData" = {
AngleInDegrees = "89.3704";
};
}),
(287,70,l,{
"Letterink-NibData" = {
AngleInDegrees = "28.81079";
};
}),
(383,256,l,{
"Letterink-NibData" = {
AngleInDegrees = "90";
};
}),
(291,146,l,{
"Letterink-NibData" = {
AngleInDegrees = "90";
};
}),
(560,146,l,{
"Letterink-NibData" = {
AngleInDegrees = "180";
};
}),
(490,264,l,{
"Letterink-NibData" = {
AngleInDegrees = "180";
};
}),
(490,0,l,{
"Letterink-NibData" = {
AngleInDegrees = "90";
};
})
);
},
{
closed = 1;
nodes = (
(560,296,l,{
"Letterink-NibData" = {
AngleInDegrees = "270";
};
}),
(372,296,l,{
"Letterink-NibData" = {
AngleInDegrees = "28.68615";
};
}),
(409,279,l,{
"Letterink-NibData" = {
AngleInDegrees = "28.68615";
};
}),
(495,488,l,{
"Letterink-NibData" = {
AngleInDegrees = "23.62938";
};
}),
(490,449,l,{
"Letterink-NibData" = {
AngleInDegrees = "180";
};
}),
(490,275,l,{
"Letterink-NibData" = {
AngleInDegrees = "270";
};
})
);
}
);
width = 964;
},
{
anchors = (
{
name = bottom;
pos = (543,0);
},
{
name = top;
pos = (554,673);
}
);
associatedMasterId = m004;
layerId = "80EF8790-0869-49FF-90A7-EBAC34F5F575";
name = "11 Jan 22, 13:30";
shapes = (
{
closed = 1;
nodes = (
(142,-12,o),
(179,8,o),
(197,44,cs,{
"Letterink-NibData" = {
AngleInDegrees = 26.8249;
};
}),
(286,220,l,{
"Letterink-NibData" = {
AngleInDegrees = 90;
};
}),
(483,220,l,{
"Letterink-NibData" = {
AngleInDegrees = 180;
};
}),
(483,-1,l,{
"Letterink-NibData" = {
AngleInDegrees = 90;
};
}),
(920,-1,l),
(920,75,l,{
"Letterink-NibData" = {
AngleInDegrees = 270;
};
}),
(565,75,l),
(565,325,l,{
"Letterink-NibData" = {
AngleInDegrees = 90;
};
}),
(802,325,l),
(802,401,l,{
"Letterink-NibData" = {
AngleInDegrees = 270;
};
}),
(565,401,l),
(565,610,l,{
"Letterink-NibData" = {
AngleInDegrees = 90;
};
}),
(900,610,l),
(900,686,l,{
"Letterink-NibData" = {
AngleInDegrees = 270;
};
}),
(456,686,l,{
"Letterink-NibData" = {
AngleInDegrees = 208.5766;
};
}),
(133,93,ls,{
"Letterink-NibData" = {
AngleInDegrees = 209.0546;
};
}),
(123,75,o),
(114,67,o),
(99,67,cs,{
"Letterink-NibData" = {
AngleInDegrees = 270;
};
}),
(88,67,o),
(76,72,o),
(66,86,c,{
"Letterink-NibData" = {
AngleInDegrees = 220.6013;
};
}),
(18,30,l,{
"Letterink-NibData" = {
AngleInDegrees = 145.7843;
};
}),
(35,5,o),
(66,-12,o),
(107,-12,cs,{
"Letterink-NibData" = {
AngleInDegrees = 90;
};
})
);
},
{
closed = 1;
nodes = (
(462,537,l,{
"Letterink-NibData" = {
AngleInDegrees = 23.19859;
};
}),
(483,586,l,{
"Letterink-NibData" = {
AngleInDegrees = 180;
};
}),
(483,296,l,{
"Letterink-NibData" = {
AngleInDegrees = 270;
};
}),
(330,296,l,{
"Letterink-NibData" = {
AngleInDegrees = 28.71031;
};
})
);
}
);
width = 962;
}
);
metricLeft = A;
unicode = 198;
userData = {
position = 422;
width = 61;
};
},
{
glyphname = AE.ss01;
kernLeft = Atext;
kernRight = E;
layers = (
{
anchors = (
{
name = bottom;
pos = (486,0);
},
{
name = top;
pos = (497,673);
}
);
layerId = "0CAF3BED-C4AC-4024-B3E1-4C69D1EF7EC0";
shapes = (
{
closed = 1;
nodes = (
(108,0,l,{
"Letterink-NibData" = {
AngleInDegrees = 28.81079;
};
}),
(246,252,l,{
"Letterink-NibData" = {
AngleInDegrees = 90;
};
}),
(193,210,l,{
"Letterink-NibData" = {
AngleInDegrees = 90;
};
}),
(462,210,l,{
"Letterink-NibData" = {
AngleInDegrees = 180;
};
}),
(426,256,l,{
"Letterink-NibData" = {
AngleInDegrees = 180;
};
}),
(426,-1,l,{
"Letterink-NibData" = {
AngleInDegrees = 90;
};
}),
(853,-1,l),
(853,75,l,{
"Letterink-NibData" = {
AngleInDegrees = 270;
};
}),
(508,75,l),
(508,325,l,{
"Letterink-NibData" = {
AngleInDegrees = 90;
};
}),
(735,325,l),
(735,401,l,{
"Letterink-NibData" = {
AngleInDegrees = 270;
};
}),
(508,401,l),
(508,610,l,{
"Letterink-NibData" = {
AngleInDegrees = 90;
};
}),
(833,610,l),
(833,686,l,{
"Letterink-NibData" = {
AngleInDegrees = 270;
};
}),
(409,686,l,{
"Letterink-NibData" = {
AngleInDegrees = 209.70894;
};
}),
(17,-1,l,{
"Letterink-NibData" = {
AngleInDegrees = 89.3704;
};
})
);
},
{
closed = 1;
nodes = (
(462,286,l,{
"Letterink-NibData" = {
AngleInDegrees = 270;
};
}),
(231,286,l,{
"Letterink-NibData" = {
AngleInDegrees = 28.68615;
};
}),
(250,264,l,{
"Letterink-NibData" = {
AngleInDegrees = 28.68615;
};
}),
(412,561,l,{
"Letterink-NibData" = {
AngleInDegrees = 23.62938;
};
}),
(426,593,l,{
"Letterink-NibData" = {
AngleInDegrees = 180;
};
}),
(426,260,l,{
"Letterink-NibData" = {
AngleInDegrees = 270;
};
})
);
}
);
width = 894;
},
{
anchors = (
{
name = bottom;
pos = (461,0);
},
{
name = top;
pos = (534,684);
}
);
layerId = "49C16FD3-6177-408B-A733-AEB3898BB77C";
shapes = (
{
closed = 1;
nodes = (
(72,1,l,{
"Letterink-NibData" = {
AngleInDegrees = 28.2127;
};
}),
(205,250,l,{
"Letterink-NibData" = {
AngleInDegrees = 90;
};
}),
(171,236,l,{
"Letterink-NibData" = {
AngleInDegrees = 90;
};
}),
(433,236,l,{
"Letterink-NibData" = {
AngleInDegrees = 180;
};
}),
(417,252,l,{
"Letterink-NibData" = {
AngleInDegrees = 180;
};
}),
(417,1,l,{
"Letterink-NibData" = {
AngleInDegrees = 90;
};
}),
(837,1,l),
(837,37,l,{
"Letterink-NibData" = {
AngleInDegrees = 270;
};
}),
(454,37,l),
(454,346,l,{
"Letterink-NibData" = {
AngleInDegrees = 90;
};
}),
(714,346,l),
(714,382,l,{
"Letterink-NibData" = {
AngleInDegrees = 270;
};
}),
(454,382,l),
(454,649,l,{
"Letterink-NibData" = {
AngleInDegrees = 90;
};
}),
(817,649,l),
(817,685,l,{
"Letterink-NibData" = {
AngleInDegrees = 270;
};
}),
(401,685,l,{
"Letterink-NibData" = {
AngleInDegrees = 208.86222;
};
}),
(30,1,l,{
"Letterink-NibData" = {
AngleInDegrees = 90;
};
})
);
},
{
closed = 1;
nodes = (
(433,272,l,{
"Letterink-NibData" = {
AngleInDegrees = 270;
};
}),
(187,272,l,{
"Letterink-NibData" = {
AngleInDegrees = 28.9193;
};
}),
(210,257,l,{
"Letterink-NibData" = {
AngleInDegrees = 28.9193;
};
}),
(394,601,l,{
"Letterink-NibData" = {
AngleInDegrees = 32.55;
};
}),
(417,650,l,{
"Letterink-NibData" = {
AngleInDegrees = 180;
};
}),
(417,256,l,{
"Letterink-NibData" = {
AngleInDegrees = 270;
};
})
);
}
);
width = 884;
},
{
anchors = (
{
name = bottom;
pos = (430,0);
},
{
name = top;
pos = (501,684);
}
);
layerId = m004;
shapes = (
{
closed = 1;
nodes = (
(185,1,l,{
"Letterink-NibData" = {
AngleInDegrees = "28.81079";
};
}),
(323,256,l,{
"Letterink-NibData" = {
AngleInDegrees = "90";
};
}),
(231,146,l,{
"Letterink-NibData" = {
AngleInDegrees = "90";
};
}),
(500,146,l,{
"Letterink-NibData" = {
AngleInDegrees = "180";
};
}),
(430,264,l,{
"Letterink-NibData" = {
AngleInDegrees = "180";
};
}),
(430,0,l,{
"Letterink-NibData" = {
AngleInDegrees = "90";
};
}),
(894,0,l),
(894,148,l,{
"Letterink-NibData" = {
AngleInDegrees = "270";
};
}),
(595,148,l),
(595,281,l,{
"Letterink-NibData" = {
AngleInDegrees = "90";
};
}),
(784,281,l),
(784,429,l,{
"Letterink-NibData" = {
AngleInDegrees = "270";
};
}),
(595,429,l),
(595,536,l,{
"Letterink-NibData" = {
AngleInDegrees = "90";
};
}),
(874,536,l),
(874,684,l,{
"Letterink-NibData" = {
AngleInDegrees = "270";
};
}),
(375,684,l,{
"Letterink-NibData" = {
AngleInDegrees = "209.70894";
};
}),
(2,0,l,{
"Letterink-NibData" = {
AngleInDegrees = "89.3704";
};
})
);
},
{
closed = 1;
nodes = (
(500,296,l,{
"Letterink-NibData" = {
AngleInDegrees = "270";
};
}),
(312,296,l,{
"Letterink-NibData" = {
AngleInDegrees = "28.68615";
};
}),
(349,279,l,{
"Letterink-NibData" = {
AngleInDegrees = "28.68615";
};
}),
(431,488,l,{
"Letterink-NibData" = {
AngleInDegrees = "23.62938";
};
}),
(430,449,l,{
"Letterink-NibData" = {
AngleInDegrees = "180";
};
}),
(430,275,l,{
"Letterink-NibData" = {
AngleInDegrees = "270";
};
})
);
}
);
width = 934;
}
);
metricLeft = A.ss01;
metricRight = E;
userData = {
position = 422;
width = 61;
};
},
{
glyphname = AE.swsh;
kernLeft = A;
kernRight = E;
layers = (
{
anchors = (
{
name = bottom;
pos = (537,0);
},
{
name = top;
pos = (548,673);
}
);
hints = (
{
name = _corner.caps_swash_diag;
options = 1;
origin = (0,12);
scale = (-1,1);
type = Corner;
},
{
name = _corner.caps_swash.big;
origin = (2,2);
type = Corner;
}
);
layerId = "0CAF3BED-C4AC-4024-B3E1-4C69D1EF7EC0";
shapes = (
{
closed = 1;
nodes = (
(914,-1,l),
(914,75,l,{
"Letterink-NibData" = {
AngleInDegrees = 270;
};
}),
(559,75,l),
(559,325,l,{
"Letterink-NibData" = {
AngleInDegrees = 90;
};
}),
(796,325,l),
(796,401,l,{
"Letterink-NibData" = {
AngleInDegrees = 270;
};
}),
(559,401,l),
(559,610,l,{
"Letterink-NibData" = {
AngleInDegrees = 90;
};
}),
(894,610,l),
(894,686,l,{
"Letterink-NibData" = {
AngleInDegrees = 270;
};
}),
(450,686,l,{
"Letterink-NibData" = {
AngleInDegrees = 208.5766;
};
}),
(152,116,l,{
"Letterink-NibData" = {
AngleInDegrees = 209.0546;
};
}),
(215,67,l,{
"Letterink-NibData" = {
AngleInDegrees = 26.8249;
};
}),
(306,252,l,{
"Letterink-NibData" = {
AngleInDegrees = 90;
};
}),
(254,210,l,{
"Letterink-NibData" = {
AngleInDegrees = 90;
};
}),
(513,210,l,{
"Letterink-NibData" = {
AngleInDegrees = 180;
};
}),
(477,256,l,{
"Letterink-NibData" = {
AngleInDegrees = 180;
};
}),
(477,-1,l,{
"Letterink-NibData" = {
AngleInDegrees = 90;
};
})
);
},
{
closed = 1;
nodes = (
(513,286,l,{
"Letterink-NibData" = {
AngleInDegrees = 270;
};
}),
(298,286,l,{
"Letterink-NibData" = {
AngleInDegrees = 28.71031;
};
}),
(317,264,l,{
"Letterink-NibData" = {
AngleInDegrees = 28.71031;
};
}),
(461,537,l,{
"Letterink-NibData" = {
AngleInDegrees = 23.19859;
};
}),
(477,586,l,{
"Letterink-NibData" = {
AngleInDegrees = 180;
};
}),
(477,260,l,{
"Letterink-NibData" = {
AngleInDegrees = 270;
};
})
);
},
{
closed = 1;
nodes = (
(453,609,l),
(453,685,l,{
"Letterink-NibData" = {
AngleInDegrees = "270";
};
}),
(300,685,l,{
"Letterink-NibData" = {
AngleInDegrees = "180";
};
}),
(300,609,l,{
"Letterink-NibData" = {
AngleInDegrees = "90";
};
})
);
}
);
width = 961;
},
{
anchors = (
{
name = bottom;
pos = (567,0);
},
{
name = top;
pos = (575,694);
}
);
hints = (
{
name = _corner.caps_swash_diag;
origin = (0,12);
scale = (-1,1);
type = Corner;
},
{
name = _corner.caps_swash.big;
origin = (2,2);
type = Corner;
}
);
layerId = "49C16FD3-6177-408B-A733-AEB3898BB77C";
shapes = (
{
closed = 1;
nodes = (
(939,1,l),
(939,37,l,{
"Letterink-NibData" = {
AngleInDegrees = 270;
};
}),
(560,37,l),
(560,346,l,{
"Letterink-NibData" = {
AngleInDegrees = 90;
};
}),
(816,346,l),
(816,382,l,{
"Letterink-NibData" = {
AngleInDegrees = 270;
};
}),
(560,382,l),
(560,649,l,{
"Letterink-NibData" = {
AngleInDegrees = 90;
};
}),
(919,649,l),
(919,685,l,{
"Letterink-NibData" = {
AngleInDegrees = 270;
};
}),
(502,685,l,{
"Letterink-NibData" = {
AngleInDegrees = 208.82166;
};
}),
(152,61,l,{
"Letterink-NibData" = {
AngleInDegrees = 213.69007;
};
}),
(188,48,l,{
"Letterink-NibData" = {
AngleInDegrees = 29.29136;
};
}),
(303,249,l,{
"Letterink-NibData" = {
AngleInDegrees = 90;
};
}),
(275,237,l,{
"Letterink-NibData" = {
AngleInDegrees = 90;
};
}),
(538,237,l,{
"Letterink-NibData" = {
AngleInDegrees = 180;
};
}),
(522,253,l,{
"Letterink-NibData" = {
AngleInDegrees = 180;
};
}),
(522,1,l,{
"Letterink-NibData" = {
AngleInDegrees = 90;
};
})
);
},
{
closed = 1;
nodes = (
(538,273,l,{
"Letterink-NibData" = {
AngleInDegrees = 270;
};
}),
(293,273,l,{
"Letterink-NibData" = {
AngleInDegrees = 28.59795;
};
}),
(306,259,l,{
"Letterink-NibData" = {
AngleInDegrees = 28.59795;
};
}),
(495,600,l,{
"Letterink-NibData" = {
AngleInDegrees = 27.32389;
};
}),
(521,650,l,{
"Letterink-NibData" = {
AngleInDegrees = 179.84962;
};
}),
(522,257,l,{
"Letterink-NibData" = {
AngleInDegrees = 270;
};
})
);
},
{
closed = 1;
nodes = (
(502,648,l),
(502,684,l,{
"Letterink-NibData" = {
AngleInDegrees = "270";
};
}),
(359,684,l,{
"Letterink-NibData" = {
AngleInDegrees = "180";
};
}),
(359,648,l,{
"Letterink-NibData" = {
AngleInDegrees = "90";
};
})
);
}
);
width = 959;
},
{
anchors = (
{
name = bottom;
pos = (548,0);
},
{
name = top;
pos = (556,692);
}
);
associatedMasterId = "49C16FD3-6177-408B-A733-AEB3898BB77C";
layerId = "C1A3D0A8-503D-4B78-876F-381CB7337013";
name = "11 Jan 22, 13:13";
shapes = (
{
closed = 1;
nodes = (
(139,-2,o),
(151,26,o),
(182,71,c,{
"Letterink-NibData" = {
AngleInDegrees = 29.29136;
};
}),
(274,235,l,{
"Letterink-NibData" = {
AngleInDegrees = 90;
};
}),
(502,235,l,{
"Letterink-NibData" = {
AngleInDegrees = 180;
};
}),
(502,1,l,{
"Letterink-NibData" = {
AngleInDegrees = 90;
};
}),
(921,1,l),
(921,41,l,{
"Letterink-NibData" = {
AngleInDegrees = 270;
};
}),
(544,41,l),
(544,344,l,{
"Letterink-NibData" = {
AngleInDegrees = 90;
};
}),
(798,344,l),
(798,384,l,{
"Letterink-NibData" = {
AngleInDegrees = 270;
};
}),
(544,384,l),
(544,645,l,{
"Letterink-NibData" = {
AngleInDegrees = 90;
};
}),
(901,645,l),
(901,685,l,{
"Letterink-NibData" = {
AngleInDegrees = 270;
};
}),
(474,685,l,{
"Letterink-NibData" = {
AngleInDegrees = 208.82166;
};
}),
(140,78,l,{
"Letterink-NibData" = {
AngleInDegrees = 213.69007;
};
}),
(126,57,o),
(117,38,o),
(93,38,cs,{
"Letterink-NibData" = {
AngleInDegrees = 270;
};
}),
(79,38,o),
(62,47,o),
(54,56,c,{
"Letterink-NibData" = {
AngleInDegrees = 244.0577;
};
}),
(17,38,l,{
"Letterink-NibData" = {
AngleInDegrees = 146.82149;
};
}),
(34,12,o),
(61,-2,o),
(92,-2,cs,{
"Letterink-NibData" = {
AngleInDegrees = 90;
};
})
);
},
{
closed = 1;
nodes = (
(470,596,l,{
"Letterink-NibData" = {
AngleInDegrees = 27.32389;
};
}),
(501,656,l,{
"Letterink-NibData" = {
AngleInDegrees = 179.84962;
};
}),
(502,275,l,{
"Letterink-NibData" = {
AngleInDegrees = 270;
};
}),
(295,275,l,{
"Letterink-NibData" = {
AngleInDegrees = 28.59795;
};
})
);
}
);
width = 966;
},
{
anchors = (
{
name = bottom;
pos = (543,0);
},
{
name = top;
pos = (554,673);
}
);
associatedMasterId = "0CAF3BED-C4AC-4024-B3E1-4C69D1EF7EC0";
layerId = "8D16C2AC-4E99-48C9-ADA3-C168C353B72B";
name = "11 Jan 22, 13:30";
shapes = (
{
closed = 1;
nodes = (
(142,-12,o),
(179,8,o),
(197,44,cs,{
"Letterink-NibData" = {
AngleInDegrees = 26.8249;
};
}),
(286,220,l,{
"Letterink-NibData" = {
AngleInDegrees = 90;
};
}),
(483,220,l,{
"Letterink-NibData" = {
AngleInDegrees = 180;
};
}),
(483,-1,l,{
"Letterink-NibData" = {
AngleInDegrees = 90;
};
}),
(920,-1,l),
(920,75,l,{
"Letterink-NibData" = {
AngleInDegrees = 270;
};
}),
(565,75,l),
(565,325,l,{
"Letterink-NibData" = {
AngleInDegrees = 90;
};
}),
(802,325,l),
(802,401,l,{
"Letterink-NibData" = {
AngleInDegrees = 270;
};
}),
(565,401,l),
(565,610,l,{
"Letterink-NibData" = {
AngleInDegrees = 90;
};
}),
(900,610,l),
(900,686,l,{
"Letterink-NibData" = {
AngleInDegrees = 270;
};
}),
(456,686,l,{
"Letterink-NibData" = {
AngleInDegrees = 208.5766;
};
}),
(133,93,ls,{
"Letterink-NibData" = {
AngleInDegrees = 209.0546;
};
}),
(123,75,o),
(114,67,o),
(99,67,cs,{
"Letterink-NibData" = {
AngleInDegrees = 270;
};
}),
(88,67,o),
(76,72,o),
(66,86,c,{
"Letterink-NibData" = {
AngleInDegrees = 220.6013;
};
}),
(18,30,l,{
"Letterink-NibData" = {
AngleInDegrees = 145.7843;
};
}),
(35,5,o),
(66,-12,o),
(107,-12,cs,{
"Letterink-NibData" = {
AngleInDegrees = 90;
};
})
);
},
{
closed = 1;
nodes = (
(462,537,l,{
"Letterink-NibData" = {
AngleInDegrees = 23.19859;
};
}),
(483,586,l,{
"Letterink-NibData" = {
AngleInDegrees = 180;
};
}),
(483,296,l,{
"Letterink-NibData" = {
AngleInDegrees = 270;
};
}),
(330,296,l,{
"Letterink-NibData" = {
AngleInDegrees = 28.71031;
};
})
);
}
);
width = 962;
},
{
anchors = (
{
name = bottom;
pos = (528,0);
},
{
name = top;
pos = (660,673);
}
);
hints = (
{
name = _corner.caps_swash_diag;
options = 1;
origin = (0,12);
scale = (-1,1);
type = Corner;
},
{
name = _corner.caps_swash.big;
origin = (2,2);
type = Corner;
}
);
layerId = m004;
shapes = (
{
closed = 1;
nodes = (
(992,0,l),
(992,148,l,{
"Letterink-NibData" = {
AngleInDegrees = "270";
};
}),
(693,148,l),
(693,291,l,{
"Letterink-NibData" = {
AngleInDegrees = "90";
};
}),
(882,291,l),
(882,439,l,{
"Letterink-NibData" = {
AngleInDegrees = "270";
};
}),
(693,439,l),
(693,536,l,{
"Letterink-NibData" = {
AngleInDegrees = "90";
};
}),
(972,536,l),
(972,684,l,{
"Letterink-NibData" = {
AngleInDegrees = "270";
};
}),
(468,684,l,{
"Letterink-NibData" = {
AngleInDegrees = "209.70894";
};
}),
(187,143,l,{
"Letterink-NibData" = {
AngleInDegrees = "89.3704";
};
}),
(327,58,l,{
"Letterink-NibData" = {
AngleInDegrees = "28.81079";
};
}),
(421,256,l,{
"Letterink-NibData" = {
AngleInDegrees = "90";
};
}),
(329,146,l,{
"Letterink-NibData" = {
AngleInDegrees = "90";
};
}),
(598,146,l,{
"Letterink-NibData" = {
AngleInDegrees = "180";
};
}),
(528,264,l,{
"Letterink-NibData" = {
AngleInDegrees = "180";
};
}),
(528,0,l,{
"Letterink-NibData" = {
AngleInDegrees = "90";
};
})
);
},
{
closed = 1;
nodes = (
(598,296,l,{
"Letterink-NibData" = {
AngleInDegrees = "270";
};
}),
(410,296,l,{
"Letterink-NibData" = {
AngleInDegrees = "28.68615";
};
}),
(447,279,l,{
"Letterink-NibData" = {
AngleInDegrees = "28.68615";
};
}),
(530,488,l,{
"Letterink-NibData" = {
AngleInDegrees = "23.62938";
};
}),
(528,449,l,{
"Letterink-NibData" = {
AngleInDegrees = "180";
};
}),
(528,275,l,{
"Letterink-NibData" = {
AngleInDegrees = "270";
};
})
);
},
{
closed = 1;
nodes = (
(517,536,l),
(517,684,l,{
"Letterink-NibData" = {
AngleInDegrees = "270";
};
}),
(295,684,l,{
"Letterink-NibData" = {
AngleInDegrees = "180";
};
}),
(296,535,l)
);
}
);
width = 1002;
},
{
anchors = (
{
name = bottom;
pos = (543,0);
},
{
name = top;
pos = (554,673);
}
);
associatedMasterId = m004;
layerId = "80EF8790-0869-49FF-90A7-EBAC34F5F575";
name = "11 Jan 22, 13:30";
shapes = (
{
closed = 1;
nodes = (
(142,-12,o),
(179,8,o),
(197,44,cs,{
"Letterink-NibData" = {
AngleInDegrees = 26.8249;
};
}),
(286,220,l,{
"Letterink-NibData" = {
AngleInDegrees = 90;
};
}),
(483,220,l,{
"Letterink-NibData" = {
AngleInDegrees = 180;
};
}),
(483,-1,l,{
"Letterink-NibData" = {
AngleInDegrees = 90;
};
}),
(920,-1,l),
(920,75,l,{
"Letterink-NibData" = {
AngleInDegrees = 270;
};
}),
(565,75,l),
(565,325,l,{
"Letterink-NibData" = {
AngleInDegrees = 90;
};
}),
(802,325,l),
(802,401,l,{
"Letterink-NibData" = {
AngleInDegrees = 270;
};
}),
(565,401,l),
(565,610,l,{
"Letterink-NibData" = {
AngleInDegrees = 90;
};
}),
(900,610,l),
(900,686,l,{
"Letterink-NibData" = {
AngleInDegrees = 270;
};
}),
(456,686,l,{
"Letterink-NibData" = {
AngleInDegrees = 208.5766;
};
}),
(133,93,ls,{
"Letterink-NibData" = {
AngleInDegrees = 209.0546;
};
}),
(123,75,o),
(114,67,o),
(99,67,cs,{
"Letterink-NibData" = {
AngleInDegrees = 270;
};
}),
(88,67,o),
(76,72,o),
(66,86,c,{
"Letterink-NibData" = {
AngleInDegrees = 220.6013;
};
}),
(18,30,l,{
"Letterink-NibData" = {
AngleInDegrees = 145.7843;
};
}),
(35,5,o),
(66,-12,o),
(107,-12,cs,{
"Letterink-NibData" = {
AngleInDegrees = 90;
};
})
);
},
{
closed = 1;
nodes = (
(462,537,l,{
"Letterink-NibData" = {
AngleInDegrees = 23.19859;
};
}),
(483,586,l,{
"Letterink-NibData" = {
AngleInDegrees = 180;
};
}),
(483,296,l,{
"Letterink-NibData" = {
AngleInDegrees = 270;
};
}),
(330,296,l,{
"Letterink-NibData" = {
AngleInDegrees = 28.71031;
};
})
);
}
);
width = 962;
}
);
metricLeft = A.swsh;
userData = {
position = 422;
width = 61;
};
},
{
glyphname = B;
kernLeft = E;
kernRight = B;
layers = (
{
anchors = (
{
name = bottom;
pos = (333,0);
},
{
name = center;
pos = (343,368);
},
{
name = top;
pos = (333,684);
}
);
hints = (
{
name = _corner.caps_left;
origin = (0,18);
type = Corner;
}
);
layerId = "0CAF3BED-C4AC-4024-B3E1-4C69D1EF7EC0";
shapes = (
{
closed = 1;
nodes = (
(503,-10,o),
(596,63,o),
(596,190,cs),
(596,264,o),
(565,318,o),
(515,348,cs,{
"Letterink-NibData" = {
AngleInDegrees = 300.96376;
};
}),
(491,362,o),
(464,370,o),
(454,370,c,{
"Letterink-NibData" = {
AngleInDegrees = 71.56505;
};
}),
(465,374,o),
(481,377,o),
(498,385,cs,{
"Letterink-NibData" = {
AngleInDegrees = 63.43495;
};
}),
(542,407,o),
(566,453,o),
(566,511,cs),
(566,617,o),
(486,684,o),
(358,684,cs,{
"Letterink-NibData" = {
AngleInDegrees = 270;
};
}),
(132,684,l,{
"Letterink-NibData" = {
AngleInDegrees = 180;
};
}),
(132,608,l,{
"Letterink-NibData" = {
AngleInDegrees = 90;
};
}),
(359,608,l,{
"Letterink-NibData" = {
AngleInDegrees = 93.91825;
};
}),
(442,608,o),
(484,568,o),
(484,508,cs,{
"Letterink-NibData" = {
AngleInDegrees = 180;
};
}),
(484,443,o),
(435,401,o),
(357,401,cs,{
"Letterink-NibData" = {
AngleInDegrees = 270;
};
}),
(172,401,l,{
"Letterink-NibData" = {
AngleInDegrees = 180;
};
}),
(172,325,l,{
"Letterink-NibData" = {
AngleInDegrees = 90;
};
}),
(364,324,ls,{
"Letterink-NibData" = {
AngleInDegrees = 90;
};
}),
(457,324,o),
(515,273,o),
(515,188,cs,{
"Letterink-NibData" = {
AngleInDegrees = 180;
};
}),
(515,102,o),
(456,66,o),
(331,64,cs,{
"Letterink-NibData" = {
AngleInDegrees = 270;
};
}),
(295,63,o),
(252,65,o),
(214,71,c),
(214,642,l,{
"Letterink-NibData" = {
AngleInDegrees = 270;
};
}),
(132,642,l,{
"Letterink-NibData" = {
AngleInDegrees = 180;
};
}),
(132,2,l,{
"Letterink-NibData" = {
AngleInDegrees = 96.54629;
};
}),
(193,-5,ls,{
"Letterink-NibData" = {
AngleInDegrees = 96.70984;
};
}),
(214,-7,o),
(280,-10,o),
(318,-10,cs,{
"Letterink-NibData" = {
AngleInDegrees = 90;
};
})
);
}
);
width = 647;
},
{
anchors = (
{
name = bottom;
pos = (320,-2);
},
{
name = center;
pos = (337,367);
},
{
name = top;
pos = (320,684);
}
);
hints = (
{
name = _corner.caps_left;
origin = (0,18);
type = Corner;
}
);
layerId = "49C16FD3-6177-408B-A733-AEB3898BB77C";
shapes = (
{
closed = 1;
nodes = (
(469,-9,o),
(577,43,o),
(577,181,cs),
(577,254,o),
(540,315,o),
(470,349,cs,{
"Letterink-NibData" = {
AngleInDegrees = 305.53768;
};
}),
(459,354,o),
(435,361,o),
(407,366,c,{
"Letterink-NibData" = {
AngleInDegrees = 75.67728;
};
}),
(437,373,o),
(456,375,o),
(485,398,cs,{
"Letterink-NibData" = {
AngleInDegrees = 53.1301;
};
}),
(515,422,o),
(544,453,o),
(544,515,cs),
(544,633,o),
(451,684,o),
(347,684,cs,{
"Letterink-NibData" = {
AngleInDegrees = 270;
};
}),
(134,684,l,{
"Letterink-NibData" = {
AngleInDegrees = 180;
};
}),
(134,648,l,{
"Letterink-NibData" = {
AngleInDegrees = 90;
};
}),
(363,648,l,{
"Letterink-NibData" = {
AngleInDegrees = 93.81407;
};
}),
(454,648,o),
(505,598,o),
(505,519,cs,{
"Letterink-NibData" = {
AngleInDegrees = 180;
};
}),
(505,425,o),
(433,382,o),
(346,382,cs,{
"Letterink-NibData" = {
AngleInDegrees = 270;
};
}),
(160,382,l,{
"Letterink-NibData" = {
AngleInDegrees = 180;
};
}),
(160,346,l,{
"Letterink-NibData" = {
AngleInDegrees = 90;
};
}),
(353,346,ls,{
"Letterink-NibData" = {
AngleInDegrees = 90;
};
}),
(473,346,o),
(539,271,o),
(539,181,cs,{
"Letterink-NibData" = {
AngleInDegrees = 180;
};
}),
(539,78,o),
(455,26,o),
(339,26,cs,{
"Letterink-NibData" = {
AngleInDegrees = 270;
};
}),
(331,26,o),
(221,26,o),
(172,32,c),
(172,654,l,{
"Letterink-NibData" = {
AngleInDegrees = 270;
};
}),
(131,654,l,{
"Letterink-NibData" = {
AngleInDegrees = 90;
};
}),
(135,3,l,{
"Letterink-NibData" = {
AngleInDegrees = 98.65254;
};
}),
(177,-4,ls,{
"Letterink-NibData" = {
AngleInDegrees = 99.21103;
};
}),
(216,-10,o),
(338,-9,o),
(329,-9,cs,{
"Letterink-NibData" = {
AngleInDegrees = 90;
};
})
);
}
);
width = 638;
},
{
anchors = (
{
name = bottom;
pos = (386,-2);
},
{
name = center;
pos = (386,356);
},
{
name = top;
pos = (381,684);
}
);
hints = (
{
name = _corner.caps_left;
origin = (0,18);
type = Corner;
}
);
layerId = m004;
shapes = (
{
closed = 1;
nodes = (
(589,19,o),
(654,93,o),
(654,195,cs),
(654,254,o),
(621,313,o),
(576,339,cs),
(546,356,o),
(530,361,o),
(502,365,c,{
"Letterink-NibData" = {
AngleInDegrees = "77.90524000000001";
};
}),
(534,369,o),
(550,377,o),
(569,391,cs,{
"Letterink-NibData" = {
AngleInDegrees = "63.90458";
};
}),
(617,426,o),
(632,471,o),
(632,520,cs),
(632,617,o),
(548,684,o),
(415,684,cs,{
"Letterink-NibData" = {
AngleInDegrees = "270";
};
}),
(161,684,l,{
"Letterink-NibData" = {
AngleInDegrees = "180";
};
}),
(161,536,l),
(415,536,ls,{
"Letterink-NibData" = {
AngleInDegrees = "90";
};
}),
(450,536,o),
(471,513,o),
(471,485,cs,{
"Letterink-NibData" = {
AngleInDegrees = "180";
};
}),
(471,451,o),
(448,424,o),
(421,424,cs,{
"Letterink-NibData" = {
AngleInDegrees = "269.3338";
};
}),
(296,424,l,{
"Letterink-NibData" = {
AngleInDegrees = "180.77422";
};
}),
(296,289,l,{
"Letterink-NibData" = {
AngleInDegrees = "90";
};
}),
(412,289,ls,{
"Letterink-NibData" = {
AngleInDegrees = "90";
};
}),
(460,289,o),
(499,258,o),
(499,211,cs,{
"Letterink-NibData" = {
AngleInDegrees = "180";
};
}),
(499,158,o),
(462,132,o),
(388,132,cs,{
"Letterink-NibData" = {
AngleInDegrees = "270";
};
}),
(365,132,o),
(351,133,o),
(326,137,c),
(326,551,l,{
"Letterink-NibData" = {
AngleInDegrees = "90";
};
}),
(161,552,l),
(161,6,l,{
"Letterink-NibData" = {
AngleInDegrees = "96.44159999999999";
};
}),
(213,-2,ls,{
"Letterink-NibData" = {
AngleInDegrees = "96.65443";
};
}),
(306,-16,o),
(415,-17,o),
(481,-3,cs,{
"Letterink-NibData" = {
AngleInDegrees = "90";
};
})
);
}
);
width = 682;
}
);
metricLeft = E;
unicode = 66;
userData = {
position = 514;
width = 59;
};
},
{
glyphname = B.ss01;
kernLeft = L;
kernRight = B;
layers = (
{
anchors = (
{
name = bottom;
pos = (282,0);
},
{
name = center;
pos = (292,370);
},
{
name = top;
pos = (282,684);
}
);
layerId = "0CAF3BED-C4AC-4024-B3E1-4C69D1EF7EC0";
shapes = (
{
closed = 1;
nodes = (
(452,-10,o),
(545,63,o),
(545,190,cs),
(545,264,o),
(514,318,o),
(464,348,cs,{
"Letterink-NibData" = {
AngleInDegrees = 300.96376;
};
}),
(437,364,o),
(405,368,o),
(393,370,c,{
"Letterink-NibData" = {
AngleInDegrees = 71.56505;
};
}),
(407,372,o),
(427,375,o),
(447,385,cs,{
"Letterink-NibData" = {
AngleInDegrees = 63.43495;
};
}),
(491,407,o),
(515,453,o),
(515,511,cs),
(515,617,o),
(435,684,o),
(307,684,cs,{
"Letterink-NibData" = {
AngleInDegrees = 270;
};
}),
(81,684,l,{
"Letterink-NibData" = {
AngleInDegrees = 180;
};
}),
(81,606,l,{
"Letterink-NibData" = {
AngleInDegrees = 90;
};
}),
(308,606,l,{
"Letterink-NibData" = {
AngleInDegrees = 93.91825;
};
}),
(391,601,o),
(433,568,o),
(433,508,cs,{
"Letterink-NibData" = {
AngleInDegrees = 180;
};
}),
(433,443,o),
(384,401,o),
(306,401,cs,{
"Letterink-NibData" = {
AngleInDegrees = 270;
};
}),
(121,401,l,{
"Letterink-NibData" = {
AngleInDegrees = 180;
};
}),
(121,325,l,{
"Letterink-NibData" = {
AngleInDegrees = 90;
};
}),
(313,324,ls,{
"Letterink-NibData" = {
AngleInDegrees = 90;
};
}),
(406,324,o),
(464,273,o),
(464,188,cs,{
"Letterink-NibData" = {
AngleInDegrees = 180;
};
}),
(464,102,o),
(405,66,o),
(280,64,cs,{
"Letterink-NibData" = {
AngleInDegrees = 270;
};
}),
(244,63,o),
(201,65,o),
(163,71,c),
(163,642,l,{
"Letterink-NibData" = {
AngleInDegrees = 270;
};
}),
(81,642,l,{
"Letterink-NibData" = {
AngleInDegrees = 180;
};
}),
(81,2,l,{
"Letterink-NibData" = {
AngleInDegrees = 96.54629;
};
}),
(142,-5,ls,{
"Letterink-NibData" = {
AngleInDegrees = 96.70984;
};
}),
(163,-7,o),
(229,-10,o),
(267,-10,cs,{
"Letterink-NibData" = {
AngleInDegrees = 90;
};
})
);
}
);
width = 596;
},
{
anchors = (
{
name = bottom;
pos = (280,0);
},
{
name = center;
pos = (274,363);
},
{
name = top;
pos = (280,684);
}
);
layerId = "49C16FD3-6177-408B-A733-AEB3898BB77C";
shapes = (
{
closed = 1;
nodes = (
(449,-9,o),
(537,58,o),
(537,177,cs),
(537,256,o),
(498,317,o),
(440,346,cs,{
"Letterink-NibData" = {
AngleInDegrees = 305.53768;
};
}),
(418,356,o),
(392,361,o),
(367,365,c,{
"Letterink-NibData" = {
AngleInDegrees = 75.67728;
};
}),
(395,369,o),
(424,380,o),
(453,403,cs,{
"Letterink-NibData" = {
AngleInDegrees = 53.1301;
};
}),
(487,430,o),
(504,467,o),
(504,516,cs),
(504,619,o),
(428,684,o),
(307,684,cs,{
"Letterink-NibData" = {
AngleInDegrees = 270;
};
}),
(91,684,l,{
"Letterink-NibData" = {
AngleInDegrees = 180;
};
}),
(91,648,l,{
"Letterink-NibData" = {
AngleInDegrees = 90;
};
}),
(323,648,l,{
"Letterink-NibData" = {
AngleInDegrees = 93.81407;
};
}),
(416,641,o),
(465,596,o),
(465,520,cs,{
"Letterink-NibData" = {
AngleInDegrees = 180;
};
}),
(465,435,o),
(404,382,o),
(306,382,cs,{
"Letterink-NibData" = {
AngleInDegrees = 270;
};
}),
(124,382,l,{
"Letterink-NibData" = {
AngleInDegrees = 180;
};
}),
(124,347,l,{
"Letterink-NibData" = {
AngleInDegrees = 90;
};
}),
(313,347,ls,{
"Letterink-NibData" = {
AngleInDegrees = 90;
};
}),
(423,347,o),
(499,276,o),
(499,179,cs,{
"Letterink-NibData" = {
AngleInDegrees = 180;
};
}),
(499,63,o),
(423,26,o),
(270,26,cs,{
"Letterink-NibData" = {
AngleInDegrees = 270;
};
}),
(235,26,o),
(158,29,o),
(132,32,c),
(132,654,l,{
"Letterink-NibData" = {
AngleInDegrees = 270;
};
}),
(91,654,l,{
"Letterink-NibData" = {
AngleInDegrees = 90;
};
}),
(92,3,l,{
"Letterink-NibData" = {
AngleInDegrees = 98.65254;
};
}),
(137,-4,ls,{
"Letterink-NibData" = {
AngleInDegrees = 99.21103;
};
}),
(176,-10,o),
(298,-9,o),
(314,-9,cs,{
"Letterink-NibData" = {
AngleInDegrees = 90;
};
})
);
}
);
width = 598;
},
{
anchors = (
{
name = bottom;
pos = (283,0);
},
{
name = center;
pos = (283,356);
},
{
name = top;
pos = (283,684);
}
);
layerId = m004;
shapes = (
{
closed = 1;
nodes = (
(486,19,o),
(551,93,o),
(551,195,cs),
(551,254,o),
(518,313,o),
(473,339,cs),
(443,356,o),
(427,361,o),
(399,365,c,{
"Letterink-NibData" = {
AngleInDegrees = "77.90524000000001";
};
}),
(431,369,o),
(447,377,o),
(466,391,cs,{
"Letterink-NibData" = {
AngleInDegrees = "63.90458";
};
}),
(514,426,o),
(529,471,o),
(529,520,cs),
(529,617,o),
(445,686,o),
(312,686,cs,{
"Letterink-NibData" = {
AngleInDegrees = "270";
};
}),
(58,686,l,{
"Letterink-NibData" = {
AngleInDegrees = "180";
};
}),
(58,535,l),
(312,536,ls,{
"Letterink-NibData" = {
AngleInDegrees = "90";
};
}),
(347,536,o),
(368,513,o),
(368,485,cs,{
"Letterink-NibData" = {
AngleInDegrees = "180";
};
}),
(368,451,o),
(345,424,o),
(318,424,cs,{
"Letterink-NibData" = {
AngleInDegrees = "269.3338";
};
}),
(193,424,l,{
"Letterink-NibData" = {
AngleInDegrees = "180.77422";
};
}),
(193,289,l,{
"Letterink-NibData" = {
AngleInDegrees = "90";
};
}),
(309,289,ls,{
"Letterink-NibData" = {
AngleInDegrees = "90";
};
}),
(357,289,o),
(396,258,o),
(396,211,cs,{
"Letterink-NibData" = {
AngleInDegrees = "180";
};
}),
(396,158,o),
(359,132,o),
(285,132,cs,{
"Letterink-NibData" = {
AngleInDegrees = "270";
};
}),
(262,132,o),
(248,133,o),
(223,137,c),
(223,551,l,{
"Letterink-NibData" = {
AngleInDegrees = "90";
};
}),
(58,552,l),
(58,6,l,{
"Letterink-NibData" = {
AngleInDegrees = "96.44159999999999";
};
}),
(110,-2,ls,{
"Letterink-NibData" = {
AngleInDegrees = "96.65443";
};
}),
(203,-16,o),
(312,-17,o),
(378,-3,cs,{
"Letterink-NibData" = {
AngleInDegrees = "90";
};
})
);
}
);
width = 579;
}
);
metricLeft = N.ss01;
metricRight = B;
userData = {
position = 494;
width = 59;
};
},
{
glyphname = B.swsh;
kernLeft = Swash;
kernRight = B;
layers = (
{
anchors = (
{
name = bottom;
pos = (367,0);
},
{
name = center;
pos = (377,369);
},
{
name = top;
pos = (367,684);
}
);
background = {
hints = (
{
name = _corner.caps_swash;
origin = (0,18);
type = Corner;
}
);
shapes = (
{
closed = 1;
nodes = (
(536,-10,o),
(615,76,o),
(615,187,cs),
(615,254,o),
(587,306,o),
(548,335,cs,{
"Letterink-NibData" = {
AngleInDegrees = 306.46923;
};
}),
(525,352,o),
(486,363,o),
(463,363,c,{
"Letterink-NibData" = {
AngleInDegrees = 78.69007;
};
}),
(483,367,o),
(509,368,o),
(536,393,cs,{
"Letterink-NibData" = {
AngleInDegrees = 47.91084;
};
}),
(567,421,o),
(584,458,o),
(584,506,cs),
(584,621,o),
(495,685,o),
(376,685,cs,{
"Letterink-NibData" = {
AngleInDegrees = 270;
};
}),
(140,685,l,{
"Letterink-NibData" = {
AngleInDegrees = 180;
};
}),
(140,609,l,{
"Letterink-NibData" = {
AngleInDegrees = 90;
};
}),
(389,609,ls,{
"Letterink-NibData" = {
AngleInDegrees = 90;
};
}),
(459,609,o),
(502,571,o),
(502,509,cs,{
"Letterink-NibData" = {
AngleInDegrees = 180;
};
}),
(502,434,o),
(449,401,o),
(375,401,cs,{
"Letterink-NibData" = {
AngleInDegrees = 270;
};
}),
(288,401,l,{
"Letterink-NibData" = {
AngleInDegrees = 180;
};
}),
(288,324,l,{
"Letterink-NibData" = {
AngleInDegrees = 90;
};
}),
(382,324,ls,{
"Letterink-NibData" = {
AngleInDegrees = 90;
};
}),
(463,324,o),
(533,278,o),
(533,191,cs,{
"Letterink-NibData" = {
AngleInDegrees = 180;
};
}),
(533,97,o),
(469,66,o),
(353,66,cs,{
"Letterink-NibData" = {
AngleInDegrees = 270;
};
}),
(334,66,o),
(323,67,o),
(241,71,c),
(241,561,l,{
"Letterink-NibData" = {
AngleInDegrees = 270;
};
}),
(159,561,l,{
"Letterink-NibData" = {
AngleInDegrees = 180;
};
}),
(159,2,l,{
"Letterink-NibData" = {
AngleInDegrees = 96.34019;
};
}),
(222,-5,ls,{
"Letterink-NibData" = {
AngleInDegrees = 97.12502;
};
}),
(246,-8,o),
(300,-10,o),
(347,-10,cs,{
"Letterink-NibData" = {
AngleInDegrees = 90;
};
})
);
}
);
};
hints = (
{
name = _corner.caps_swash;
options = 2;
origin = (0,18);
type = Corner;
}
);
layerId = "0CAF3BED-C4AC-4024-B3E1-4C69D1EF7EC0";
shapes = (
{
closed = 1;
nodes = (
(537,-10,o),
(630,63,o),
(630,190,cs),
(630,264,o),
(599,318,o),
(553,345,cs,{
"Letterink-NibData" = {
AngleInDegrees = "300.96376";
};
}),
(524,363,o),
(490,369,o),
(478,370,c,{
"Letterink-NibData" = {
AngleInDegrees = "71.56505";
};
}),
(491,373,o),
(512,375,o),
(533,386,cs,{
"Letterink-NibData" = {
AngleInDegrees = "63.43495";
};
}),
(576,407,o),
(600,453,o),
(600,511,cs),
(600,617,o),
(520,684,o),
(392,684,cs,{
"Letterink-NibData" = {
AngleInDegrees = "270";
};
}),
(166,684,l,{
"Letterink-NibData" = {
AngleInDegrees = "180";
};
}),
(166,608,l,{
"Letterink-NibData" = {
AngleInDegrees = "90";
};
}),
(393,608,l,{
"Letterink-NibData" = {
AngleInDegrees = "93.91825";
};
}),
(476,603,o),
(518,568,o),
(518,508,cs,{
"Letterink-NibData" = {
AngleInDegrees = "180";
};
}),
(518,443,o),
(469,401,o),
(391,401,cs,{
"Letterink-NibData" = {
AngleInDegrees = "270";
};
}),
(296,401,l,{
"Letterink-NibData" = {
AngleInDegrees = "180";
};
}),
(296,325,l,{
"Letterink-NibData" = {
AngleInDegrees = "90";
};
}),
(398,324,ls,{
"Letterink-NibData" = {
AngleInDegrees = "90";
};
}),
(491,323,o),
(549,273,o),
(549,193,cs,{
"Letterink-NibData" = {
AngleInDegrees = "180";
};
}),
(549,112,o),
(490,66,o),
(361,64,cs,{
"Letterink-NibData" = {
AngleInDegrees = "270";
};
}),
(329,63,o),
(286,65,o),
(248,71,c),
(248,560,l,{
"Letterink-NibData" = {
AngleInDegrees = "270";
};
}),
(166,560,l,{
"Letterink-NibData" = {
AngleInDegrees = "180";
};
}),
(166,2,l,{
"Letterink-NibData" = {
AngleInDegrees = "96.54629";
};
}),
(227,-5,ls,{
"Letterink-NibData" = {
AngleInDegrees = "96.70984";
};
}),
(248,-7,o),
(314,-10,o),
(352,-10,cs,{
"Letterink-NibData" = {
AngleInDegrees = "90";
};
})
);
}
);
width = 668;
},
{
anchors = (
{
name = bottom;
pos = (306,0);
},
{
name = center;
pos = (324,367);
},
{
name = top;
pos = (306,684);
}
);
background = {
hints = (
{
name = _corner.caps_swash;
origin = (0,18);
type = Corner;
}
);
shapes = (
{
closed = 1;
nodes = (
(495,-9,o),
(589,47,o),
(589,178,cs),
(589,266,o),
(547,319,o),
(483,351,cs,{
"Letterink-NibData" = {
AngleInDegrees = 296.56505;
};
}),
(475,355,o),
(444,362,o),
(429,365,c,{
"Letterink-NibData" = {
AngleInDegrees = 80.83765;
};
}),
(460,370,o),
(478,380,o),
(480,381,cs,{
"Letterink-NibData" = {
AngleInDegrees = 63.43495;
};
}),
(530,406,o),
(558,452,o),
(558,514,cs),
(558,620,o),
(467,685,o),
(360,685,cs,{
"Letterink-NibData" = {
AngleInDegrees = 270;
};
}),
(122,685,l,{
"Letterink-NibData" = {
AngleInDegrees = 180;
};
}),
(122,645,l,{
"Letterink-NibData" = {
AngleInDegrees = 90;
};
}),
(374,645,l,{
"Letterink-NibData" = {
AngleInDegrees = 93.40644;
};
}),
(458,640,o),
(515,593,o),
(515,517,cs,{
"Letterink-NibData" = {
AngleInDegrees = 180;
};
}),
(515,425,o),
(445,383,o),
(359,383,cs,{
"Letterink-NibData" = {
AngleInDegrees = 270;
};
}),
(277,383,l,{
"Letterink-NibData" = {
AngleInDegrees = 180;
};
}),
(277,345,l,{
"Letterink-NibData" = {
AngleInDegrees = 90;
};
}),
(366,345,ls,{
"Letterink-NibData" = {
AngleInDegrees = 90;
};
}),
(461,345,o),
(547,289,o),
(547,182,cs,{
"Letterink-NibData" = {
AngleInDegrees = 180;
};
}),
(547,78,o),
(467,29,o),
(334,29,cs,{
"Letterink-NibData" = {
AngleInDegrees = 270;
};
}),
(316,29,o),
(271,31,o),
(195,34,c),
(195,591,l,{
"Letterink-NibData" = {
AngleInDegrees = 270;
};
}),
(153,591,l,{
"Letterink-NibData" = {
AngleInDegrees = 180;
};
}),
(153,1,l,{
"Letterink-NibData" = {
AngleInDegrees = 94.96974;
};
}),
(199,-3,ls,{
"Letterink-NibData" = {
AngleInDegrees = 94.92711;
};
}),
(257,-8,o),
(284,-9,o),
(314,-9,cs,{
"Letterink-NibData" = {
AngleInDegrees = 90;
};
})
);
}
);
};
hints = (
{
name = _corner.caps_swash;
origin = (0,18);
type = Corner;
}
);
layerId = "49C16FD3-6177-408B-A733-AEB3898BB77C";
shapes = (
{
closed = 1;
nodes = (
(513,-9,o),
(601,58,o),
(601,177,cs),
(601,256,o),
(562,319,o),
(503,348,cs,{
"Letterink-NibData" = {
AngleInDegrees = "305.53768";
};
}),
(482,358,o),
(456,363,o),
(431,364,c,{
"Letterink-NibData" = {
AngleInDegrees = "75.67728";
};
}),
(459,371,o),
(488,379,o),
(518,403,cs,{
"Letterink-NibData" = {
AngleInDegrees = "53.1301";
};
}),
(551,430,o),
(568,467,o),
(568,516,cs),
(568,619,o),
(492,684,o),
(371,684,cs,{
"Letterink-NibData" = {
AngleInDegrees = "270";
};
}),
(155,684,l,{
"Letterink-NibData" = {
AngleInDegrees = "180";
};
}),
(155,648,l,{
"Letterink-NibData" = {
AngleInDegrees = "90";
};
}),
(387,648,l,{
"Letterink-NibData" = {
AngleInDegrees = "93.81407";
};
}),
(480,641,o),
(529,596,o),
(529,520,cs,{
"Letterink-NibData" = {
AngleInDegrees = "180";
};
}),
(529,435,o),
(468,382,o),
(370,382,cs,{
"Letterink-NibData" = {
AngleInDegrees = "270";
};
}),
(281,382,l,{
"Letterink-NibData" = {
AngleInDegrees = "180";
};
}),
(281,347,l,{
"Letterink-NibData" = {
AngleInDegrees = "90";
};
}),
(377,347,ls,{
"Letterink-NibData" = {
AngleInDegrees = "90";
};
}),
(479,347,o),
(563,280,o),
(563,183,cs,{
"Letterink-NibData" = {
AngleInDegrees = "180";
};
}),
(563,76,o),
(487,26,o),
(352,26,cs,{
"Letterink-NibData" = {
AngleInDegrees = "270";
};
}),
(300,26,o),
(222,29,o),
(196,32,c),
(196,597,l,{
"Letterink-NibData" = {
AngleInDegrees = "270";
};
}),
(155,597,l,{
"Letterink-NibData" = {
AngleInDegrees = "179.91332";
};
}),
(156,3,l,{
"Letterink-NibData" = {
AngleInDegrees = "98.65254";
};
}),
(201,-4,ls,{
"Letterink-NibData" = {
AngleInDegrees = "99.21102999999999";
};
}),
(240,-10,o),
(362,-9,o),
(378,-9,cs,{
"Letterink-NibData" = {
AngleInDegrees = "90";
};
})
);
}
);
width = 642;
},
{
anchors = (
{
name = bottom;
pos = (397,0);
},
{
name = center;
pos = (397,355);
},
{
name = top;
pos = (397,684);
}
);
hints = (
{
name = _corner.caps_swash;
options = 2;
origin = (0,18);
type = Corner;
}
);
layerId = m004;
shapes = (
{
closed = 1;
nodes = (
(624,19,o),
(689,93,o),
(689,195,cs),
(689,254,o),
(656,313,o),
(611,339,cs),
(581,356,o),
(565,361,o),
(537,365,c,{
"Letterink-NibData" = {
AngleInDegrees = "77.90524000000001";
};
}),
(569,369,o),
(585,377,o),
(604,391,cs,{
"Letterink-NibData" = {
AngleInDegrees = "63.90458";
};
}),
(652,426,o),
(667,471,o),
(667,520,cs),
(667,617,o),
(583,686,o),
(450,686,cs,{
"Letterink-NibData" = {
AngleInDegrees = "270";
};
}),
(196,686,l,{
"Letterink-NibData" = {
AngleInDegrees = "180";
};
}),
(196,538,l),
(450,539,ls,{
"Letterink-NibData" = {
AngleInDegrees = "90";
};
}),
(485,539,o),
(506,513,o),
(506,485,cs,{
"Letterink-NibData" = {
AngleInDegrees = "180";
};
}),
(506,451,o),
(483,424,o),
(456,424,cs,{
"Letterink-NibData" = {
AngleInDegrees = "269.3338";
};
}),
(401,424,l,{
"Letterink-NibData" = {
AngleInDegrees = "180.77422";
};
}),
(401,289,l,{
"Letterink-NibData" = {
AngleInDegrees = "90";
};
}),
(447,289,ls,{
"Letterink-NibData" = {
AngleInDegrees = "90";
};
}),
(495,289,o),
(534,258,o),
(534,211,cs,{
"Letterink-NibData" = {
AngleInDegrees = "180";
};
}),
(534,158,o),
(497,132,o),
(423,132,cs,{
"Letterink-NibData" = {
AngleInDegrees = "270";
};
}),
(400,132,o),
(386,133,o),
(361,137,c),
(361,498,l,{
"Letterink-NibData" = {
AngleInDegrees = "90";
};
}),
(196,499,l),
(196,6,l,{
"Letterink-NibData" = {
AngleInDegrees = "96.44159999999999";
};
}),
(248,-2,ls,{
"Letterink-NibData" = {
AngleInDegrees = "96.65443";
};
}),
(341,-16,o),
(450,-17,o),
(516,-3,cs,{
"Letterink-NibData" = {
AngleInDegrees = "90";
};
})
);
}
);
width = 717;
}
);
metricLeft = E.swsh;
userData = {
position = 514;
width = 59;
};
},
{
glyphname = C;
kernLeft = O;
kernRight = C;
layers = (
{
anchors = (
{
name = bottom;
pos = (395,-5);
},
{
name = top;
pos = (394,689);
}
);
background = {
shapes = (
{
closed = 1;
nodes = (
(581,-25,o),
(727,126,o),
(727,326,cs),
(727,355,ls),
(727,548,o),
(575,702,o),
(385,702,cs,{
"Letterink-NibData" = {
AngleInDegrees = "270";
};
}),
(195,702,o),
(44,548,o),
(44,355,cs,{
"Letterink-NibData" = {
AngleInDegrees = "180";
};
}),
(44,326,ls,{
"Letterink-NibData" = {
AngleInDegrees = "180";
};
}),
(44,126,o),
(188,-19,o),
(389,-22,cs,{
"Letterink-NibData" = {
AngleInDegrees = "90.89517371732774";
};
})
);
},
{
closed = 1;
nodes = (
(238,54,o),
(126,170,o),
(126,326,cs),
(126,355,ls),
(126,504,o),
(240,626,o),
(384,626,cs,{
"Letterink-NibData" = {
AngleInDegrees = "90";
};
}),
(530,626,o),
(645,504,o),
(645,355,cs,{
"Letterink-NibData" = {
AngleInDegrees = "180";
};
}),
(645,326,ls,{
"Letterink-NibData" = {
AngleInDegrees = "180";
};
}),
(645,170,o),
(533,54,o),
(386,54,cs,{
"Letterink-NibData" = {
AngleInDegrees = "270";
};
})
);
}
);
};
layerId = "0CAF3BED-C4AC-4024-B3E1-4C69D1EF7EC0";
shapes = (
{
closed = 1;
nodes = (
(509,-19,o),
(611,33,o),
(665,121,c),
(602,159,l),
(561,95,o),
(483,55,o),
(390,55,cs),
(238,55,o),
(129,173,o),
(129,338,cs),
(129,511,o),
(237,627,o),
(398,627,cs),
(495,627,o),
(565,588,o),
(565,534,cs),
(565,511,o),
(555,496,o),
(539,496,cs),
(532,496,o),
(524,498,o),
(520,501,c),
(478,443,l),
(497,429,o),
(518,422,o),
(539,422,cs),
(595,422,o),
(639,472,o),
(639,536,cs),
(639,633,o),
(539,703,o),
(400,703,cs),
(194,703,o),
(49,553,o),
(49,337,cs),
(49,132,o),
(192,-19,o),
(392,-19,cs)
);
}
);
width = 712;
},
{
anchors = (
{
name = bottom;
pos = (407,-4);
},
{
name = top;
pos = (409,688);
}
);
background = {
shapes = (
{
closed = 1;
nodes = (
(598,-14,o),
(740,131,o),
(740,331,cs),
(740,350,ls),
(740,550,o),
(592,702,o),
(398,702,cs,{
"Letterink-NibData" = {
AngleInDegrees = "270";
};
}),
(204,702,o),
(58,551,o),
(58,350,cs,{
"Letterink-NibData" = {
AngleInDegrees = "180";
};
}),
(58,331,ls,{
"Letterink-NibData" = {
AngleInDegrees = "180";
};
}),
(58,133,o),
(205,-14,o),
(402,-14,cs,{
"Letterink-NibData" = {
AngleInDegrees = "90";
};
})
);
},
{
closed = 1;
nodes = (
(228,24,o),
(100,156,o),
(100,331,cs),
(100,350,ls),
(100,526,o),
(229,662,o),
(397,662,cs,{
"Letterink-NibData" = {
AngleInDegrees = "90";
};
}),
(566,662,o),
(698,526,o),
(698,350,cs,{
"Letterink-NibData" = {
AngleInDegrees = "180";
};
}),
(698,331,ls,{
"Letterink-NibData" = {
AngleInDegrees = "180";
};
}),
(698,156,o),
(569,24,o),
(399,24,cs,{
"Letterink-NibData" = {
AngleInDegrees = "270";
};
})
);
}
);
};
layerId = "49C16FD3-6177-408B-A733-AEB3898BB77C";
shapes = (
{
closed = 1;
nodes = (
(525,-10,o),
(630,47,o),
(676,130,c),
(646,148,l),
(604,76,o),
(511,26,o),
(405,26,cs),
(232,26,o),
(99,148,o),
(99,327,cs),
(99,532,o),
(233,663,o),
(409,663,cs),
(503,663,o),
(611,623,o),
(611,542,cs),
(611,518,o),
(597,483,o),
(565,483,cs),
(556,483,o),
(541,485,o),
(531,493,c),
(511,464,l),
(528,452,o),
(547,447,o),
(564,447,cs),
(610,447,o),
(647,485,o),
(647,542,cs),
(647,614,o),
(567,699,o),
(409,699,cs),
(214,699,o),
(61,555,o),
(61,327,cs),
(61,127,o),
(206,-10,o),
(405,-10,cs)
);
}
);
width = 734;
},
{
anchors = (
{
name = bottom;
pos = (384,-29);
},
{
name = top;
pos = (384,723);
}
);
associatedMasterId = "49C16FD3-6177-408B-A733-AEB3898BB77C";
layerId = "9A6A7639-79A9-4EC5-AE88-1E69E535A513";
name = "3 Jan 22, 15:02";
shapes = (
{
closed = 1;
nodes = (
(504,-22,o),
(607,20,o),
(676,118,c,{
"Letterink-NibData" = {
AngleInDegrees = 307.18471;
};
}),
(647,140,l,{
"Letterink-NibData" = {
AngleInDegrees = 215.75389;
};
}),
(593,65,o),
(500,18,o),
(401,18,cs,{
"Letterink-NibData" = {
AngleInDegrees = 270;
};
}),
(226,18,o),
(102,167,o),
(102,335,cs),
(102,508,o),
(235,665,o),
(405,665,cs,{
"Letterink-NibData" = {
AngleInDegrees = 90;
};
}),
(488,665,o),
(595,637,o),
(595,558,cs,{
"Letterink-NibData" = {
AngleInDegrees = 180;
};
}),
(595,531,o),
(582,510,o),
(559,510,cs,{
"Letterink-NibData" = {
AngleInDegrees = 270;
};
}),
(551,510,o),
(536,515,o),
(529,522,c,{
"Letterink-NibData" = {
AngleInDegrees = 217.99873;
};
}),
(504,490,l,{
"Letterink-NibData" = {
AngleInDegrees = 132.27369;
};
}),
(515,480,o),
(540,472,o),
(556,472,cs,{
"Letterink-NibData" = {
AngleInDegrees = 90;
};
}),
(603,472,o),
(635,510,o),
(635,562,cs),
(635,661,o),
(517,706,o),
(413,706,cs,{
"Letterink-NibData" = {
AngleInDegrees = 270;
};
}),
(211,706,o),
(60,535,o),
(60,335,cs,{
"Letterink-NibData" = {
AngleInDegrees = 180;
};
}),
(60,140,o),
(204,-22,o),
(402,-22,cs,{
"Letterink-NibData" = {
AngleInDegrees = 90;
};
})
);
}
);
width = 720;
},
{
anchors = (
{
name = bottom;
pos = (387,-9);
},
{
name = top;
pos = (387,703);
}
);
associatedMasterId = "0CAF3BED-C4AC-4024-B3E1-4C69D1EF7EC0";
layerId = "354B442F-650F-4F84-82F8-D7A6B1A052DE";
name = "3 Jan 22, 15:22";
shapes = (
{
closed = 1;
nodes = (
(533,-19,o),
(637,45,o),
(684,146,c,{
"Letterink-NibData" = {
AngleInDegrees = 296.92768;
};
}),
(621,178,l,{
"Letterink-NibData" = {
AngleInDegrees = 204.38637;
};
}),
(587,103,o),
(498,52,o),
(401,52,cs,{
"Letterink-NibData" = {
AngleInDegrees = 270;
};
}),
(250,52,o),
(135,178,o),
(135,340,cs),
(135,509,o),
(259,632,o),
(399,632,cs,{
"Letterink-NibData" = {
AngleInDegrees = 90;
};
}),
(458,632,o),
(562,610,o),
(562,547,cs,{
"Letterink-NibData" = {
AngleInDegrees = 180;
};
}),
(562,530,o),
(554,517,o),
(538,517,cs,{
"Letterink-NibData" = {
AngleInDegrees = 270;
};
}),
(526,517,o),
(513,525,o),
(506,534,c,{
"Letterink-NibData" = {
AngleInDegrees = 218.25442;
};
}),
(465,482,l,{
"Letterink-NibData" = {
AngleInDegrees = 143.53076;
};
}),
(482,459,o),
(508,445,o),
(538,445,cs,{
"Letterink-NibData" = {
AngleInDegrees = 90;
};
}),
(591,445,o),
(637,490,o),
(637,551,cs),
(637,642,o),
(532,706,o),
(404,706,cs,{
"Letterink-NibData" = {
AngleInDegrees = 270;
};
}),
(197,706,o),
(53,539,o),
(53,341,cs,{
"Letterink-NibData" = {
AngleInDegrees = 180;
};
}),
(53,147,o),
(190,-26,o),
(404,-22,cs,{
"Letterink-NibData" = {
AngleInDegrees = 88.66778;
};
})
);
}
);
width = 720;
},
{
anchors = (
{
name = bottom;
pos = (390,-29);
},
{
name = top;
pos = (390,723);
}
);
associatedMasterId = "49C16FD3-6177-408B-A733-AEB3898BB77C";
background = {
shapes = (
{
closed = 1;
nodes = (
(510,-22,o),
(613,20,o),
(682,118,c),
(653,140,l),
(599,65,o),
(506,18,o),
(407,18,cs),
(232,18,o),
(108,167,o),
(108,335,cs),
(108,508,o),
(241,665,o),
(411,665,cs),
(494,665,o),
(601,637,o),
(601,558,cs),
(601,531,o),
(588,510,o),
(565,510,cs),
(557,510,o),
(542,515,o),
(535,522,c),
(510,490,l),
(521,480,o),
(546,472,o),
(562,472,cs),
(609,472,o),
(641,510,o),
(641,562,cs),
(641,661,o),
(523,706,o),
(419,706,cs),
(217,706,o),
(66,535,o),
(66,335,cs),
(66,140,o),
(210,-22,o),
(408,-22,cs)
);
}
);
};
layerId = "4473E775-5B50-49F8-862E-9DFFC95B4874";
name = "5 Jan 22, 07:44";
shapes = (
{
attr = {
strokeHeight = 38;
strokeWidth = 42;
};
closed = 0;
nodes = (
(518,484,l,{
"Letterink-NibData" = {
AngleInDegrees = 116.56505;
};
}),
(528,479,o),
(538,477,o),
(549,477,cs,{
"Letterink-NibData" = {
AngleInDegrees = 91.50744;
};
}),
(587,476,o),
(613,516,o),
(613,556,cs),
(613,630,o),
(519,690,o),
(395,684,cs,{
"Letterink-NibData" = {
AngleInDegrees = 267.08916;
};
}),
(218,675,o),
(84,532,o),
(84,330,cs,{
"Letterink-NibData" = {
AngleInDegrees = 180;
};
}),
(84,136,o),
(219,0,o),
(409,0,cs,{
"Letterink-NibData" = {
AngleInDegrees = 90;
};
}),
(507,0,o),
(602,52,o),
(648,130,c,{
"Letterink-NibData" = {
AngleInDegrees = 30.52971;
};
})
);
}
);
width = 726;
},
{
anchors = (
{
name = bottom;
pos = (407,-10);
},
{
name = top;
pos = (390,699);
}
);
background = {
shapes = (
{
closed = 1;
nodes = (
(587,-25,o),
(733,126,o),
(733,326,cs),
(733,355,ls),
(733,548,o),
(581,702,o),
(391,702,cs,{
"Letterink-NibData" = {
AngleInDegrees = "270";
};
}),
(201,702,o),
(50,548,o),
(50,355,cs,{
"Letterink-NibData" = {
AngleInDegrees = "180";
};
}),
(50,326,ls,{
"Letterink-NibData" = {
AngleInDegrees = "180";
};
}),
(50,126,o),
(194,-19,o),
(395,-22,cs,{
"Letterink-NibData" = {
AngleInDegrees = "90.89517371732774";
};
})
);
},
{
closed = 1;
nodes = (
(244,54,o),
(132,170,o),
(132,326,cs),
(132,355,ls),
(132,504,o),
(246,626,o),
(390,626,cs,{
"Letterink-NibData" = {
AngleInDegrees = "90";
};
}),
(536,626,o),
(651,504,o),
(651,355,cs,{
"Letterink-NibData" = {
AngleInDegrees = "180";
};
}),
(651,326,ls,{
"Letterink-NibData" = {
AngleInDegrees = "180";
};
}),
(651,170,o),
(539,54,o),
(392,54,cs,{
"Letterink-NibData" = {
AngleInDegrees = "270";
};
})
);
}
);
};
layerId = m004;
shapes = (
{
closed = 1;
nodes = (
(528,-27,o),
(634,27,o),
(690,121,c),
(562,196,l),
(535,151,o),
(467,121,o),
(395,121,cs),
(276,121,o),
(197,207,o),
(197,337,cs),
(197,471,o),
(280,565,o),
(398,565,cs),
(478,565,o),
(534,532,o),
(533,492,cs),
(533,484,o),
(529,480,o),
(522,480,cs),
(518,480,o),
(514,483,o),
(512,485,c),
(430,380,l),
(448,355,o),
(487,338,o),
(532,338,cs),
(618,338,o),
(682,400,o),
(682,487,cs),
(682,614,o),
(554,713,o),
(390,713,cs),
(184,713,o),
(32,555,o),
(32,337,cs),
(32,130,o),
(188,-27,o),
(401,-27,cs)
);
}
);
width = 720;
},
{
anchors = (
{
name = bottom;
pos = (387,-9);
},
{
name = top;
pos = (387,703);
}
);
associatedMasterId = m004;
layerId = "1D3C4DC7-3234-4807-8E35-E7EE46E86FD4";
name = "3 Jan 22, 15:22";
shapes = (
{
closed = 1;
nodes = (
(533,-19,o),
(637,45,o),
(684,146,c,{
"Letterink-NibData" = {
AngleInDegrees = 296.92768;
};
}),
(621,178,l,{
"Letterink-NibData" = {
AngleInDegrees = 204.38637;
};
}),
(587,103,o),
(498,52,o),
(401,52,cs,{
"Letterink-NibData" = {
AngleInDegrees = 270;
};
}),
(250,52,o),
(135,178,o),
(135,340,cs),
(135,509,o),
(259,632,o),
(399,632,cs,{
"Letterink-NibData" = {
AngleInDegrees = 90;
};
}),
(458,632,o),
(562,610,o),
(562,547,cs,{
"Letterink-NibData" = {
AngleInDegrees = 180;
};
}),
(562,530,o),
(554,517,o),
(538,517,cs,{
"Letterink-NibData" = {
AngleInDegrees = 270;
};
}),
(526,517,o),
(513,525,o),
(506,534,c,{
"Letterink-NibData" = {
AngleInDegrees = 218.25442;
};
}),
(465,482,l,{
"Letterink-NibData" = {
AngleInDegrees = 143.53076;
};
}),
(482,459,o),
(508,445,o),
(538,445,cs,{
"Letterink-NibData" = {
AngleInDegrees = 90;
};
}),
(591,445,o),
(637,490,o),
(637,551,cs),
(637,642,o),
(532,706,o),
(404,706,cs,{
"Letterink-NibData" = {
AngleInDegrees = 270;
};
}),
(197,706,o),
(53,539,o),
(53,341,cs,{
"Letterink-NibData" = {
AngleInDegrees = 180;
};
}),
(53,147,o),
(190,-26,o),
(404,-22,cs,{
"Letterink-NibData" = {
AngleInDegrees = 88.66778;
};
})
);
}
);
width = 720;
},
{
anchors = (
{
name = bottom;
pos = (382,0);
},
{
name = top;
pos = (374,684);
}
);
associatedMasterId = m004;
background = {
shapes = (
{
closed = 1;
nodes = (
(566,-25,o),
(712,126,o),
(712,326,cs),
(712,355,ls),
(712,548,o),
(560,702,o),
(370,702,cs,{
"Letterink-NibData" = {
AngleInDegrees = "270";
};
}),
(180,702,o),
(29,548,o),
(29,355,cs,{
"Letterink-NibData" = {
AngleInDegrees = "180";
};
}),
(29,326,ls,{
"Letterink-NibData" = {
AngleInDegrees = "180";
};
}),
(29,126,o),
(173,-19,o),
(374,-22,cs,{
"Letterink-NibData" = {
AngleInDegrees = "90.89517371732774";
};
})
);
},
{
closed = 1;
nodes = (
(223,54,o),
(111,170,o),
(111,326,cs),
(111,355,ls),
(111,504,o),
(225,626,o),
(369,626,cs,{
"Letterink-NibData" = {
AngleInDegrees = "90";
};
}),
(515,626,o),
(630,504,o),
(630,355,cs,{
"Letterink-NibData" = {
AngleInDegrees = "180";
};
}),
(630,326,ls,{
"Letterink-NibData" = {
AngleInDegrees = "180";
};
}),
(630,170,o),
(518,54,o),
(371,54,cs,{
"Letterink-NibData" = {
AngleInDegrees = "270";
};
})
);
}
);
};
layerId = "C056148C-2549-4511-9EFE-DD576A128247";
name = "19 Jan 22, 08:49";
shapes = (
{
closed = 0;
nodes = (
(459,430,l,{
"Letterink-NibData" = {
AngleInDegrees = -45;
MainAxisWidth = 118;
MinorAxisWidth = -15;
ValidForParentMainAxisWidth = 30;
ValidForParentMinorAxisWidth = 15;
};
"Letterink-NibStyleId" = "8";
}),
(479,410,o),
(501,408,o),
(517,408,cs,{
"Letterink-NibData" = {
AngleInDegrees = -45;
MainAxisWidth = 118;
MinorAxisWidth = -15;
ValidForParentMainAxisWidth = 30;
ValidForParentMinorAxisWidth = 15;
};
"Letterink-NibStyleId" = "8";
}),
(559,408,o),
(592,452,o),
(592,500,cs,{
"Letterink-NibData" = {
AngleInDegrees = -45;
MainAxisWidth = 118;
MinorAxisWidth = -15;
ValidForParentMainAxisWidth = 30;
ValidForParentMinorAxisWidth = 15;
};
"Letterink-NibStyleId" = "8";
}),
(592,568,o),
(493,639,o),
(383,639,cs,{
"Letterink-NibData" = {
AngleInDegrees = -45;
MainAxisWidth = 118;
MinorAxisWidth = -15;
ValidForParentMainAxisWidth = 30;
ValidForParentMinorAxisWidth = 15;
};
"Letterink-NibStyleId" = "8";
}),
(222,639,o),
(98,519,o),
(98,331,cs,{
"Letterink-NibData" = {
AngleInDegrees = -45;
MainAxisWidth = 135;
MinorAxisWidth = -15;
ValidForParentMainAxisWidth = 30;
ValidForParentMinorAxisWidth = 15;
};
"Letterink-NibStyleId" = "8";
}),
(98,164,o),
(221,47,o),
(391,47,cs,{
"Letterink-NibData" = {
AngleInDegrees = -45;
MainAxisWidth = 118;
MinorAxisWidth = -15;
ValidForParentMainAxisWidth = 30;
ValidForParentMinorAxisWidth = 15;
};
"Letterink-NibStyleId" = "8";
}),
(480,47,o),
(564,90,o),
(605,159,c,{
"Letterink-NibData" = {
AngleInDegrees = -45;
MainAxisWidth = 118;
MinorAxisWidth = -15;
ValidForParentMainAxisWidth = 30;
ValidForParentMinorAxisWidth = 15;
};
"Letterink-NibStyleId" = "8";
})
);
}
);
userData = {
"Letterink-ComputationAllowed" = YES;
};
width = 671;
}
);
metricLeft = O;
metricRight = "=O*.95";
unicode = 67;
userData = {
position = 570;
width = 54;
};
},
{
glyphname = C.ss01;
kernLeft = O;
kernRight = C;
layers = (
{
anchors = (
{
name = bottom;
pos = (397,-6);
},
{
name = top;
pos = (393,689);
}
);
background = {
shapes = (
{
closed = 1;
nodes = (
(584,-25,o),
(730,126,o),
(730,326,cs),
(730,355,ls),
(730,548,o),
(578,702,o),
(388,702,cs,{
"Letterink-NibData" = {
AngleInDegrees = "270";
};
}),
(198,702,o),
(47,548,o),
(47,355,cs,{
"Letterink-NibData" = {
AngleInDegrees = "180";
};
}),
(47,326,ls,{
"Letterink-NibData" = {
AngleInDegrees = "180";
};
}),
(47,126,o),
(191,-19,o),
(392,-22,cs,{
"Letterink-NibData" = {
AngleInDegrees = "90.89517371732774";
};
})
);
},
{
closed = 1;
nodes = (
(241,54,o),
(129,170,o),
(129,326,cs),
(129,355,ls),
(129,504,o),
(243,626,o),
(387,626,cs,{
"Letterink-NibData" = {
AngleInDegrees = "90";
};
}),
(533,626,o),
(648,504,o),
(648,355,cs,{
"Letterink-NibData" = {
AngleInDegrees = "180";
};
}),
(648,326,ls,{
"Letterink-NibData" = {
AngleInDegrees = "180";
};
}),
(648,170,o),
(536,54,o),
(389,54,cs,{
"Letterink-NibData" = {
AngleInDegrees = "270";
};
})
);
}
);
};
layerId = "0CAF3BED-C4AC-4024-B3E1-4C69D1EF7EC0";
shapes = (
{
closed = 1;
nodes = (
(513,-23,o),
(617,27,o),
(672,118,c),
(606,158,l),
(567,93,o),
(492,53,o),
(399,53,cs),
(244,53,o),
(131,165,o),
(131,335,cs),
(131,505,o),
(243,629,o),
(402,629,cs),
(512,629,o),
(573,570,o),
(595,512,c),
(662,531,l),
(635,626,o),
(534,705,o),
(396,705,cs),
(204,705,o),
(49,555,o),
(49,336,cs),
(49,115,o),
(202,-23,o),
(398,-23,cs)
);
}
);
width = 716;
},
{
anchors = (
{
name = bottom;
pos = (390,-2);
},
{
name = top;
pos = (391,685);
}
);
background = {
anchors = (
{
name = bottom;
pos = (380,-27);
},
{
name = top;
pos = (380,721);
}
);
shapes = (
{
attr = {
strokeHeight = 38;
strokeWidth = 42;
};
closed = 0;
nodes = (
(616,537,l,{
"Letterink-NibData" = {
AngleInDegrees = 356.78451;
};
}),
(611,626,o),
(513,691,o),
(389,685,cs,{
"Letterink-NibData" = {
AngleInDegrees = 267.08916;
};
}),
(212,676,o),
(77,532,o),
(77,330,cs,{
"Letterink-NibData" = {
AngleInDegrees = 180;
};
}),
(77,136,o),
(212,0,o),
(402,0,cs,{
"Letterink-NibData" = {
AngleInDegrees = 90;
};
}),
(500,0,o),
(595,52,o),
(641,130,c,{
"Letterink-NibData" = {
AngleInDegrees = 30.52971;
};
})
);
}
);
};
layerId = "49C16FD3-6177-408B-A733-AEB3898BB77C";
shapes = (
{
closed = 1;
nodes = (
(513,-12,o),
(613,36,o),
(666,124,c),
(635,142,l),
(590,66,o),
(507,24,o),
(401,24,cs),
(234,24,o),
(99,146,o),
(99,336,cs),
(99,529,o),
(229,661,o),
(395,661,cs),
(526,661,o),
(605,595,o),
(627,522,c),
(661,531,l),
(634,627,o),
(535,697,o),
(397,697,cs),
(210,697,o),
(61,549,o),
(61,336,cs),
(61,123,o),
(212,-12,o),
(399,-12,cs)
);
}
);
width = 721;
},
{
anchors = (
{
name = bottom;
pos = (381,-27);
},
{
name = top;
pos = (381,721);
}
);
associatedMasterId = "49C16FD3-6177-408B-A733-AEB3898BB77C";
layerId = "5C147D22-45CB-49AC-8F59-80A6CB628E42";
name = "3 Jan 22, 15:09";
shapes = (
{
closed = 1;
nodes = (
(508,-20,o),
(606,31,o),
(666,119,c,{
"Letterink-NibData" = {
AngleInDegrees = 304.07719;
};
}),
(632,142,l,{
"Letterink-NibData" = {
AngleInDegrees = 214.03213;
};
}),
(580,65,o),
(492,20,o),
(396,20,cs,{
"Letterink-NibData" = {
AngleInDegrees = 270;
};
}),
(225,20,o),
(103,159,o),
(103,331,cs),
(103,497,o),
(224,669,o),
(406,669,cs,{
"Letterink-NibData" = {
AngleInDegrees = 90;
};
}),
(505,669,o),
(586,618,o),
(592,552,c,{
"Letterink-NibData" = {
AngleInDegrees = 90;
};
}),
(633,552,l,{
"Letterink-NibData" = {
AngleInDegrees = 355.69553;
};
}),
(626,645,o),
(535,709,o),
(411,709,cs,{
"Letterink-NibData" = {
AngleInDegrees = 270;
};
}),
(207,709,o),
(61,535,o),
(61,334,cs,{
"Letterink-NibData" = {
AngleInDegrees = 180;
};
}),
(61,132,o),
(201,-20,o),
(397,-20,cs,{
"Letterink-NibData" = {
AngleInDegrees = 90;
};
})
);
}
);
width = 706;
},
{
anchors = (
{
name = bottom;
pos = (376,-7);
},
{
name = top;
pos = (376,701);
}
);
associatedMasterId = "0CAF3BED-C4AC-4024-B3E1-4C69D1EF7EC0";
layerId = "F3AD09C8-78E5-4679-83B5-5B942013D0D4";
name = "3 Jan 22, 15:21";
shapes = (
{
closed = 1;
nodes = (
(512,-17,o),
(616,40,o),
(678,139,c,{
"Letterink-NibData" = {
AngleInDegrees = 304.31509;
};
}),
(615,182,l,{
"Letterink-NibData" = {
AngleInDegrees = 211.07166;
};
}),
(568,104,o),
(488,59,o),
(393,59,cs,{
"Letterink-NibData" = {
AngleInDegrees = 270;
};
}),
(240,59,o),
(133,176,o),
(133,324,cs),
(133,494,o),
(248,631,o),
(391,631,cs,{
"Letterink-NibData" = {
AngleInDegrees = 90;
};
}),
(491,631,o),
(569,582,o),
(566,520,c,{
"Letterink-NibData" = {
AngleInDegrees = 90;
};
}),
(645,520,l,{
"Letterink-NibData" = {
AngleInDegrees = 1.06091;
};
}),
(647,628,o),
(542,707,o),
(396,707,cs,{
"Letterink-NibData" = {
AngleInDegrees = 270;
};
}),
(207,707,o),
(53,538,o),
(53,327,cs,{
"Letterink-NibData" = {
AngleInDegrees = 180;
};
}),
(53,132,o),
(197,-17,o),
(392,-17,cs,{
"Letterink-NibData" = {
AngleInDegrees = 90;
};
})
);
}
);
width = 716;
},
{
anchors = (
{
name = bottom;
pos = (387,-27);
},
{
name = top;
pos = (387,721);
}
);
associatedMasterId = "49C16FD3-6177-408B-A733-AEB3898BB77C";
layerId = "60C93F8E-5478-4CF7-8F44-AF3ED9540F66";
name = "5 Jan 22, 07:47";
shapes = (
{
attr = {
strokeHeight = 38;
strokeWidth = 42;
};
closed = 0;
nodes = (
(623,537,l,{
"Letterink-NibData" = {
AngleInDegrees = 356.78451;
};
}),
(618,626,o),
(520,691,o),
(396,685,cs,{
"Letterink-NibData" = {
AngleInDegrees = 267.08916;
};
}),
(219,676,o),
(84,532,o),
(84,330,cs,{
"Letterink-NibData" = {
AngleInDegrees = 180;
};
}),
(84,136,o),
(219,0,o),
(409,0,cs,{
"Letterink-NibData" = {
AngleInDegrees = 90;
};
}),
(507,0,o),
(602,52,o),
(648,130,c,{
"Letterink-NibData" = {
AngleInDegrees = 30.52971;
};
})
);
}
);
width = 712;
},
{
anchors = (
{
name = bottom;
pos = (376,-7);
},
{
name = top;
pos = (376,701);
}
);
associatedMasterId = "0CAF3BED-C4AC-4024-B3E1-4C69D1EF7EC0";
layerId = "E3615987-2AFD-4696-A41C-F6163A2589A7";
name = "5 Jan 22, 07:50";
shapes = (
{
attr = {
strokeHeight = 74;
strokeWidth = 80;
};
closed = 0;
nodes = (
(614,525,ls,{
"Letterink-NibData" = {
AngleInDegrees = 356.63354;
};
}),
(609,610,o),
(516,671,o),
(399,665,cs,{
"Letterink-NibData" = {
AngleInDegrees = 267.02198;
};
}),
(226,656,o),
(94,521,o),
(94,331,cs,{
"Letterink-NibData" = {
AngleInDegrees = 180;
};
}),
(94,148,o),
(224,20,o),
(407,20,cs,{
"Letterink-NibData" = {
AngleInDegrees = 90;
};
}),
(502,20,o),
(593,68,o),
(638,142,c,{
"Letterink-NibData" = {
AngleInDegrees = 31.30412;
};
})
);
}
);
width = 716;
},
{
anchors = (
{
name = bottom;
pos = (396,-12);
},
{
name = top;
pos = (385,696);
}
);
background = {
shapes = (
{
closed = 1;
nodes = (
(593,-25,o),
(739,126,o),
(739,326,cs),
(739,355,ls),
(739,548,o),
(587,702,o),
(397,702,cs,{
"Letterink-NibData" = {
AngleInDegrees = "270";
};
}),
(207,702,o),
(56,548,o),
(56,355,cs,{
"Letterink-NibData" = {
AngleInDegrees = "180";
};
}),
(56,326,ls,{
"Letterink-NibData" = {
AngleInDegrees = "180";
};
}),
(56,126,o),
(200,-19,o),
(401,-22,cs,{
"Letterink-NibData" = {
AngleInDegrees = "90.89517371732774";
};
})
);
},
{
closed = 1;
nodes = (
(250,54,o),
(138,170,o),
(138,326,cs),
(138,355,ls),
(138,504,o),
(252,626,o),
(396,626,cs,{
"Letterink-NibData" = {
AngleInDegrees = "90";
};
}),
(542,626,o),
(657,504,o),
(657,355,cs,{
"Letterink-NibData" = {
AngleInDegrees = "180";
};
}),
(657,326,ls,{
"Letterink-NibData" = {
AngleInDegrees = "180";
};
}),
(657,170,o),
(545,54,o),
(398,54,cs,{
"Letterink-NibData" = {
AngleInDegrees = "270";
};
})
);
}
);
};
layerId = m004;
shapes = (
{
closed = 1;
nodes = (
(514,-28,o),
(623,27,o),
(674,120,c),
(549,196,l),
(519,149,o),
(461,120,o),
(395,120,cs),
(282,120,o),
(197,211,o),
(197,333,cs),
(197,466,o),
(278,565,o),
(385,565,cs),
(459,565,o),
(516,530,o),
(530,482,c),
(670,522,l),
(642,634,o),
(528,713,o),
(385,713,cs),
(184,713,o),
(32,552,o),
(32,341,cs),
(32,130,o),
(186,-28,o),
(393,-28,cs)
);
}
);
width = 703;
},
{
anchors = (
{
name = bottom;
pos = (376,-7);
},
{
name = top;
pos = (376,701);
}
);
associatedMasterId = m004;
layerId = "61EB21C3-3EB3-448C-BA61-69CC21CFBA6E";
name = "3 Jan 22, 15:21";
shapes = (
{
closed = 1;
nodes = (
(512,-17,o),
(616,40,o),
(678,139,c,{
"Letterink-NibData" = {
AngleInDegrees = 304.31509;
};
}),
(615,182,l,{
"Letterink-NibData" = {
AngleInDegrees = 211.07166;
};
}),
(568,104,o),
(488,59,o),
(393,59,cs,{
"Letterink-NibData" = {
AngleInDegrees = 270;
};
}),
(240,59,o),
(133,176,o),
(133,324,cs),
(133,494,o),
(248,631,o),
(391,631,cs,{
"Letterink-NibData" = {
AngleInDegrees = 90;
};
}),
(491,631,o),
(569,582,o),
(566,520,c,{
"Letterink-NibData" = {
AngleInDegrees = 90;
};
}),
(645,520,l,{
"Letterink-NibData" = {
AngleInDegrees = 1.06091;
};
}),
(647,628,o),
(542,707,o),
(396,707,cs,{
"Letterink-NibData" = {
AngleInDegrees = 270;
};
}),
(207,707,o),
(53,538,o),
(53,327,cs,{
"Letterink-NibData" = {
AngleInDegrees = 180;
};
}),
(53,132,o),
(197,-17,o),
(392,-17,cs,{
"Letterink-NibData" = {
AngleInDegrees = 90;
};
})
);
}
);
width = 716;
},
{
anchors = (
{
name = bottom;
pos = (376,-7);
},
{
name = top;
pos = (376,701);
}
);
associatedMasterId = m004;
layerId = "2E6EA62A-4F0C-4C83-906A-4BFA96122663";
name = "5 Jan 22, 07:50";
shapes = (
{
attr = {
strokeHeight = 74;
strokeWidth = 80;
};
closed = 0;
nodes = (
(614,525,ls,{
"Letterink-NibData" = {
AngleInDegrees = 356.63354;
};
}),
(609,610,o),
(516,671,o),
(399,665,cs,{
"Letterink-NibData" = {
AngleInDegrees = 267.02198;
};
}),
(226,656,o),
(94,521,o),
(94,331,cs,{
"Letterink-NibData" = {
AngleInDegrees = 180;
};
}),
(94,148,o),
(224,20,o),
(407,20,cs,{
"Letterink-NibData" = {
AngleInDegrees = 90;
};
}),
(502,20,o),
(593,68,o),
(638,142,c,{
"Letterink-NibData" = {
AngleInDegrees = 31.30412;
};
})
);
}
);
width = 716;
}
);
metricLeft = O;
metricRight = "=O*.9";
userData = {
position = 570;
width = 54;
};
},
{
glyphname = C.swsh;
kernLeft = O;
kernRight = C;
layers = (
{
anchors = (
{
name = bottom;
pos = (402,-8);
},
{
name = top;
pos = (391,691);
}
);
background = {
shapes = (
{
closed = 1;
nodes = (
(581,-25,o),
(727,126,o),
(727,326,cs),
(727,355,ls),
(727,548,o),
(575,702,o),
(385,702,cs,{
"Letterink-NibData" = {
AngleInDegrees = "270";
};
}),
(195,702,o),
(44,548,o),
(44,355,cs,{
"Letterink-NibData" = {
AngleInDegrees = "180";
};
}),
(44,326,ls,{
"Letterink-NibData" = {
AngleInDegrees = "180";
};
}),
(44,126,o),
(188,-19,o),
(389,-22,cs,{
"Letterink-NibData" = {
AngleInDegrees = "90.89517371732774";
};
})
);
},
{
closed = 1;
nodes = (
(238,54,o),
(126,170,o),
(126,326,cs),
(126,355,ls),
(126,504,o),
(240,626,o),
(384,626,cs,{
"Letterink-NibData" = {
AngleInDegrees = "90";
};
}),
(530,626,o),
(645,504,o),
(645,355,cs,{
"Letterink-NibData" = {
AngleInDegrees = "180";
};
}),
(645,326,ls,{
"Letterink-NibData" = {
AngleInDegrees = "180";
};
}),
(645,170,o),
(533,54,o),
(386,54,cs,{
"Letterink-NibData" = {
AngleInDegrees = "270";
};
})
);
}
);
};
layerId = "0CAF3BED-C4AC-4024-B3E1-4C69D1EF7EC0";
shapes = (
{
closed = 1;
nodes = (
(518,-22,o),
(620,31,o),
(673,120,c),
(607,158,l),
(568,91,o),
(494,54,o),
(403,54,cs),
(241,54,o),
(129,169,o),
(129,335,cs),
(129,503,o),
(243,624,o),
(403,624,cs),
(493,624,o),
(567,577,o),
(567,520,cs),
(567,498,o),
(555,483,o),
(537,483,cs),
(517,483,o),
(498,498,o),
(491,518,c),
(419,496,l),
(434,443,o),
(482,407,o),
(536,407,cs),
(601,407,o),
(647,455,o),
(647,524,cs),
(647,626,o),
(545,700,o),
(403,700,cs),
(198,700,o),
(49,546,o),
(49,335,cs),
(49,128,o),
(196,-22,o),
(400,-22,cs)
);
}
);
width = 721;
},
{
anchors = (
{
name = bottom;
pos = (407,-2);
},
{
name = top;
pos = (408,686);
}
);
background = {
shapes = (
{
closed = 1;
nodes = (
(600,-14,o),
(742,131,o),
(742,331,cs),
(742,350,ls),
(742,550,o),
(594,702,o),
(400,702,cs,{
"Letterink-NibData" = {
AngleInDegrees = "270";
};
}),
(206,702,o),
(60,551,o),
(60,350,cs,{
"Letterink-NibData" = {
AngleInDegrees = "180";
};
}),
(60,331,ls,{
"Letterink-NibData" = {
AngleInDegrees = "180";
};
}),
(60,133,o),
(207,-14,o),
(404,-14,cs,{
"Letterink-NibData" = {
AngleInDegrees = "90";
};
})
);
},
{
closed = 1;
nodes = (
(230,24,o),
(102,156,o),
(102,331,cs),
(102,350,ls),
(102,526,o),
(231,662,o),
(399,662,cs,{
"Letterink-NibData" = {
AngleInDegrees = "90";
};
}),
(568,662,o),
(700,526,o),
(700,350,cs,{
"Letterink-NibData" = {
AngleInDegrees = "180";
};
}),
(700,331,ls,{
"Letterink-NibData" = {
AngleInDegrees = "180";
};
}),
(700,156,o),
(571,24,o),
(401,24,cs,{
"Letterink-NibData" = {
AngleInDegrees = "270";
};
})
);
}
);
};
layerId = "49C16FD3-6177-408B-A733-AEB3898BB77C";
shapes = (
{
closed = 1;
nodes = (
(526,-11,o),
(625,40,o),
(676,126,c),
(646,143,l),
(601,67,o),
(515,25,o),
(410,25,cs),
(232,25,o),
(99,153,o),
(99,341,cs),
(99,523,o),
(230,656,o),
(408,656,cs),
(520,656,o),
(611,600,o),
(611,530,cs),
(611,491,o),
(587,464,o),
(553,464,cs),
(517,464,o),
(492,484,o),
(483,518,c),
(449,509,l),
(462,458,o),
(500,428,o),
(553,428,cs),
(606,428,o),
(647,472,o),
(647,530,cs),
(647,619,o),
(540,692,o),
(408,692,cs),
(208,692,o),
(61,543,o),
(61,341,cs),
(61,137,o),
(207,-11,o),
(410,-11,cs)
);
}
);
width = 736;
},
{
anchors = (
{
name = bottom;
pos = (371,0);
},
{
name = top;
pos = (383,684);
}
);
associatedMasterId = "49C16FD3-6177-408B-A733-AEB3898BB77C";
layerId = "3D02E95B-60B1-4244-8F26-D84725EF13C9";
name = "3 Jan 22, 15:07";
shapes = (
{
closed = 1;
nodes = (
(507,-21,o),
(630,33,o),
(680,140,c,{
"Letterink-NibData" = {
AngleInDegrees = 293.55226;
};
}),
(641,157,l,{
"Letterink-NibData" = {
AngleInDegrees = 204.62357;
};
}),
(608,85,o),
(527,18,o),
(390,19,cs,{
"Letterink-NibData" = {
AngleInDegrees = 270.40348;
};
}),
(248,20,o),
(102,149,o),
(102,343,cs),
(102,508,o),
(234,657,o),
(394,657,cs,{
"Letterink-NibData" = {
AngleInDegrees = 90;
};
}),
(475,657,o),
(572,621,o),
(572,548,cs,{
"Letterink-NibData" = {
AngleInDegrees = 180;
};
}),
(572,521,o),
(556,500,o),
(532,500,cs,{
"Letterink-NibData" = {
AngleInDegrees = 270;
};
}),
(519,500,o),
(502,510,o),
(495,523,c,{
"Letterink-NibData" = {
AngleInDegrees = 238.57043;
};
}),
(459,501,l,{
"Letterink-NibData" = {
AngleInDegrees = 149.03624;
};
}),
(477,471,o),
(504,458,o),
(531,458,cs,{
"Letterink-NibData" = {
AngleInDegrees = 90;
};
}),
(573,458,o),
(614,492,o),
(614,546,cs),
(614,639,o),
(506,697,o),
(395,697,cs,{
"Letterink-NibData" = {
AngleInDegrees = 270;
};
}),
(211,697,o),
(60,536,o),
(60,344,cs,{
"Letterink-NibData" = {
AngleInDegrees = 180;
};
}),
(60,159,o),
(191,-21,o),
(391,-21,cs,{
"Letterink-NibData" = {
AngleInDegrees = 90;
};
})
);
}
);
width = 718;
},
{
anchors = (
{
name = bottom;
pos = (378,-9);
},
{
name = top;
pos = (378,703);
}
);
associatedMasterId = "0CAF3BED-C4AC-4024-B3E1-4C69D1EF7EC0";
layerId = "430F94E4-6E0B-477D-BEA9-4D1159DC2E2A";
name = "3 Jan 22, 15:17";
shapes = (
{
closed = 1;
nodes = (
(505,-16,o),
(621,32,o),
(687,139,c,{
"Letterink-NibData" = {
AngleInDegrees = 303.88696;
};
}),
(620,184,l,{
"Letterink-NibData" = {
AngleInDegrees = 210.52971;
};
}),
(574,106,o),
(489,60,o),
(395,60,cs,{
"Letterink-NibData" = {
AngleInDegrees = 270;
};
}),
(243,60,o),
(133,184,o),
(133,337,cs),
(133,493,o),
(251,630,o),
(401,630,cs,{
"Letterink-NibData" = {
AngleInDegrees = 90;
};
}),
(464,630,o),
(558,604,o),
(558,552,cs,{
"Letterink-NibData" = {
AngleInDegrees = 180;
};
}),
(558,539,o),
(548,528,o),
(537,528,cs,{
"Letterink-NibData" = {
AngleInDegrees = 270;
};
}),
(530,528,o),
(520,532,o),
(515,539,c,{
"Letterink-NibData" = {
AngleInDegrees = 218.19868;
};
}),
(467,478,l,{
"Letterink-NibData" = {
AngleInDegrees = 135;
};
}),
(485,460,o),
(513,447,o),
(543,447,cs,{
"Letterink-NibData" = {
AngleInDegrees = 90;
};
}),
(594,447,o),
(638,494,o),
(638,551,cs),
(638,661,o),
(511,706,o),
(400,706,cs,{
"Letterink-NibData" = {
AngleInDegrees = 270;
};
}),
(207,706,o),
(53,536,o),
(53,337,cs,{
"Letterink-NibData" = {
AngleInDegrees = 180;
};
}),
(53,141,o),
(200,-16,o),
(394,-16,cs,{
"Letterink-NibData" = {
AngleInDegrees = 90;
};
})
);
}
);
width = 720;
},
{
anchors = (
{
name = bottom;
pos = (377,0);
},
{
name = top;
pos = (389,684);
}
);
associatedMasterId = "49C16FD3-6177-408B-A733-AEB3898BB77C";
layerId = "BE458C1D-0A4B-40C4-BCF4-9649CDEB98A4";
name = "5 Jan 22, 08:01";
shapes = (
{
attr = {
strokeHeight = 38;
strokeWidth = 42;
};
closed = 0;
nodes = (
(484,527,l,{
"Letterink-NibData" = {
AngleInDegrees = 168.31063;
};
}),
(490,498,o),
(515,478,o),
(549,477,cs,{
"Letterink-NibData" = {
AngleInDegrees = 91.50744;
};
}),
(587,476,o),
(613,516,o),
(613,556,cs),
(613,630,o),
(520,690,o),
(396,684,cs,{
"Letterink-NibData" = {
AngleInDegrees = 267.08916;
};
}),
(219,675,o),
(84,532,o),
(84,330,cs,{
"Letterink-NibData" = {
AngleInDegrees = 180;
};
}),
(84,136,o),
(219,0,o),
(409,0,cs,{
"Letterink-NibData" = {
AngleInDegrees = 90;
};
}),
(507,0,o),
(602,52,o),
(648,130,c,{
"Letterink-NibData" = {
AngleInDegrees = 30.52971;
};
})
);
}
);
width = 724;
},
{
anchors = (
{
name = bottom;
pos = (377,31);
},
{
name = top;
pos = (377,662);
}
);
associatedMasterId = "0CAF3BED-C4AC-4024-B3E1-4C69D1EF7EC0";
layerId = "26DD77D8-93B1-4CFB-A5C5-84AD5242F402";
name = "5 Jan 22, 08:04";
shapes = (
{
attr = {
strokeHeight = 74;
strokeWidth = 80;
};
closed = 0;
nodes = (
(482,519,l,{
"Letterink-NibData" = {
AngleInDegrees = 169.50852;
};
}),
(487,492,o),
(511,472,o),
(540,471,cs,{
"Letterink-NibData" = {
AngleInDegrees = 91.33222;
};
}),
(583,470,o),
(608,508,o),
(608,546,cs),
(608,617,o),
(519,674,o),
(398,669,cs,{
"Letterink-NibData" = {
AngleInDegrees = 267.03906;
};
}),
(224,660,o),
(90,523,o),
(90,334,cs,{
"Letterink-NibData" = {
AngleInDegrees = 180;
};
}),
(90,145,o),
(222,15,o),
(396,15,cs,{
"Letterink-NibData" = {
AngleInDegrees = 90;
};
}),
(501,15,o),
(596,63,o),
(642,140,c,{
"Letterink-NibData" = {
AngleInDegrees = 30.8542;
};
})
);
}
);
width = 720;
},
{
anchors = (
{
name = bottom;
pos = (393,-12);
},
{
name = top;
pos = (388,696);
}
);
background = {
shapes = (
{
closed = 1;
nodes = (
(589,-25,o),
(735,126,o),
(735,326,cs),
(735,355,ls),
(735,548,o),
(583,702,o),
(393,702,cs,{
"Letterink-NibData" = {
AngleInDegrees = "270";
};
}),
(203,702,o),
(52,548,o),
(52,355,cs,{
"Letterink-NibData" = {
AngleInDegrees = "180";
};
}),
(52,326,ls,{
"Letterink-NibData" = {
AngleInDegrees = "180";
};
}),
(52,126,o),
(196,-19,o),
(397,-22,cs,{
"Letterink-NibData" = {
AngleInDegrees = "90.89517371732774";
};
})
);
},
{
closed = 1;
nodes = (
(246,54,o),
(134,170,o),
(134,326,cs),
(134,355,ls),
(134,504,o),
(248,626,o),
(392,626,cs,{
"Letterink-NibData" = {
AngleInDegrees = "90";
};
}),
(538,626,o),
(653,504,o),
(653,355,cs,{
"Letterink-NibData" = {
AngleInDegrees = "180";
};
}),
(653,326,ls,{
"Letterink-NibData" = {
AngleInDegrees = "180";
};
}),
(653,170,o),
(541,54,o),
(394,54,cs,{
"Letterink-NibData" = {
AngleInDegrees = "270";
};
})
);
}
);
};
layerId = m004;
shapes = (
{
closed = 1;
nodes = (
(515,-28,o),
(624,29,o),
(674,121,c),
(549,196,l),
(517,147,o),
(465,120,o),
(397,120,cs),
(276,120,o),
(197,204,o),
(197,332,cs),
(197,469,o),
(280,566,o),
(397,566,cs),
(442,566,o),
(483,552,o),
(499,531,cs),
(508,519,o),
(508,506,o),
(499,503,cs),
(491,500,o),
(484,505,o),
(482,514,c),
(352,471,l),
(367,405,o),
(430,359,o),
(506,359,cs),
(592,359,o),
(655,422,o),
(655,510,cs),
(655,627,o),
(542,714,o),
(389,714,cs),
(185,714,o),
(32,554,o),
(32,340,cs),
(32,130,o),
(187,-28,o),
(393,-28,cs)
);
}
);
width = 705;
},
{
anchors = (
{
name = bottom;
pos = (378,-9);
},
{
name = top;
pos = (378,703);
}
);
associatedMasterId = m004;
layerId = "E1B422B0-C5DA-4EE8-BF30-75EC1E1BD4CA";
name = "3 Jan 22, 15:17";
shapes = (
{
closed = 1;
nodes = (
(505,-16,o),
(621,32,o),
(687,139,c,{
"Letterink-NibData" = {
AngleInDegrees = 303.88696;
};
}),
(620,184,l,{
"Letterink-NibData" = {
AngleInDegrees = 210.52971;
};
}),
(574,106,o),
(489,60,o),
(395,60,cs,{
"Letterink-NibData" = {
AngleInDegrees = 270;
};
}),
(243,60,o),
(133,184,o),
(133,337,cs),
(133,493,o),
(251,630,o),
(401,630,cs,{
"Letterink-NibData" = {
AngleInDegrees = 90;
};
}),
(464,630,o),
(558,604,o),
(558,552,cs,{
"Letterink-NibData" = {
AngleInDegrees = 180;
};
}),
(558,539,o),
(548,528,o),
(537,528,cs,{
"Letterink-NibData" = {
AngleInDegrees = 270;
};
}),
(530,528,o),
(520,532,o),
(515,539,c,{
"Letterink-NibData" = {
AngleInDegrees = 218.19868;
};
}),
(467,478,l,{
"Letterink-NibData" = {
AngleInDegrees = 135;
};
}),
(485,460,o),
(513,447,o),
(543,447,cs,{
"Letterink-NibData" = {
AngleInDegrees = 90;
};
}),
(594,447,o),
(638,494,o),
(638,551,cs),
(638,661,o),
(511,706,o),
(400,706,cs,{
"Letterink-NibData" = {
AngleInDegrees = 270;
};
}),
(207,706,o),
(53,536,o),
(53,337,cs,{
"Letterink-NibData" = {
AngleInDegrees = 180;
};
}),
(53,141,o),
(200,-16,o),
(394,-16,cs,{
"Letterink-NibData" = {
AngleInDegrees = 90;
};
})
);
}
);
width = 720;
},
{
anchors = (
{
name = bottom;
pos = (377,31);
},
{
name = top;
pos = (377,662);
}
);
associatedMasterId = m004;
layerId = "4CF65D10-8B5F-49BE-AA91-F2DD426CB74F";
name = "5 Jan 22, 08:04";
shapes = (
{
attr = {
strokeHeight = 74;
strokeWidth = 80;
};
closed = 0;
nodes = (
(482,519,l,{
"Letterink-NibData" = {
AngleInDegrees = 169.50852;
};
}),
(487,492,o),
(511,472,o),
(540,471,cs,{
"Letterink-NibData" = {
AngleInDegrees = 91.33222;
};
}),
(583,470,o),
(608,508,o),
(608,546,cs),
(608,617,o),
(519,674,o),
(398,669,cs,{
"Letterink-NibData" = {
AngleInDegrees = 267.03906;
};
}),
(224,660,o),
(90,523,o),
(90,334,cs,{
"Letterink-NibData" = {
AngleInDegrees = 180;
};
}),
(90,145,o),
(222,15,o),
(396,15,cs,{
"Letterink-NibData" = {
AngleInDegrees = 90;
};
}),
(501,15,o),
(596,63,o),
(642,140,c,{
"Letterink-NibData" = {
AngleInDegrees = 30.8542;
};
})
);
}
);
width = 720;
}
);
metricLeft = O;
metricRight = "=O*.98";
userData = {
position = 570;
width = 54;
};
},
{
glyphname = D;
kernLeft = E;
kernRight = O;
layers = (
{
anchors = (
{
name = bottom;
pos = (359,-10);
},
{
name = center;
pos = (214,367);
},
{
name = top;
pos = (374,684);
}
);
hints = (
{
name = _corner.caps_left;
origin = (0,6);
type = Corner;
}
);
layerId = "0CAF3BED-C4AC-4024-B3E1-4C69D1EF7EC0";
shapes = (
{
closed = 1;
nodes = (
(563,-10,o),
(707,136,o),
(707,342,cs),
(707,535,o),
(580,684,o),
(378,684,c,{
"Letterink-NibData" = {
AngleInDegrees = 270.21459;
};
}),
(132,684,l,{
"Letterink-NibData" = {
AngleInDegrees = 180;
};
}),
(132,609,l,{
"Letterink-NibData" = {
AngleInDegrees = 90;
};
}),
(378,609,ls,{
"Letterink-NibData" = {
AngleInDegrees = 92.97373;
};
}),
(537,609,o),
(625,501,o),
(625,339,cs,{
"Letterink-NibData" = {
AngleInDegrees = 180;
};
}),
(625,163,o),
(519,65,o),
(327,65,cs,{
"Letterink-NibData" = {
AngleInDegrees = 270;
};
}),
(296,65,o),
(256,67,o),
(214,70,c),
(214,651,l,{
"Letterink-NibData" = {
AngleInDegrees = 270;
};
}),
(132,651,l,{
"Letterink-NibData" = {
AngleInDegrees = 180;
};
}),
(132,1,l,{
"Letterink-NibData" = {
AngleInDegrees = 95.10217;
};
}),
(188,-4,ls,{
"Letterink-NibData" = {
AngleInDegrees = 95.12819;
};
}),
(254,-10,o),
(277,-10,o),
(359,-10,cs,{
"Letterink-NibData" = {
AngleInDegrees = 90;
};
})
);
}
);
width = 756;
},
{
anchors = (
{
name = bottom;
pos = (327,-9);
},
{
name = center;
pos = (173,358);
},
{
name = top;
pos = (344,685);
}
);
hints = (
{
name = _corner.caps_left;
origin = (0,6);
type = Corner;
}
);
layerId = "49C16FD3-6177-408B-A733-AEB3898BB77C";
shapes = (
{
closed = 1;
nodes = (
(566,-9,o),
(700,131,o),
(700,342,cs),
(700,541,o),
(576,684,o),
(371,684,cs,{
"Letterink-NibData" = {
AngleInDegrees = 270.22037;
};
}),
(134,684,l,{
"Letterink-NibData" = {
AngleInDegrees = 180;
};
}),
(134,649,l,{
"Letterink-NibData" = {
AngleInDegrees = 90;
};
}),
(366,649,ls,{
"Letterink-NibData" = {
AngleInDegrees = 93.25195;
};
}),
(553,649,o),
(661,525,o),
(661,339,cs,{
"Letterink-NibData" = {
AngleInDegrees = 180;
};
}),
(661,141,o),
(547,26,o),
(341,26,cs,{
"Letterink-NibData" = {
AngleInDegrees = 270;
};
}),
(276,26,o),
(189,29,o),
(172,31,c),
(172,649,l,{
"Letterink-NibData" = {
AngleInDegrees = 270;
};
}),
(134,649,l,{
"Letterink-NibData" = {
AngleInDegrees = 180;
};
}),
(134,0,l,{
"Letterink-NibData" = {
AngleInDegrees = 94.18492;
};
}),
(173,-3,ls,{
"Letterink-NibData" = {
AngleInDegrees = 94.20536;
};
}),
(240,-8,o),
(284,-9,o),
(363,-9,cs,{
"Letterink-NibData" = {
AngleInDegrees = 90;
};
})
);
}
);
width = 761;
},
{
anchors = (
{
name = bottom;
pos = (415,-2);
},
{
name = center;
pos = (249,353);
},
{
name = top;
pos = (424,684);
}
);
hints = (
{
name = _corner.caps_left;
origin = (0,6);
type = Corner;
}
);
layerId = m004;
shapes = (
{
closed = 1;
nodes = (
(600,-14,o),
(755,135,o),
(755,346,cs),
(755,531,o),
(620,684,o),
(417,684,cs,{
"Letterink-NibData" = {
AngleInDegrees = "270.21459";
};
}),
(161,684,l,{
"Letterink-NibData" = {
AngleInDegrees = "180";
};
}),
(161,536,l,{
"Letterink-NibData" = {
AngleInDegrees = "90";
};
}),
(418,536,ls,{
"Letterink-NibData" = {
AngleInDegrees = "92.97373";
};
}),
(529,536,o),
(590,461,o),
(590,343,cs,{
"Letterink-NibData" = {
AngleInDegrees = "180";
};
}),
(590,217,o),
(518,141,o),
(399,141,cs,{
"Letterink-NibData" = {
AngleInDegrees = "270";
};
}),
(368,141,o),
(350,142,o),
(326,146,c),
(326,655,l,{
"Letterink-NibData" = {
AngleInDegrees = "270";
};
}),
(161,655,l,{
"Letterink-NibData" = {
AngleInDegrees = "180";
};
}),
(161,5,l,{
"Letterink-NibData" = {
AngleInDegrees = "95.10217";
};
}),
(231,-3,ls,{
"Letterink-NibData" = {
AngleInDegrees = "95.12819";
};
}),
(271,-8,o),
(304,-9,o),
(384,-10,cs,{
"Letterink-NibData" = {
AngleInDegrees = "90";
};
})
);
}
);
width = 787;
}
);
metricLeft = E;
metricRight = O;
unicode = 68;
userData = {
position = 674;
width = 60;
};
},
{
glyphname = D.ss01;
kernLeft = L;
kernRight = O;
layers = (
{
anchors = (
{
name = bottom;
pos = (308,-10);
},
{
name = center;
pos = (163,367);
},
{
name = top;
pos = (295,681);
}
);
layerId = "0CAF3BED-C4AC-4024-B3E1-4C69D1EF7EC0";
shapes = (
{
closed = 1;
nodes = (
(512,-10,o),
(656,136,o),
(656,342,cs),
(656,535,o),
(529,672,o),
(338,684,c,{
"Letterink-NibData" = {
AngleInDegrees = 270.21459;
};
}),
(81,685,l,{
"Letterink-NibData" = {
AngleInDegrees = 180;
};
}),
(81,608,l,{
"Letterink-NibData" = {
AngleInDegrees = 90;
};
}),
(327,608,l,{
"Letterink-NibData" = {
AngleInDegrees = 92.97373;
};
}),
(484,600,o),
(574,501,o),
(574,339,cs,{
"Letterink-NibData" = {
AngleInDegrees = 180;
};
}),
(574,163,o),
(468,65,o),
(276,65,cs,{
"Letterink-NibData" = {
AngleInDegrees = 270;
};
}),
(245,65,o),
(205,67,o),
(163,70,c),
(163,651,l,{
"Letterink-NibData" = {
AngleInDegrees = 270;
};
}),
(81,651,l,{
"Letterink-NibData" = {
AngleInDegrees = 180;
};
}),
(81,1,l,{
"Letterink-NibData" = {
AngleInDegrees = 95.10217;
};
}),
(137,-4,ls,{
"Letterink-NibData" = {
AngleInDegrees = 95.12819;
};
}),
(203,-10,o),
(205,-10,o),
(308,-10,cs,{
"Letterink-NibData" = {
AngleInDegrees = 90;
};
})
);
}
);
width = 705;
},
{
anchors = (
{
name = bottom;
pos = (255,-11);
},
{
name = center;
pos = (129,358);
},
{
name = top;
pos = (365,690);
}
);
layerId = "49C16FD3-6177-408B-A733-AEB3898BB77C";
shapes = (
{
closed = 1;
nodes = (
(523,-9,o),
(657,131,o),
(657,342,cs),
(657,541,o),
(533,672,o),
(340,684,c,{
"Letterink-NibData" = {
AngleInDegrees = 270.22037;
};
}),
(91,685,l,{
"Letterink-NibData" = {
AngleInDegrees = 180;
};
}),
(91,649,l,{
"Letterink-NibData" = {
AngleInDegrees = 90;
};
}),
(331,649,l,{
"Letterink-NibData" = {
AngleInDegrees = 93.25195;
};
}),
(510,639,o),
(618,525,o),
(618,339,cs,{
"Letterink-NibData" = {
AngleInDegrees = 180;
};
}),
(618,141,o),
(504,26,o),
(298,26,cs,{
"Letterink-NibData" = {
AngleInDegrees = 270;
};
}),
(233,26,o),
(146,29,o),
(129,31,c),
(129,649,l,{
"Letterink-NibData" = {
AngleInDegrees = 270;
};
}),
(91,649,l,{
"Letterink-NibData" = {
AngleInDegrees = 180;
};
}),
(91,0,l,{
"Letterink-NibData" = {
AngleInDegrees = 94.18492;
};
}),
(130,-3,ls,{
"Letterink-NibData" = {
AngleInDegrees = 94.20536;
};
}),
(197,-8,o),
(241,-9,o),
(320,-9,cs,{
"Letterink-NibData" = {
AngleInDegrees = 90;
};
})
);
}
);
width = 718;
},
{
anchors = (
{
name = bottom;
pos = (281,-10);
},
{
name = center;
pos = (173,360);
},
{
name = top;
pos = (297,685);
}
);
layerId = m004;
shapes = (
{
closed = 1;
nodes = (
(514,-14,o),
(652,151,o),
(652,346,cs),
(652,523,o),
(525,673,o),
(317,684,c,{
"Letterink-NibData" = {
AngleInDegrees = "270.21459";
};
}),
(58,684,l,{
"Letterink-NibData" = {
AngleInDegrees = "180";
};
}),
(58,532,l,{
"Letterink-NibData" = {
AngleInDegrees = "90";
};
}),
(315,532,l,{
"Letterink-NibData" = {
AngleInDegrees = "92.97373";
};
}),
(438,528,o),
(487,448,o),
(487,343,cs,{
"Letterink-NibData" = {
AngleInDegrees = "180";
};
}),
(487,212,o),
(411,141,o),
(296,141,cs,{
"Letterink-NibData" = {
AngleInDegrees = "270";
};
}),
(275,141,o),
(248,141,o),
(223,146,c),
(223,655,l,{
"Letterink-NibData" = {
AngleInDegrees = "270";
};
}),
(58,655,l,{
"Letterink-NibData" = {
AngleInDegrees = "180";
};
}),
(58,5,l,{
"Letterink-NibData" = {
AngleInDegrees = "95.10217";
};
}),
(148,-4,ls,{
"Letterink-NibData" = {
AngleInDegrees = "95.12819";
};
}),
(151,-4,o),
(155,-8,o),
(281,-10,cs,{
"Letterink-NibData" = {
AngleInDegrees = "90";
};
})
);
}
);
width = 684;
}
);
metricLeft = "=|H";
metricRight = O;
userData = {
position = 674;
width = 60;
};
},
{
glyphname = D.swsh;
kernLeft = Swash;
kernRight = O;
layers = (
{
background = {
anchors = (
{
name = bottom;
pos = (406,0);
},
{
name = center;
pos = (431,11);
},
{
name = top;
pos = (431,11);
}
);
hints = (
{
name = _corner.caps_swash;
origin = (0,7);
type = Corner;
}
);
shapes = (
{
closed = 1;
nodes = (
(370,-10,ls,{
"Letterink-NibData" = {
AngleInDegrees = 90;
};
}),
(574,-10,o),
(719,138,o),
(719,342,cs),
(719,532,o),
(592,678,o),
(400,690,c,{
"Letterink-NibData" = {
AngleInDegrees = 270.20033;
};
}),
(144,691,l,{
"Letterink-NibData" = {
AngleInDegrees = 180;
};
}),
(144,615,l,{
"Letterink-NibData" = {
AngleInDegrees = 90;
};
}),
(389,615,l,{
"Letterink-NibData" = {
AngleInDegrees = 93.55173;
};
}),
(534,606,o),
(637,517,o),
(637,342,cs,{
"Letterink-NibData" = {
AngleInDegrees = 180;
};
}),
(637,175,o),
(544,66,o),
(332,66,cs,{
"Letterink-NibData" = {
AngleInDegrees = 270;
};
}),
(305,66,o),
(279,69,o),
(245,71,c),
(245,559,l,{
"Letterink-NibData" = {
AngleInDegrees = 270;
};
}),
(163,559,l,{
"Letterink-NibData" = {
AngleInDegrees = 180;
};
}),
(163,1,l,{
"Letterink-NibData" = {
AngleInDegrees = 95.01311;
};
}),
(220,-4,ls,{
"Letterink-NibData" = {
AngleInDegrees = 94.93922;
};
}),
(289,-10,o),
(288,-10,o),
(330,-10,cs,{
"Letterink-NibData" = {
AngleInDegrees = 90;
};
})
);
}
);
};
hints = (
{
name = _corner.caps_swash;
origin = (0,6);
type = Corner;
}
);
layerId = "0CAF3BED-C4AC-4024-B3E1-4C69D1EF7EC0";
shapes = (
{
closed = 1;
nodes = (
(598,-10,o),
(742,136,o),
(742,342,cs),
(742,535,o),
(615,672,o),
(424,684,c,{
"Letterink-NibData" = {
AngleInDegrees = "270.21459";
};
}),
(167,685,l,{
"Letterink-NibData" = {
AngleInDegrees = "180";
};
}),
(167,608,l,{
"Letterink-NibData" = {
AngleInDegrees = "90";
};
}),
(413,608,l,{
"Letterink-NibData" = {
AngleInDegrees = "92.97373";
};
}),
(570,600,o),
(660,501,o),
(660,339,cs,{
"Letterink-NibData" = {
AngleInDegrees = "180";
};
}),
(660,163,o),
(554,65,o),
(362,65,cs,{
"Letterink-NibData" = {
AngleInDegrees = "270";
};
}),
(331,65,o),
(291,67,o),
(249,70,c),
(249,560,l,{
"Letterink-NibData" = {
AngleInDegrees = "270";
};
}),
(167,560,l,{
"Letterink-NibData" = {
AngleInDegrees = "180";
};
}),
(167,1,l,{
"Letterink-NibData" = {
AngleInDegrees = "95.10217";
};
}),
(223,-4,ls,{
"Letterink-NibData" = {
AngleInDegrees = "95.12819";
};
}),
(289,-10,o),
(291,-10,o),
(394,-10,cs,{
"Letterink-NibData" = {
AngleInDegrees = "90";
};
})
);
}
);
width = 791;
},
{
background = {
anchors = (
{
name = bottom;
pos = (395,0);
},
{
name = center;
pos = (413,-8);
},
{
name = top;
pos = (413,-8);
}
);
hints = (
{
name = _corner.caps_swash;
origin = (0,7);
type = Corner;
}
);
shapes = (
{
closed = 1;
nodes = (
(362,-9,ls,{
"Letterink-NibData" = {
AngleInDegrees = 90;
};
}),
(550,-9,o),
(699,122,o),
(699,342,cs),
(699,535,o),
(584,690,o),
(382,690,c,{
"Letterink-NibData" = {
AngleInDegrees = 270.19689;
};
}),
(121,691,l,{
"Letterink-NibData" = {
AngleInDegrees = 180;
};
}),
(121,651,l,{
"Letterink-NibData" = {
AngleInDegrees = 90;
};
}),
(372,651,l,{
"Letterink-NibData" = {
AngleInDegrees = 90;
};
}),
(535,651,o),
(657,535,o),
(657,349,cs,{
"Letterink-NibData" = {
AngleInDegrees = 180;
};
}),
(657,161,o),
(548,30,o),
(334,30,cs,{
"Letterink-NibData" = {
AngleInDegrees = 270;
};
}),
(311,30,o),
(255,32,o),
(193,35,c),
(193,573,l,{
"Letterink-NibData" = {
AngleInDegrees = 270;
};
}),
(151,573,l,{
"Letterink-NibData" = {
AngleInDegrees = 180;
};
}),
(151,0,l,{
"Letterink-NibData" = {
AngleInDegrees = 94.28915;
};
}),
(191,-3,ls,{
"Letterink-NibData" = {
AngleInDegrees = 93.66779;
};
}),
(270,-9,o),
(279,-9,o),
(318,-9,cs,{
"Letterink-NibData" = {
AngleInDegrees = 90;
};
})
);
}
);
};
hints = (
{
name = _corner.caps_swash;
origin = (0,6);
type = Corner;
}
);
layerId = "49C16FD3-6177-408B-A733-AEB3898BB77C";
shapes = (
{
closed = 1;
nodes = (
(587,-9,o),
(721,131,o),
(721,342,cs),
(721,541,o),
(597,672,o),
(404,684,c,{
"Letterink-NibData" = {
AngleInDegrees = "270.22037";
};
}),
(155,685,l,{
"Letterink-NibData" = {
AngleInDegrees = "180";
};
}),
(155,649,l,{
"Letterink-NibData" = {
AngleInDegrees = "90";
};
}),
(395,649,l,{
"Letterink-NibData" = {
AngleInDegrees = "93.25194999999999";
};
}),
(574,639,o),
(682,524,o),
(682,339,cs,{
"Letterink-NibData" = {
AngleInDegrees = "180";
};
}),
(682,141,o),
(568,26,o),
(362,26,cs,{
"Letterink-NibData" = {
AngleInDegrees = "270";
};
}),
(297,26,o),
(210,29,o),
(193,31,c),
(193,569,l,{
"Letterink-NibData" = {
AngleInDegrees = "270";
};
}),
(155,569,l,{
"Letterink-NibData" = {
AngleInDegrees = "180";
};
}),
(155,0,l,{
"Letterink-NibData" = {
AngleInDegrees = "94.18492000000001";
};
}),
(194,-3,ls,{
"Letterink-NibData" = {
AngleInDegrees = "94.20536";
};
}),
(261,-8,o),
(305,-9,o),
(384,-9,cs,{
"Letterink-NibData" = {
AngleInDegrees = "90";
};
})
);
}
);
width = 782;
},
{
background = {
anchors = (
{
name = bottom;
pos = (474,0);
},
{
name = center;
pos = (499,11);
},
{
name = top;
pos = (499,11);
}
);
hints = (
{
name = _corner.caps_swash;
origin = (0,7);
type = Corner;
}
);
shapes = (
{
closed = 1;
nodes = (
(438,-10,ls,{
"Letterink-NibData" = {
AngleInDegrees = 90;
};
}),
(642,-10,o),
(787,138,o),
(787,342,cs),
(787,532,o),
(660,678,o),
(468,690,c,{
"Letterink-NibData" = {
AngleInDegrees = 270.20033;
};
}),
(212,691,l,{
"Letterink-NibData" = {
AngleInDegrees = 180;
};
}),
(212,615,l,{
"Letterink-NibData" = {
AngleInDegrees = 90;
};
}),
(457,615,l,{
"Letterink-NibData" = {
AngleInDegrees = 93.55173;
};
}),
(602,606,o),
(705,517,o),
(705,342,cs,{
"Letterink-NibData" = {
AngleInDegrees = 180;
};
}),
(705,175,o),
(612,66,o),
(400,66,cs,{
"Letterink-NibData" = {
AngleInDegrees = 270;
};
}),
(373,66,o),
(347,69,o),
(313,71,c),
(313,559,l,{
"Letterink-NibData" = {
AngleInDegrees = 270;
};
}),
(231,559,l,{
"Letterink-NibData" = {
AngleInDegrees = 180;
};
}),
(231,1,l,{
"Letterink-NibData" = {
AngleInDegrees = 95.01311;
};
}),
(288,-4,ls,{
"Letterink-NibData" = {
AngleInDegrees = 94.93922;
};
}),
(357,-10,o),
(356,-10,o),
(398,-10,cs,{
"Letterink-NibData" = {
AngleInDegrees = 90;
};
})
);
}
);
};
hints = (
{
name = _corner.caps_swash;
origin = (0,6);
type = Corner;
}
);
layerId = m004;
shapes = (
{
closed = 1;
nodes = (
(654,-10,o),
(792,151,o),
(792,341,cs),
(792,523,o),
(665,672,o),
(470,684,c,{
"Letterink-NibData" = {
AngleInDegrees = "270.21459";
};
}),
(198,685,l,{
"Letterink-NibData" = {
AngleInDegrees = "180";
};
}),
(198,536,l,{
"Letterink-NibData" = {
AngleInDegrees = "90";
};
}),
(455,536,l,{
"Letterink-NibData" = {
AngleInDegrees = "92.97373";
};
}),
(578,532,o),
(627,448,o),
(627,346,cs,{
"Letterink-NibData" = {
AngleInDegrees = "180";
};
}),
(627,212,o),
(543,141,o),
(433,141,cs,{
"Letterink-NibData" = {
AngleInDegrees = "270";
};
}),
(415,141,o),
(386,143,o),
(363,146,c),
(363,499,l,{
"Letterink-NibData" = {
AngleInDegrees = "270";
};
}),
(198,499,l,{
"Letterink-NibData" = {
AngleInDegrees = "180";
};
}),
(198,5,l,{
"Letterink-NibData" = {
AngleInDegrees = "95.10217";
};
}),
(288,-4,ls,{
"Letterink-NibData" = {
AngleInDegrees = "95.12819";
};
}),
(322,-7,o),
(367,-10,o),
(396,-10,cs,{
"Letterink-NibData" = {
AngleInDegrees = "90";
};
})
);
}
);
width = 824;
}
);
metricLeft = E;
metricRight = O;
userData = {
position = 674;
width = 60;
};
},
{
glyphname = E;
kernLeft = E;
kernRight = E;
layers = (
{
anchors = (
{
name = bottom;
pos = (390,0);
},
{
name = ogonek;
pos = (601,-1);
},
{
name = top;
pos = (371,684);
},
{
name = topleft;
pos = (60,684);
}
);
hints = (
{
name = _corner.caps_left;
origin = (0,10);
type = Corner;
}
);
layerId = "0CAF3BED-C4AC-4024-B3E1-4C69D1EF7EC0";
shapes = (
{
closed = 1;
nodes = (
(601,-1,l),
(601,75,l,{
"Letterink-NibData" = {
AngleInDegrees = "270";
};
}),
(214,75,l),
(214,323,l,{
"Letterink-NibData" = {
AngleInDegrees = "90";
};
}),
(485,323,l),
(485,399,l,{
"Letterink-NibData" = {
AngleInDegrees = "270";
};
}),
(214,399,l),
(214,608,l,{
"Letterink-NibData" = {
AngleInDegrees = "90";
};
}),
(582,608,l),
(582,684,l,{
"Letterink-NibData" = {
AngleInDegrees = "270";
};
}),
(132,684,l,{
"Letterink-NibData" = {
AngleInDegrees = "180";
};
}),
(132,-1,l,{
"Letterink-NibData" = {
AngleInDegrees = "90";
};
})
);
}
);
width = 642;
},
{
anchors = (
{
name = bottom;
pos = (338,0);
},
{
name = ogonek;
pos = (557,1);
},
{
name = top;
pos = (345,684);
},
{
name = topleft;
pos = (31,684);
}
);
hints = (
{
name = _corner.caps_left;
origin = (0,10);
type = Corner;
}
);
layerId = "49C16FD3-6177-408B-A733-AEB3898BB77C";
shapes = (
{
closed = 1;
nodes = (
(558,0,l),
(558,36,l,{
"Letterink-NibData" = {
AngleInDegrees = 270;
};
}),
(172,36,l),
(172,346,l,{
"Letterink-NibData" = {
AngleInDegrees = 90;
};
}),
(435,346,l),
(435,382,l,{
"Letterink-NibData" = {
AngleInDegrees = 270;
};
}),
(172,382,l),
(172,649,l,{
"Letterink-NibData" = {
AngleInDegrees = 90;
};
}),
(560,649,l),
(560,685,l,{
"Letterink-NibData" = {
AngleInDegrees = 269.86613;
};
}),
(134,684,l,{
"Letterink-NibData" = {
AngleInDegrees = 180;
};
}),
(134,0,l,{
"Letterink-NibData" = {
AngleInDegrees = 90;
};
})
);
}
);
width = 607;
},
{
anchors = (
{
name = bottom;
pos = (420,0);
},
{
name = ogonek;
pos = (623,0);
},
{
name = top;
pos = (402,684);
},
{
name = topleft;
pos = (161,684);
}
);
hints = (
{
name = _corner.caps_left;
origin = (0,10);
type = Corner;
}
);
layerId = m004;
shapes = (
{
closed = 1;
nodes = (
(623,0,l),
(623,148,l,{
"Letterink-NibData" = {
AngleInDegrees = "270";
};
}),
(327,148,l),
(327,273,l,{
"Letterink-NibData" = {
AngleInDegrees = "90";
};
}),
(527,273,l),
(527,421,l,{
"Letterink-NibData" = {
AngleInDegrees = "270";
};
}),
(327,421,l),
(327,536,l,{
"Letterink-NibData" = {
AngleInDegrees = "90";
};
}),
(613,536,l),
(613,684,l,{
"Letterink-NibData" = {
AngleInDegrees = "270";
};
}),
(161,684,l,{
"Letterink-NibData" = {
AngleInDegrees = "180";
};
}),
(161,0,l,{
"Letterink-NibData" = {
AngleInDegrees = "90";
};
})
);
}
);
width = 663;
}
);
unicode = 69;
userData = {
position = 130;
width = 61;
};
},
{
glyphname = E.ss01;
kernLeft = L;
kernRight = E;
layers = (
{
anchors = (
{
name = bottom;
pos = (319,0);
},
{
name = ogonek;
pos = (550,-1);
},
{
name = top;
pos = (321,685);
},
{
name = topleft;
pos = (17,684);
}
);
layerId = "0CAF3BED-C4AC-4024-B3E1-4C69D1EF7EC0";
shapes = (
{
closed = 1;
nodes = (
(550,-1,l),
(550,75,l,{
"Letterink-NibData" = {
AngleInDegrees = 270;
};
}),
(163,75,l),
(163,323,l,{
"Letterink-NibData" = {
AngleInDegrees = 90;
};
}),
(434,323,l),
(434,399,l,{
"Letterink-NibData" = {
AngleInDegrees = 270;
};
}),
(163,399,l),
(163,608,l,{
"Letterink-NibData" = {
AngleInDegrees = 90;
};
}),
(531,608,l),
(531,684,l,{
"Letterink-NibData" = {
AngleInDegrees = 270;
};
}),
(81,684,l,{
"Letterink-NibData" = {
AngleInDegrees = 180;
};
}),
(81,-1,l,{
"Letterink-NibData" = {
AngleInDegrees = 90;
};
})
);
}
);
width = 591;
},
{
anchors = (
{
name = bottom;
pos = (319,2);
},
{
name = ogonek;
pos = (541,1);
},
{
name = top;
pos = (317,684);
},
{
name = topleft;
pos = (25,684);
}
);
layerId = "49C16FD3-6177-408B-A733-AEB3898BB77C";
shapes = (
{
closed = 1;
nodes = (
(541,0,l),
(541,36,l,{
"Letterink-NibData" = {
AngleInDegrees = 270;
};
}),
(129,36,l),
(129,346,l,{
"Letterink-NibData" = {
AngleInDegrees = 90;
};
}),
(418,346,l),
(418,382,l,{
"Letterink-NibData" = {
AngleInDegrees = 270;
};
}),
(129,382,l),
(129,649,l,{
"Letterink-NibData" = {
AngleInDegrees = 90;
};
}),
(521,649,l),
(521,685,l,{
"Letterink-NibData" = {
AngleInDegrees = 270;
};
}),
(91,685,l,{
"Letterink-NibData" = {
AngleInDegrees = 180;
};
}),
(91,0,l,{
"Letterink-NibData" = {
AngleInDegrees = 90;
};
})
);
}
);
width = 588;
},
{
anchors = (
{
name = bottom;
pos = (314,0);
},
{
name = ogonek;
pos = (558,-5);
},
{
name = top;
pos = (301,687);
},
{
name = topleft;
pos = (57,684);
}
);
layerId = m004;
shapes = (
{
closed = 1;
nodes = (
(549,0,l),
(549,148,l,{
"Letterink-NibData" = {
AngleInDegrees = 270;
};
}),
(223,148,l),
(223,273,l,{
"Letterink-NibData" = {
AngleInDegrees = 90;
};
}),
(453,273,l),
(453,421,l,{
"Letterink-NibData" = {
AngleInDegrees = 270;
};
}),
(223,421,l),
(223,536,l,{
"Letterink-NibData" = {
AngleInDegrees = 90;
};
}),
(539,536,l),
(539,684,l,{
"Letterink-NibData" = {
AngleInDegrees = 270;
};
}),
(58,684,l,{
"Letterink-NibData" = {
AngleInDegrees = 180;
};
}),
(58,0,l,{
"Letterink-NibData" = {
AngleInDegrees = 90;
};
})
);
}
);
width = 589;
}
);
metricLeft = N.ss01;
metricRight = E;
userData = {
position = 95;
width = 61;
};
},
{
glyphname = E.swsh;
kernLeft = Swash;
kernRight = E;
layers = (
{
anchors = (
{
name = bottom;
pos = (422,0);
},
{
name = ogonek;
pos = (640,0);
},
{
name = top;
pos = (415,684);
},
{
name = topleft;
pos = (23,684);
}
);
hints = (
{
name = _corner.caps_swash;
origin = (1,2);
type = Corner;
}
);
layerId = "0CAF3BED-C4AC-4024-B3E1-4C69D1EF7EC0";
shapes = (
{
closed = 1;
nodes = (
(640,0,l),
(640,76,l,{
"Letterink-NibData" = {
AngleInDegrees = 270;
};
}),
(274,76,l),
(274,325,l,{
"Letterink-NibData" = {
AngleInDegrees = 90;
};
}),
(524,325,l),
(524,401,l,{
"Letterink-NibData" = {
AngleInDegrees = 270;
};
}),
(274,401,l),
(274,559,l,{
"Letterink-NibData" = {
AngleInDegrees = 270;
};
}),
(192,559,l,{
"Letterink-NibData" = {
AngleInDegrees = 180;
};
}),
(192,0,l,{
"Letterink-NibData" = {
AngleInDegrees = 90;
};
})
);
},
{
closed = 1;
nodes = (
(640,609,l),
(640,685,l,{
"Letterink-NibData" = {
AngleInDegrees = 270;
};
}),
(167,685,l,{
"Letterink-NibData" = {
AngleInDegrees = 180;
};
}),
(167,609,l,{
"Letterink-NibData" = {
AngleInDegrees = 90;
};
})
);
}
);
width = 681;
},
{
anchors = (
{
name = bottom;
pos = (410,0);
},
{
name = ogonek;
pos = (618,0);
},
{
name = top;
pos = (400,684);
},
{
name = topleft;
pos = (4,684);
}
);
hints = (
{
name = _corner.caps_swash;
origin = (1,2);
type = Corner;
}
);
layerId = "49C16FD3-6177-408B-A733-AEB3898BB77C";
shapes = (
{
closed = 1;
nodes = (
(618,0,l),
(618,36,l,{
"Letterink-NibData" = {
AngleInDegrees = 270;
};
}),
(226,36,l),
(226,346,l,{
"Letterink-NibData" = {
AngleInDegrees = 90;
};
}),
(494,346,l),
(494,382,l,{
"Letterink-NibData" = {
AngleInDegrees = 270;
};
}),
(226,382,l),
(226,570,l,{
"Letterink-NibData" = {
AngleInDegrees = 270;
};
}),
(189,570,l,{
"Letterink-NibData" = {
AngleInDegrees = 180;
};
}),
(189,0,l,{
"Letterink-NibData" = {
AngleInDegrees = 90;
};
})
);
},
{
closed = 1;
nodes = (
(618,648,l),
(618,684,l,{
"Letterink-NibData" = {
AngleInDegrees = 270;
};
}),
(155,684,l,{
"Letterink-NibData" = {
AngleInDegrees = 180;
};
}),
(155,648,l,{
"Letterink-NibData" = {
AngleInDegrees = 90;
};
})
);
}
);
width = 665;
},
{
anchors = (
{
name = bottom;
pos = (449,0);
},
{
name = ogonek;
pos = (680,0);
},
{
name = top;
pos = (437,684);
},
{
name = topleft;
pos = (-11,728);
}
);
hints = (
{
name = _corner.caps_swash;
origin = (1,2);
type = Corner;
}
);
layerId = m004;
shapes = (
{
closed = 1;
nodes = (
(680,0,l),
(680,148,l,{
"Letterink-NibData" = {
AngleInDegrees = "270";
};
}),
(364,148,l),
(364,276,l,{
"Letterink-NibData" = {
AngleInDegrees = "90";
};
}),
(584,276,l),
(584,424,l,{
"Letterink-NibData" = {
AngleInDegrees = "270";
};
}),
(364,424,l),
(364,501,l,{
"Letterink-NibData" = {
AngleInDegrees = "90";
};
}),
(198,500,l,{
"Letterink-NibData" = {
AngleInDegrees = "180";
};
}),
(198,0,l,{
"Letterink-NibData" = {
AngleInDegrees = "90";
};
})
);
},
{
closed = 1;
nodes = (
(670,536,l),
(670,684,l,{
"Letterink-NibData" = {
AngleInDegrees = "270";
};
}),
(198,684,l,{
"Letterink-NibData" = {
AngleInDegrees = "180";
};
}),
(198,536,l)
);
}
);
width = 720;
}
);
metricLeft = E;
metricRight = E;
userData = {
position = 130;
width = 61;
};
},
{
glyphname = Schwa;
kernLeft = O;
kernRight = O;
layers = (
{
anchors = (
{
name = bottom;
pos = (328,-14);
},
{
name = ogonek;
pos = (549,85);
},
{
name = top;
pos = (329,701);
}
);
layerId = "49C16FD3-6177-408B-A733-AEB3898BB77C";
shapes = (
{
closed = 1;
nodes = (
(508,-16,o),
(634,128,o),
(634,365,cs,{
"Letterink-NibData" = {
AngleInDegrees = 180;
};
}),
(634,566,o),
(527,701,o),
(329,701,cs,{
"Letterink-NibData" = {
AngleInDegrees = 90;
};
}),
(243,701,o),
(161,679,o),
(90,630,c,{
"Letterink-NibData" = {
AngleInDegrees = 328.49573;
};
}),
(106,604,l,{
"Letterink-NibData" = {
AngleInDegrees = 241.38954;
};
}),
(184,648,o),
(244,668,o),
(319,668,cs,{
"Letterink-NibData" = {
AngleInDegrees = 270;
};
}),
(576,668,o),
(599,442,o),
(599,359,cs),
(599,168,o),
(491,16,o),
(326,16,cs,{
"Letterink-NibData" = {
AngleInDegrees = 90;
};
}),
(203,16,o),
(99,121,o),
(99,267,cs,{
"Letterink-NibData" = {
AngleInDegrees = 180;
};
}),
(99,278,o),
(100,315,o),
(107,351,c,{
"Letterink-NibData" = {
AngleInDegrees = 90;
};
}),
(68,351,l,{
"Letterink-NibData" = {
AngleInDegrees = 4.96974;
};
}),
(65,316,o),
(63,291,o),
(63,270,cs),
(63,99,o),
(171,-12,o),
(328,-14,cs,{
"Letterink-NibData" = {
AngleInDegrees = 270.42128;
};
})
);
},
{
closed = 1;
nodes = (
(606,318,l,{
"Letterink-NibData" = {
AngleInDegrees = 180;
};
}),
(606,351,l,{
"Letterink-NibData" = {
AngleInDegrees = 90;
};
}),
(94,351,l),
(94,318,l,{
"Letterink-NibData" = {
AngleInDegrees = 270;
};
})
);
}
);
userData = {
RMXScaler = {
height = 140;
weight = -145;
width = 135;
};
};
width = 700;
},
{
anchors = (
{
name = bottom;
pos = (331,0);
},
{
name = ogonek;
pos = (619,68);
},
{
name = top;
pos = (331,712);
}
);
layerId = "0CAF3BED-C4AC-4024-B3E1-4C69D1EF7EC0";
shapes = (
{
closed = 1;
nodes = (
(535,-15,o),
(645,177,o),
(645,369,cs,{
"Letterink-NibData" = {
AngleInDegrees = 180;
};
}),
(645,568,o),
(533,712,o),
(331,712,cs,{
"Letterink-NibData" = {
AngleInDegrees = 90;
};
}),
(238,712,o),
(143,683,o),
(75,629,c,{
"Letterink-NibData" = {
AngleInDegrees = 328.49573;
};
}),
(111,569,l,{
"Letterink-NibData" = {
AngleInDegrees = 235.0806;
};
}),
(190,621,o),
(252,635,o),
(326,635,cs,{
"Letterink-NibData" = {
AngleInDegrees = 270;
};
}),
(548,635,o),
(561,442,o),
(561,370,cs),
(561,169,o),
(456,62,o),
(331,62,cs,{
"Letterink-NibData" = {
AngleInDegrees = 90;
};
}),
(221,62,o),
(133,153,o),
(133,273,cs,{
"Letterink-NibData" = {
AngleInDegrees = 180;
};
}),
(133,301,o),
(137,337,o),
(143,377,c,{
"Letterink-NibData" = {
AngleInDegrees = 90;
};
}),
(55,377,l,{
"Letterink-NibData" = {
AngleInDegrees = 4.08562;
};
}),
(53,342,o),
(49,313,o),
(49,277,cs),
(49,113,o),
(172,-15,o),
(330,-15,cs,{
"Letterink-NibData" = {
AngleInDegrees = 270;
};
})
);
},
{
closed = 1;
nodes = (
(618,300,l,{
"Letterink-NibData" = {
AngleInDegrees = 180;
};
}),
(618,377,l,{
"Letterink-NibData" = {
AngleInDegrees = 90;
};
}),
(86,377,l),
(86,300,l,{
"Letterink-NibData" = {
AngleInDegrees = 270;
};
})
);
}
);
userData = {
RMXScaler = {
height = 140;
weight = -120;
width = 135;
};
};
width = 696;
},
{
anchors = (
{
name = bottom;
pos = (355,48);
},
{
name = ogonek;
pos = (659,96);
},
{
name = top;
pos = (351,697);
}
);
layerId = m004;
shapes = (
{
closed = 1;
nodes = (
(533,-20,o),
(654,161,o),
(654,354,cs,{
"Letterink-NibData" = {
AngleInDegrees = 180;
};
}),
(654,550,o),
(535,707,o),
(324,707,cs,{
"Letterink-NibData" = {
AngleInDegrees = 90;
};
}),
(208,707,o),
(93,660,o),
(39,592,c,{
"Letterink-NibData" = {
AngleInDegrees = 328.49573;
};
}),
(121,476,l,{
"Letterink-NibData" = {
AngleInDegrees = 235.0806;
};
}),
(172,529,o),
(244,558,o),
(313,558,cs,{
"Letterink-NibData" = {
AngleInDegrees = 270;
};
}),
(454,558,o),
(474,437,o),
(474,354,cs),
(474,198,o),
(400,129,o),
(324,129,cs,{
"Letterink-NibData" = {
AngleInDegrees = 90;
};
}),
(259,129,o),
(204,184,o),
(204,264,cs,{
"Letterink-NibData" = {
AngleInDegrees = 180;
};
}),
(204,299,o),
(204,334,o),
(215,399,c,{
"Letterink-NibData" = {
AngleInDegrees = 90;
};
}),
(38,399,l,{
"Letterink-NibData" = {
AngleInDegrees = 4.08562;
};
}),
(32,354,o),
(29,316,o),
(29,268,cs),
(29,100,o),
(153,-18,o),
(321,-19,cs,{
"Letterink-NibData" = {
AngleInDegrees = 270;
};
})
);
},
{
closed = 1;
nodes = (
(636,269,l,{
"Letterink-NibData" = {
AngleInDegrees = 180;
};
}),
(636,399,l,{
"Letterink-NibData" = {
AngleInDegrees = 90;
};
}),
(49,399,l),
(49,269,l,{
"Letterink-NibData" = {
AngleInDegrees = 270;
};
})
);
}
);
userData = {
RMXScaler = {
height = 140;
weight = 200;
width = 135;
};
};
width = 681;
}
);
unicode = 399;
userData = {
RMXScaler = {
source = e.ss01;
};
};
},
{
glyphname = F;
kernLeft = E;
kernRight = F;
layers = (
{
anchors = (
{
name = bottom;
pos = (346,0);
},
{
name = top;
pos = (347,684);
}
);
hints = (
{
name = _corner.caps_left;
origin = (0,8);
type = Corner;
}
);
layerId = "0CAF3BED-C4AC-4024-B3E1-4C69D1EF7EC0";
shapes = (
{
closed = 1;
nodes = (
(215,-1,l),
(215,323,l,{
"Letterink-NibData" = {
AngleInDegrees = 90;
};
}),
(465,323,l),
(465,400,l,{
"Letterink-NibData" = {
AngleInDegrees = 270;
};
}),
(215,400,l),
(215,609,l,{
"Letterink-NibData" = {
AngleInDegrees = 90;
};
}),
(551,609,l),
(551,685,l,{
"Letterink-NibData" = {
AngleInDegrees = 270;
};
}),
(132,685,l,{
"Letterink-NibData" = {
AngleInDegrees = 179.91648;
};
}),
(133,-1,l,{
"Letterink-NibData" = {
AngleInDegrees = 90;
};
})
);
}
);
width = 584;
},
{
anchors = (
{
name = bottom;
pos = (348,-18);
},
{
name = top;
pos = (350,684);
}
);
hints = (
{
name = _corner.caps_left;
origin = (0,8);
type = Corner;
}
);
layerId = "49C16FD3-6177-408B-A733-AEB3898BB77C";
shapes = (
{
closed = 1;
nodes = (
(172,0,l),
(172,345,l,{
"Letterink-NibData" = {
AngleInDegrees = 90;
};
}),
(439,345,l),
(439,381,l,{
"Letterink-NibData" = {
AngleInDegrees = 270;
};
}),
(172,381,l),
(172,648,l,{
"Letterink-NibData" = {
AngleInDegrees = 90;
};
}),
(532,648,l),
(532,684,l,{
"Letterink-NibData" = {
AngleInDegrees = 270;
};
}),
(134,684,l,{
"Letterink-NibData" = {
AngleInDegrees = 180;
};
}),
(134,0,l,{
"Letterink-NibData" = {
AngleInDegrees = 90;
};
})
);
}
);
width = 570;
},
{
anchors = (
{
name = bottom;
pos = (404,-3);
},
{
name = top;
pos = (406,684);
}
);
background = {
anchors = (
{
name = bottom;
pos = (349,0);
},
{
name = top;
pos = (349,684);
}
);
hints = (
{
name = _corner.caps_left;
origin = (0,8);
type = Corner;
}
);
shapes = (
{
closed = 1;
nodes = (
(257,-1,l),
(257,323,l,{
"Letterink-NibData" = {
AngleInDegrees = 90;
};
}),
(507,323,l),
(507,400,l,{
"Letterink-NibData" = {
AngleInDegrees = 270;
};
}),
(257,400,l),
(257,609,l,{
"Letterink-NibData" = {
AngleInDegrees = 90;
};
}),
(603,609,l),
(603,685,l,{
"Letterink-NibData" = {
AngleInDegrees = 270;
};
}),
(174,685,l,{
"Letterink-NibData" = {
AngleInDegrees = 179.91648;
};
}),
(175,-1,l,{
"Letterink-NibData" = {
AngleInDegrees = 90;
};
})
);
}
);
};
hints = (
{
name = _corner.caps_left;
origin = (0,8);
type = Corner;
}
);
layerId = m004;
shapes = (
{
closed = 1;
nodes = (
(328,0,l),
(327,263,l,{
"Letterink-NibData" = {
AngleInDegrees = "90";
};
}),
(527,263,l),
(527,411,l,{
"Letterink-NibData" = {
AngleInDegrees = "270";
};
}),
(327,411,l),
(327,536,l,{
"Letterink-NibData" = {
AngleInDegrees = "90";
};
}),
(613,536,l),
(613,684,l,{
"Letterink-NibData" = {
AngleInDegrees = "270";
};
}),
(161,684,l,{
"Letterink-NibData" = {
AngleInDegrees = "180";
};
}),
(161,0,l,{
"Letterink-NibData" = {
AngleInDegrees = "90";
};
})
);
}
);
width = 645;
}
);
metricLeft = E;
metricRight = "=E*.8";
unicode = 70;
userData = {
position = 129;
width = 61;
};
},
{
glyphname = F.ss01;
kernRight = F;
layers = (
{
anchors = (
{
name = bottom;
pos = (294,0);
},
{
name = top;
pos = (295,684);
}
);
layerId = "0CAF3BED-C4AC-4024-B3E1-4C69D1EF7EC0";
shapes = (
{
closed = 1;
nodes = (
(163,-1,l),
(163,315,l,{
"Letterink-NibData" = {
AngleInDegrees = 90;
};
}),
(441,315,l),
(441,393,l,{
"Letterink-NibData" = {
AngleInDegrees = 270;
};
}),
(163,393,l),
(163,608,l,{
"Letterink-NibData" = {
AngleInDegrees = 90;
};
}),
(509,608,l),
(509,686,l,{
"Letterink-NibData" = {
AngleInDegrees = 270;
};
}),
(81,686,l,{
"Letterink-NibData" = {
AngleInDegrees = 180;
};
}),
(81,-1,l,{
"Letterink-NibData" = {
AngleInDegrees = 90;
};
})
);
}
);
width = 542;
},
{
anchors = (
{
name = bottom;
pos = (292,0);
},
{
name = top;
pos = (294,684);
}
);
layerId = "49C16FD3-6177-408B-A733-AEB3898BB77C";
shapes = (
{
closed = 1;
nodes = (
(132,1,l),
(132,337,l,{
"Letterink-NibData" = {
AngleInDegrees = 90;
};
}),
(429,337,l),
(429,372,l,{
"Letterink-NibData" = {
AngleInDegrees = 270;
};
}),
(132,372,l),
(132,648,l,{
"Letterink-NibData" = {
AngleInDegrees = 90;
};
}),
(501,648,l),
(501,685,l,{
"Letterink-NibData" = {
AngleInDegrees = 270;
};
}),
(91,685,l,{
"Letterink-NibData" = {
AngleInDegrees = 180;
};
}),
(91,1,l,{
"Letterink-NibData" = {
AngleInDegrees = 90;
};
})
);
}
);
width = 539;
},
{
anchors = (
{
name = bottom;
pos = (292,-11);
},
{
name = top;
pos = (294,684);
}
);
layerId = m004;
shapes = (
{
closed = 1;
nodes = (
(225,1,l),
(224,263,l,{
"Letterink-NibData" = {
AngleInDegrees = "90";
};
}),
(444,263,l),
(444,411,l,{
"Letterink-NibData" = {
AngleInDegrees = "270";
};
}),
(224,411,l),
(224,536,l,{
"Letterink-NibData" = {
AngleInDegrees = "90";
};
}),
(530,536,l),
(530,684,l,{
"Letterink-NibData" = {
AngleInDegrees = "270";
};
}),
(58,684,l,{
"Letterink-NibData" = {
AngleInDegrees = "180";
};
}),
(58,1,l,{
"Letterink-NibData" = {
AngleInDegrees = "90";
};
})
);
}
);
width = 562;
}
);
metricLeft = N.ss01;
metricRight = "=E*.8";
userData = {
position = 95;
width = 61;
};
},
{
glyphname = F.swsh;
kernLeft = Swash;
kernRight = F;
layers = (
{
anchors = (
{
name = bottom;
pos = (385,0);
},
{
name = top;
pos = (379,684);
}
);
hints = (
{
name = _corner.caps_swash;
origin = (1,2);
type = Corner;
}
);
layerId = "0CAF3BED-C4AC-4024-B3E1-4C69D1EF7EC0";
shapes = (
{
closed = 1;
nodes = (
(276,-1,l),
(276,360,l,{
"Letterink-NibData" = {
AngleInDegrees = 90;
};
}),
(240,324,l,{
"Letterink-NibData" = {
AngleInDegrees = 90;
};
}),
(525,324,l),
(525,400,l,{
"Letterink-NibData" = {
AngleInDegrees = 270;
};
}),
(240,400,l),
(276,364,l),
(276,559,l,{
"Letterink-NibData" = {
AngleInDegrees = 270;
};
}),
(193,559,l,{
"Letterink-NibData" = {
AngleInDegrees = 180;
};
}),
(193,-1,l,{
"Letterink-NibData" = {
AngleInDegrees = 90;
};
})
);
},
{
closed = 1;
nodes = (
(621,608,l),
(621,684,l,{
"Letterink-NibData" = {
AngleInDegrees = 270;
};
}),
(167,684,l,{
"Letterink-NibData" = {
AngleInDegrees = 180;
};
}),
(167,608,l,{
"Letterink-NibData" = {
AngleInDegrees = 90;
};
})
);
}
);
width = 654;
},
{
anchors = (
{
name = bottom;
pos = (370,0);
},
{
name = top;
pos = (366,684);
}
);
hints = (
{
name = _corner.caps_swash;
origin = (1,2);
type = Corner;
}
);
layerId = "49C16FD3-6177-408B-A733-AEB3898BB77C";
shapes = (
{
closed = 1;
nodes = (
(226,0,l),
(226,361,l,{
"Letterink-NibData" = {
AngleInDegrees = 90;
};
}),
(210,345,l,{
"Letterink-NibData" = {
AngleInDegrees = 90;
};
}),
(494,345,l),
(494,381,l,{
"Letterink-NibData" = {
AngleInDegrees = 270;
};
}),
(210,381,l),
(226,365,l),
(226,570,l,{
"Letterink-NibData" = {
AngleInDegrees = 270;
};
}),
(188,570,l,{
"Letterink-NibData" = {
AngleInDegrees = 180;
};
}),
(188,0,l,{
"Letterink-NibData" = {
AngleInDegrees = 90;
};
})
);
},
{
closed = 1;
nodes = (
(598,648,l),
(598,684,l,{
"Letterink-NibData" = {
AngleInDegrees = 270;
};
}),
(155,684,l,{
"Letterink-NibData" = {
AngleInDegrees = 180;
};
}),
(155,648,l,{
"Letterink-NibData" = {
AngleInDegrees = 90;
};
})
);
}
);
width = 636;
},
{
anchors = (
{
name = bottom;
pos = (450,-4);
},
{
name = top;
pos = (453,684);
}
);
hints = (
{
name = _corner.caps_swash;
origin = (1,2);
type = Corner;
}
);
layerId = m004;
shapes = (
{
closed = 1;
nodes = (
(364,0,l),
(364,334,l,{
"Letterink-NibData" = {
AngleInDegrees = "90";
};
}),
(293,263,l,{
"Letterink-NibData" = {
AngleInDegrees = "90";
};
}),
(584,263,l),
(584,411,l,{
"Letterink-NibData" = {
AngleInDegrees = "270";
};
}),
(293,411,l),
(364,340,l),
(364,499,l,{
"Letterink-NibData" = {
AngleInDegrees = "90";
};
}),
(198,499,l),
(198,0,l,{
"Letterink-NibData" = {
AngleInDegrees = "90";
};
})
);
},
{
closed = 1;
nodes = (
(670,536,l),
(670,684,l,{
"Letterink-NibData" = {
AngleInDegrees = "270";
};
}),
(198,684,l,{
"Letterink-NibData" = {
AngleInDegrees = "180";
};
}),
(198,536,l)
);
}
);
width = 702;
}
);
metricLeft = E.swsh;
metricRight = F;
userData = {
position = 129;
width = 61;
};
},
{
glyphname = G;
kernLeft = O;
kernRight = O;
layers = (
{
anchors = (
{
name = bottom;
pos = (383,-9);
},
{
name = top;
pos = (383,689);
}
);
background = {
shapes = (
{
closed = 1;
nodes = (
(581,-25,o),
(727,126,o),
(727,326,cs),
(727,355,ls),
(727,548,o),
(575,702,o),
(385,702,cs,{
"Letterink-NibData" = {
AngleInDegrees = "270";
};
}),
(195,702,o),
(44,548,o),
(44,355,cs,{
"Letterink-NibData" = {
AngleInDegrees = "180";
};
}),
(44,326,ls,{
"Letterink-NibData" = {
AngleInDegrees = "180";
};
}),
(44,126,o),
(188,-19,o),
(389,-22,cs,{
"Letterink-NibData" = {
AngleInDegrees = "90.89517371732774";
};
})
);
},
{
closed = 1;
nodes = (
(238,54,o),
(126,170,o),
(126,326,cs),
(126,355,ls),
(126,504,o),
(240,626,o),
(384,626,cs,{
"Letterink-NibData" = {
AngleInDegrees = "90";
};
}),
(530,626,o),
(645,504,o),
(645,355,cs,{
"Letterink-NibData" = {
AngleInDegrees = "180";
};
}),
(645,326,ls,{
"Letterink-NibData" = {
AngleInDegrees = "180";
};
}),
(645,170,o),
(533,54,o),
(386,54,cs,{
"Letterink-NibData" = {
AngleInDegrees = "270";
};
})
);
}
);
};
layerId = "0CAF3BED-C4AC-4024-B3E1-4C69D1EF7EC0";
shapes = (
{
closed = 1;
nodes = (
(599,-21,o),
(707,136,o),
(701,332,cs),
(701,342,l),
(385,342,l),
(385,272,l),
(664,272,l),
(623,303,l),
(626,158,o),
(552,55,o),
(401,55,cs),
(246,55,o),
(129,164,o),
(129,339,cs),
(129,504,o),
(244,627,o),
(397,627,cs),
(529,627,o),
(575,575,o),
(575,541,cs),
(575,527,o),
(566,508,o),
(549,508,cs),
(543,508,o),
(534,509,o),
(526,514,c),
(486,454,l),
(508,439,o),
(531,434,o),
(549,434,cs),
(603,434,o),
(653,477,o),
(653,541,cs),
(653,654,o),
(531,703,o),
(397,703,cs),
(206,703,o),
(49,539,o),
(49,339,cs),
(49,127,o),
(200,-21,o),
(401,-21,cs)
);
}
);
width = 749;
},
{
anchors = (
{
name = bottom;
pos = (398,0);
},
{
name = top;
pos = (396,688);
}
);
background = {
shapes = (
{
closed = 1;
nodes = (
(594,-14,o),
(736,131,o),
(736,331,cs),
(736,350,ls),
(736,550,o),
(588,702,o),
(394,702,cs,{
"Letterink-NibData" = {
AngleInDegrees = "270";
};
}),
(200,702,o),
(54,551,o),
(54,350,cs,{
"Letterink-NibData" = {
AngleInDegrees = "180";
};
}),
(54,331,ls,{
"Letterink-NibData" = {
AngleInDegrees = "180";
};
}),
(54,133,o),
(201,-14,o),
(398,-14,cs,{
"Letterink-NibData" = {
AngleInDegrees = "90";
};
})
);
},
{
closed = 1;
nodes = (
(224,24,o),
(96,156,o),
(96,331,cs),
(96,350,ls),
(96,526,o),
(225,662,o),
(393,662,cs,{
"Letterink-NibData" = {
AngleInDegrees = "90";
};
}),
(562,662,o),
(694,526,o),
(694,350,cs,{
"Letterink-NibData" = {
AngleInDegrees = "180";
};
}),
(694,331,ls,{
"Letterink-NibData" = {
AngleInDegrees = "180";
};
}),
(694,156,o),
(565,24,o),
(395,24,cs,{
"Letterink-NibData" = {
AngleInDegrees = "270";
};
})
);
}
);
};
layerId = "49C16FD3-6177-408B-A733-AEB3898BB77C";
shapes = (
{
closed = 1;
nodes = (
(582,-14,o),
(705,118,o),
(705,311,cs),
(705,330,l),
(415,330,l),
(415,292,l),
(687,292,l),
(668,311,l),
(663,135,o),
(561,25,o),
(404,25,cs),
(217,25,o),
(99,153,o),
(99,340,cs),
(99,528,o),
(230,658,o),
(396,658,cs),
(540,658,o),
(611,585,o),
(612,538,cs),
(613,514,o),
(597,485,o),
(568,485,cs),
(557,485,o),
(545,488,o),
(536,494,c),
(514,463,l),
(533,449,o),
(553,446,o),
(568,446,cs),
(609,446,o),
(650,484,o),
(650,538,cs),
(650,620,o),
(550,696,o),
(396,696,cs),
(214,696,o),
(61,555,o),
(61,340,cs),
(61,130,o),
(201,-14,o),
(404,-14,cs)
);
}
);
width = 764;
},
{
anchors = (
{
name = bottom;
pos = (392,-35);
},
{
name = top;
pos = (402,683);
}
);
associatedMasterId = "49C16FD3-6177-408B-A733-AEB3898BB77C";
layerId = "D0E3D1AC-81E4-4FC2-A1B9-BDF5A86A417E";
name = "3 Jan 22, 15:37";
shapes = (
{
closed = 1;
nodes = (
(537,-20,o),
(678,85,o),
(678,253,c),
(678,296,l,{
"Letterink-NibData" = {
AngleInDegrees = 270;
};
}),
(636,296,l,{
"Letterink-NibData" = {
AngleInDegrees = 180;
};
}),
(636,251,l,{
"Letterink-NibData" = {
AngleInDegrees = 180;
};
}),
(636,124,o),
(523,20,o),
(392,20,cs,{
"Letterink-NibData" = {
AngleInDegrees = 270;
};
}),
(227,20,o),
(103,157,o),
(103,329,cs),
(103,504,o),
(232,658,o),
(402,658,cs,{
"Letterink-NibData" = {
AngleInDegrees = 90;
};
}),
(466,658,o),
(587,637,o),
(587,563,cs,{
"Letterink-NibData" = {
AngleInDegrees = 180;
};
}),
(587,537,o),
(570,514,o),
(547,514,cs,{
"Letterink-NibData" = {
AngleInDegrees = 270;
};
}),
(537,514,o),
(529,518,o),
(524,524,c,{
"Letterink-NibData" = {
AngleInDegrees = 218.23383;
};
}),
(498,491,l,{
"Letterink-NibData" = {
AngleInDegrees = 138.36646;
};
}),
(506,482,o),
(524,473,o),
(546,473,cs,{
"Letterink-NibData" = {
AngleInDegrees = 90;
};
}),
(594,473,o),
(628,509,o),
(628,563,cs),
(628,669,o),
(486,698,o),
(401,698,cs,{
"Letterink-NibData" = {
AngleInDegrees = 270;
};
}),
(203,698,o),
(61,531,o),
(61,330,cs,{
"Letterink-NibData" = {
AngleInDegrees = 180;
};
}),
(61,138,o),
(198,-20,o),
(392,-20,cs,{
"Letterink-NibData" = {
AngleInDegrees = 90;
};
})
);
},
{
closed = 1;
nodes = (
(678,293,l),
(678,335,l,{
"Letterink-NibData" = {
AngleInDegrees = 270;
};
}),
(387,335,l,{
"Letterink-NibData" = {
AngleInDegrees = 180;
};
}),
(387,293,l,{
"Letterink-NibData" = {
AngleInDegrees = 90;
};
})
);
}
);
width = 735;
},
{
anchors = (
{
name = bottom;
pos = (390,-16);
},
{
name = top;
pos = (393,684);
}
);
associatedMasterId = "0CAF3BED-C4AC-4024-B3E1-4C69D1EF7EC0";
layerId = "801CC91F-0C96-44A6-9720-FE52325A0B43";
name = "3 Jan 22, 15:45";
shapes = (
{
closed = 1;
nodes = (
(541,-13,o),
(683,104,o),
(683,271,cs),
(683,319,l,{
"Letterink-NibData" = {
AngleInDegrees = 270;
};
}),
(600,319,l,{
"Letterink-NibData" = {
AngleInDegrees = 178.85424;
};
}),
(601,269,l,{
"Letterink-NibData" = {
AngleInDegrees = 180.96286;
};
}),
(599,150,o),
(504,63,o),
(390,63,cs,{
"Letterink-NibData" = {
AngleInDegrees = 270;
};
}),
(245,63,o),
(135,176,o),
(135,342,cs),
(135,497,o),
(245,620,o),
(399,620,cs,{
"Letterink-NibData" = {
AngleInDegrees = 90;
};
}),
(456,620,o),
(558,599,o),
(558,544,cs,{
"Letterink-NibData" = {
AngleInDegrees = 180;
};
}),
(558,530,o),
(551,518,o),
(537,517,cs,{
"Letterink-NibData" = {
AngleInDegrees = 264.28941;
};
}),
(527,516,o),
(517,523,o),
(511,528,c,{
"Letterink-NibData" = {
AngleInDegrees = 218.90414;
};
}),
(465,471,l,{
"Letterink-NibData" = {
AngleInDegrees = 136.54816;
};
}),
(483,452,o),
(511,442,o),
(536,442,cs,{
"Letterink-NibData" = {
AngleInDegrees = 90;
};
}),
(591,442,o),
(635,488,o),
(635,547,cs),
(635,656,o),
(481,696,o),
(398,696,cs,{
"Letterink-NibData" = {
AngleInDegrees = 270;
};
}),
(205,696,o),
(53,539,o),
(53,343,cs,{
"Letterink-NibData" = {
AngleInDegrees = 180;
};
}),
(53,141,o),
(196,-13,o),
(390,-13,cs,{
"Letterink-NibData" = {
AngleInDegrees = 90;
};
})
);
},
{
closed = 1;
nodes = (
(683,280,l),
(683,356,l,{
"Letterink-NibData" = {
AngleInDegrees = 270;
};
}),
(364,356,l,{
"Letterink-NibData" = {
AngleInDegrees = 180;
};
}),
(364,280,l,{
"Letterink-NibData" = {
AngleInDegrees = 90;
};
})
);
}
);
width = 734;
},
{
anchors = (
{
name = bottom;
pos = (390,-16);
},
{
name = top;
pos = (393,684);
}
);
associatedMasterId = "0CAF3BED-C4AC-4024-B3E1-4C69D1EF7EC0";
layerId = "F3CD14B1-1EDD-434D-B368-A4692BE06C00";
name = "5 Jan 22, 08:08";
shapes = (
{
attr = {
strokeHeight = 74;
strokeWidth = 80;
};
closed = 0;
nodes = (
(515,478,l,{
"Letterink-NibData" = {
AngleInDegrees = 116.56505;
};
}),
(525,473,o),
(534,471,o),
(543,471,cs,{
"Letterink-NibData" = {
AngleInDegrees = 90;
};
}),
(587,471,o),
(608,511,o),
(608,546,cs),
(608,617,o),
(519,674,o),
(391,668,cs,{
"Letterink-NibData" = {
AngleInDegrees = 267.25739;
};
}),
(224,660,o),
(90,522,o),
(90,334,cs,{
"Letterink-NibData" = {
AngleInDegrees = 180;
};
}),
(90,144,o),
(227,4,o),
(408,15,cs,{
"Letterink-NibData" = {
AngleInDegrees = 86.30861;
};
}),
(563,25,o),
(648,137,o),
(648,281,c,{
"Letterink-NibData" = {
AngleInDegrees = 358.26429;
};
}),
(647,314,l,{
"Letterink-NibData" = {
AngleInDegrees = 270.21221;
};
}),
(377,315,l,{
"Letterink-NibData" = {
AngleInDegrees = 270.21221;
};
})
);
}
);
width = 734;
},
{
anchors = (
{
name = bottom;
pos = (392,-35);
},
{
name = top;
pos = (402,683);
}
);
associatedMasterId = "49C16FD3-6177-408B-A733-AEB3898BB77C";
background = {
shapes = (
{
closed = 1;
nodes = (
(540,-19,o),
(678,85,o),
(678,253,c),
(678,296,l),
(636,296,l),
(636,251,l),
(636,124,o),
(523,20,o),
(392,20,cs),
(227,20,o),
(103,157,o),
(103,329,cs),
(103,504,o),
(232,658,o),
(402,658,cs),
(466,658,o),
(587,637,o),
(587,563,cs),
(587,537,o),
(570,514,o),
(547,514,cs),
(537,514,o),
(529,518,o),
(524,524,c),
(498,491,l),
(506,482,o),
(524,473,o),
(546,473,cs),
(594,473,o),
(628,509,o),
(628,563,cs),
(628,669,o),
(486,698,o),
(401,698,cs),
(203,698,o),
(61,531,o),
(61,330,cs),
(61,138,o),
(198,-21,o),
(392,-20,cs)
);
}
);
};
layerId = "F0F46AC2-3B0D-4489-B32E-B81CEA10F2A9";
name = "5 Jan 22, 08:18";
shapes = (
{
attr = {
strokeHeight = 38;
strokeWidth = 42;
};
closed = 0;
nodes = (
(518,484,l,{
"Letterink-NibData" = {
AngleInDegrees = 116.56505;
};
}),
(528,479,o),
(537,477,o),
(547,477,cs,{
"Letterink-NibData" = {
AngleInDegrees = 90;
};
}),
(591,477,o),
(613,519,o),
(613,556,cs),
(613,630,o),
(522,690,o),
(391,683,cs,{
"Letterink-NibData" = {
AngleInDegrees = 267.30572;
};
}),
(221,675,o),
(84,530,o),
(84,334,cs,{
"Letterink-NibData" = {
AngleInDegrees = 180;
};
}),
(84,135,o),
(224,-12,o),
(404,0,cs,{
"Letterink-NibData" = {
AngleInDegrees = 86.48932;
};
}),
(567,10,o),
(654,127,o),
(654,278,c,{
"Letterink-NibData" = {
AngleInDegrees = 358.36342;
};
}),
(653,313,l,{
"Letterink-NibData" = {
AngleInDegrees = 270.20759;
};
}),
(377,314,l,{
"Letterink-NibData" = {
AngleInDegrees = 270.20759;
};
})
);
}
);
width = 735;
},
{
anchors = (
{
name = bottom;
pos = (384,-10);
},
{
name = top;
pos = (384,703);
}
);
background = {
shapes = (
{
closed = 1;
nodes = (
(592,-25,o),
(738,126,o),
(738,326,cs),
(738,355,ls),
(738,548,o),
(586,702,o),
(396,702,cs,{
"Letterink-NibData" = {
AngleInDegrees = "270";
};
}),
(206,702,o),
(55,548,o),
(55,355,cs,{
"Letterink-NibData" = {
AngleInDegrees = "180";
};
}),
(55,326,ls,{
"Letterink-NibData" = {
AngleInDegrees = "180";
};
}),
(55,126,o),
(199,-19,o),
(400,-22,cs,{
"Letterink-NibData" = {
AngleInDegrees = "90.89517371732774";
};
})
);
},
{
closed = 1;
nodes = (
(249,54,o),
(137,170,o),
(137,326,cs),
(137,355,ls),
(137,504,o),
(251,626,o),
(395,626,cs,{
"Letterink-NibData" = {
AngleInDegrees = "90";
};
}),
(541,626,o),
(656,504,o),
(656,355,cs,{
"Letterink-NibData" = {
AngleInDegrees = "180";
};
}),
(656,326,ls,{
"Letterink-NibData" = {
AngleInDegrees = "180";
};
}),
(656,170,o),
(544,54,o),
(397,54,cs,{
"Letterink-NibData" = {
AngleInDegrees = "270";
};
})
);
}
);
};
layerId = m004;
shapes = (
{
closed = 1;
nodes = (
(599,-28,o),
(724,113,o),
(713,342,cs),
(712,362,l),
(391,362,l),
(391,224,l),
(637,224,l),
(562,285,l),
(565,183,o),
(502,120,o),
(397,120,cs),
(275,120,o),
(197,204,o),
(197,333,cs),
(197,472,o),
(281,565,o),
(406,565,cs),
(467,565,o),
(531,541,o),
(531,513,cs),
(531,506,o),
(527,502,o),
(520,502,cs),
(512,502,o),
(509,505,o),
(504,509,c),
(436,419,l),
(458,397,o),
(490,385,o),
(525,385,cs),
(605,385,o),
(670,448,o),
(670,525,cs),
(670,632,o),
(554,713,o),
(401,713,cs),
(187,713,o),
(32,554,o),
(32,335,cs),
(32,124,o),
(179,-28,o),
(384,-28,cs)
);
}
);
width = 745;
},
{
anchors = (
{
name = bottom;
pos = (390,-16);
},
{
name = top;
pos = (393,684);
}
);
associatedMasterId = m004;
layerId = "0E9EACE4-EA9D-4B48-AA91-148DF9A2A64E";
name = "3 Jan 22, 15:45";
shapes = (
{
closed = 1;
nodes = (
(541,-13,o),
(683,104,o),
(683,271,cs),
(683,319,l,{
"Letterink-NibData" = {
AngleInDegrees = 270;
};
}),
(600,319,l,{
"Letterink-NibData" = {
AngleInDegrees = 178.85424;
};
}),
(601,269,l,{
"Letterink-NibData" = {
AngleInDegrees = 180.96286;
};
}),
(599,150,o),
(504,63,o),
(390,63,cs,{
"Letterink-NibData" = {
AngleInDegrees = 270;
};
}),
(245,63,o),
(135,176,o),
(135,342,cs),
(135,497,o),
(245,620,o),
(399,620,cs,{
"Letterink-NibData" = {
AngleInDegrees = 90;
};
}),
(456,620,o),
(558,599,o),
(558,544,cs,{
"Letterink-NibData" = {
AngleInDegrees = 180;
};
}),
(558,530,o),
(551,518,o),
(537,517,cs,{
"Letterink-NibData" = {
AngleInDegrees = 264.28941;
};
}),
(527,516,o),
(517,523,o),
(511,528,c,{
"Letterink-NibData" = {
AngleInDegrees = 218.90414;
};
}),
(465,471,l,{
"Letterink-NibData" = {
AngleInDegrees = 136.54816;
};
}),
(483,452,o),
(511,442,o),
(536,442,cs,{
"Letterink-NibData" = {
AngleInDegrees = 90;
};
}),
(591,442,o),
(635,488,o),
(635,547,cs),
(635,656,o),
(481,696,o),
(398,696,cs,{
"Letterink-NibData" = {
AngleInDegrees = 270;
};
}),
(205,696,o),
(53,539,o),
(53,343,cs,{
"Letterink-NibData" = {
AngleInDegrees = 180;
};
}),
(53,141,o),
(196,-13,o),
(390,-13,cs,{
"Letterink-NibData" = {
AngleInDegrees = 90;
};
})
);
},
{
closed = 1;
nodes = (
(683,280,l),
(683,356,l,{
"Letterink-NibData" = {
AngleInDegrees = 270;
};
}),
(364,356,l,{
"Letterink-NibData" = {
AngleInDegrees = 180;
};
}),
(364,280,l,{
"Letterink-NibData" = {
AngleInDegrees = 90;
};
})
);
}
);
width = 734;
},
{
anchors = (
{
name = bottom;
pos = (390,-16);
},
{
name = top;
pos = (393,684);
}
);
associatedMasterId = m004;
layerId = "E2560365-B553-4320-8997-4873FFE2CB5E";
name = "5 Jan 22, 08:08";
shapes = (
{
attr = {
strokeHeight = 74;
strokeWidth = 80;
};
closed = 0;
nodes = (
(515,478,l,{
"Letterink-NibData" = {
AngleInDegrees = 116.56505;
};
}),
(525,473,o),
(534,471,o),
(543,471,cs,{
"Letterink-NibData" = {
AngleInDegrees = 90;
};
}),
(587,471,o),
(608,511,o),
(608,546,cs),
(608,617,o),
(519,674,o),
(391,668,cs,{
"Letterink-NibData" = {
AngleInDegrees = 267.25739;
};
}),
(224,660,o),
(90,522,o),
(90,334,cs,{
"Letterink-NibData" = {
AngleInDegrees = 180;
};
}),
(90,144,o),
(227,4,o),
(408,15,cs,{
"Letterink-NibData" = {
AngleInDegrees = 86.30861;
};
}),
(563,25,o),
(648,137,o),
(648,281,c,{
"Letterink-NibData" = {
AngleInDegrees = 358.26429;
};
}),
(647,314,l,{
"Letterink-NibData" = {
AngleInDegrees = 270.21221;
};
}),
(377,315,l,{
"Letterink-NibData" = {
AngleInDegrees = 270.21221;
};
})
);
}
);
width = 734;
}
);
metricLeft = O;
metricRight = "=O*.975";
note = "Bold: 98/95.5%";
unicode = 71;
userData = {
position = 593;
width = 57;
};
},
{
glyphname = G.ss01;
kernLeft = O;
kernRight = O;
layers = (
{
anchors = (
{
name = bottom;
pos = (394,-6);
},
{
name = top;
pos = (391,691);
}
);
background = {
shapes = (
{
closed = 1;
nodes = (
(578,-25,o),
(724,126,o),
(724,326,cs),
(724,355,ls),
(724,548,o),
(572,702,o),
(382,702,cs,{
"Letterink-NibData" = {
AngleInDegrees = "270";
};
}),
(192,702,o),
(41,548,o),
(41,355,cs,{
"Letterink-NibData" = {
AngleInDegrees = "180";
};
}),
(41,326,ls,{
"Letterink-NibData" = {
AngleInDegrees = "180";
};
}),
(41,126,o),
(185,-19,o),
(386,-22,cs,{
"Letterink-NibData" = {
AngleInDegrees = "90.89517371732774";
};
})
);
},
{
closed = 1;
nodes = (
(235,54,o),
(123,170,o),
(123,326,cs),
(123,355,ls),
(123,504,o),
(237,626,o),
(381,626,cs,{
"Letterink-NibData" = {
AngleInDegrees = "90";
};
}),
(527,626,o),
(642,504,o),
(642,355,cs,{
"Letterink-NibData" = {
AngleInDegrees = "180";
};
}),
(642,326,ls,{
"Letterink-NibData" = {
AngleInDegrees = "180";
};
}),
(642,170,o),
(530,54,o),
(383,54,cs,{
"Letterink-NibData" = {
AngleInDegrees = "270";
};
})
);
}
);
};
layerId = "0CAF3BED-C4AC-4024-B3E1-4C69D1EF7EC0";
shapes = (
{
closed = 1;
nodes = (
(584,-17,o),
(710,117,o),
(710,320,cs),
(710,358,l),
(402,358,l),
(402,282,l),
(672,282,l),
(634,320,l),
(634,162,o),
(540,59,o),
(396,59,cs),
(240,59,o),
(129,178,o),
(129,345,cs),
(129,512,o),
(242,633,o),
(398,633,cs),
(497,633,o),
(579,584,o),
(601,513,c),
(673,535,l),
(643,639,o),
(531,709,o),
(397,709,cs),
(195,709,o),
(49,556,o),
(49,344,cs),
(49,133,o),
(192,-17,o),
(394,-17,cs)
);
}
);
width = 759;
},
{
anchors = (
{
name = bottom;
pos = (398,-2);
},
{
name = top;
pos = (405,694);
}
);
background = {
shapes = (
{
closed = 1;
nodes = (
(589,-14,o),
(731,131,o),
(731,331,cs),
(731,350,ls),
(731,550,o),
(583,702,o),
(389,702,cs,{
"Letterink-NibData" = {
AngleInDegrees = "270";
};
}),
(195,702,o),
(49,551,o),
(49,350,cs,{
"Letterink-NibData" = {
AngleInDegrees = "180";
};
}),
(49,331,ls,{
"Letterink-NibData" = {
AngleInDegrees = "180";
};
}),
(49,133,o),
(196,-14,o),
(393,-14,cs,{
"Letterink-NibData" = {
AngleInDegrees = "90";
};
})
);
},
{
closed = 1;
nodes = (
(219,24,o),
(91,156,o),
(91,331,cs),
(91,350,ls),
(91,526,o),
(220,662,o),
(388,662,cs,{
"Letterink-NibData" = {
AngleInDegrees = "90";
};
}),
(557,662,o),
(689,526,o),
(689,350,cs,{
"Letterink-NibData" = {
AngleInDegrees = "180";
};
}),
(689,331,ls,{
"Letterink-NibData" = {
AngleInDegrees = "180";
};
}),
(689,156,o),
(560,24,o),
(390,24,cs,{
"Letterink-NibData" = {
AngleInDegrees = "270";
};
})
);
}
);
};
layerId = "49C16FD3-6177-408B-A733-AEB3898BB77C";
shapes = (
{
closed = 1;
nodes = (
(586,-12,o),
(707,120,o),
(707,319,cs),
(707,336,l),
(407,336,l),
(407,303,l),
(691,303,l),
(674,319,l),
(674,141,o),
(564,22,o),
(403,22,cs),
(228,22,o),
(99,152,o),
(99,339,cs),
(99,535,o),
(231,665,o),
(405,665,cs),
(534,665,o),
(616,595,o),
(638,524,c),
(670,535,l),
(641,625,o),
(542,699,o),
(405,699,cs),
(212,699,o),
(61,557,o),
(61,339,cs),
(61,132,o),
(205,-12,o),
(403,-12,cs)
);
}
);
width = 768;
},
{
anchors = (
{
name = bottom;
pos = (386,0);
},
{
name = top;
pos = (401,684);
}
);
associatedMasterId = "49C16FD3-6177-408B-A733-AEB3898BB77C";
layerId = "96951EB1-18FB-4FDF-9014-B6300BAB0AB6";
name = "3 Jan 22, 15:40";
shapes = (
{
closed = 1;
nodes = (
(542,-15,o),
(675,97,o),
(675,285,cs),
(675,343,l,{
"Letterink-NibData" = {
AngleInDegrees = 270;
};
}),
(633,343,l,{
"Letterink-NibData" = {
AngleInDegrees = 180;
};
}),
(633,273,ls,{
"Letterink-NibData" = {
AngleInDegrees = 180;
};
}),
(633,127,o),
(512,25,o),
(391,25,cs,{
"Letterink-NibData" = {
AngleInDegrees = 270;
};
}),
(209,25,o),
(104,154,o),
(104,331,cs),
(104,508,o),
(231,656,o),
(401,656,cs,{
"Letterink-NibData" = {
AngleInDegrees = 90;
};
}),
(470,656,o),
(577,625,o),
(584,557,c,{
"Letterink-NibData" = {
AngleInDegrees = 88.60282;
};
}),
(625,558,l,{
"Letterink-NibData" = {
AngleInDegrees = 356.1432;
};
}),
(619,647,o),
(507,696,o),
(403,696,cs,{
"Letterink-NibData" = {
AngleInDegrees = 270;
};
}),
(207,696,o),
(62,537,o),
(62,332,cs,{
"Letterink-NibData" = {
AngleInDegrees = 180;
};
}),
(62,131,o),
(179,-15,o),
(387,-15,cs,{
"Letterink-NibData" = {
AngleInDegrees = 90;
};
})
);
},
{
closed = 1;
nodes = (
(675,303,l),
(675,343,l,{
"Letterink-NibData" = {
AngleInDegrees = 270;
};
}),
(384,343,l,{
"Letterink-NibData" = {
AngleInDegrees = 180;
};
}),
(384,303,l,{
"Letterink-NibData" = {
AngleInDegrees = 90;
};
})
);
}
);
width = 730;
},
{
anchors = (
{
name = bottom;
pos = (387,0);
},
{
name = top;
pos = (401,684);
}
);
associatedMasterId = "0CAF3BED-C4AC-4024-B3E1-4C69D1EF7EC0";
layerId = "B969E5E4-86DE-47F2-A424-5DC87FFFE71B";
name = "5 Jan 22, 08:26";
shapes = (
{
attr = {
strokeHeight = 74;
strokeWidth = 80;
};
closed = 0;
nodes = (
(618,528,ls,{
"Letterink-NibData" = {
AngleInDegrees = 356.63354;
};
}),
(613,613,o),
(519,675,o),
(391,669,cs,{
"Letterink-NibData" = {
AngleInDegrees = 267.25739;
};
}),
(224,661,o),
(90,523,o),
(90,331,cs,{
"Letterink-NibData" = {
AngleInDegrees = 180;
};
}),
(90,145,o),
(222,15,o),
(403,15,c,{
"Letterink-NibData" = {
AngleInDegrees = 86.42367;
};
}),
(563,25,o),
(648,137,o),
(648,281,c,{
"Letterink-NibData" = {
AngleInDegrees = 358.26429;
};
}),
(647,314,l,{
"Letterink-NibData" = {
AngleInDegrees = 270.21221;
};
}),
(377,315,l,{
"Letterink-NibData" = {
AngleInDegrees = 270.21221;
};
})
);
}
);
width = 730;
},
{
anchors = (
{
name = bottom;
pos = (387,-27);
},
{
name = top;
pos = (387,721);
}
);
associatedMasterId = "49C16FD3-6177-408B-A733-AEB3898BB77C";
background = {
shapes = (
{
closed = 1;
nodes = (
(542,-15,o),
(675,97,o),
(675,285,cs),
(675,343,l),
(633,343,l),
(633,273,ls),
(633,127,o),
(512,25,o),
(391,25,cs),
(209,25,o),
(104,154,o),
(104,331,cs),
(104,508,o),
(231,656,o),
(401,656,cs),
(470,656,o),
(577,625,o),
(584,557,c),
(625,558,l),
(619,647,o),
(507,696,o),
(403,696,cs),
(207,696,o),
(62,537,o),
(62,332,cs),
(62,131,o),
(179,-15,o),
(387,-15,cs)
);
},
{
closed = 1;
nodes = (
(675,303,l),
(675,343,l),
(384,343,l),
(384,303,l)
);
}
);
};
layerId = "AFEECE5E-BFEE-4508-863A-E5AFB845FDE7";
name = "5 Jan 22, 08:33";
shapes = (
{
attr = {
strokeHeight = 38;
strokeWidth = 42;
};
closed = 0;
nodes = (
(623,537,ls,{
"Letterink-NibData" = {
AngleInDegrees = 356.78451;
};
}),
(618,626,o),
(522,691,o),
(391,684,cs,{
"Letterink-NibData" = {
AngleInDegrees = 267.30572;
};
}),
(221,676,o),
(84,532,o),
(84,330,cs,{
"Letterink-NibData" = {
AngleInDegrees = 180;
};
}),
(84,136,o),
(219,0,o),
(409,0,c,{
"Letterink-NibData" = {
AngleInDegrees = 86.37852;
};
}),
(567,10,o),
(654,127,o),
(654,278,c,{
"Letterink-NibData" = {
AngleInDegrees = 358.36342;
};
}),
(653,313,l,{
"Letterink-NibData" = {
AngleInDegrees = 270.20759;
};
}),
(377,314,l,{
"Letterink-NibData" = {
AngleInDegrees = 270.20759;
};
})
);
}
);
width = 730;
},
{
anchors = (
{
name = bottom;
pos = (378,-12);
},
{
name = top;
pos = (392,698);
}
);
background = {
shapes = (
{
closed = 1;
nodes = (
(589,-25,o),
(735,126,o),
(735,326,cs),
(735,355,ls),
(735,548,o),
(583,702,o),
(393,702,cs,{
"Letterink-NibData" = {
AngleInDegrees = "270";
};
}),
(203,702,o),
(52,548,o),
(52,355,cs,{
"Letterink-NibData" = {
AngleInDegrees = "180";
};
}),
(52,326,ls,{
"Letterink-NibData" = {
AngleInDegrees = "180";
};
}),
(52,126,o),
(196,-19,o),
(397,-22,cs,{
"Letterink-NibData" = {
AngleInDegrees = "90.89517371732774";
};
})
);
},
{
closed = 1;
nodes = (
(246,54,o),
(134,170,o),
(134,326,cs),
(134,355,ls),
(134,504,o),
(248,626,o),
(392,626,cs,{
"Letterink-NibData" = {
AngleInDegrees = "90";
};
}),
(538,626,o),
(653,504,o),
(653,355,cs,{
"Letterink-NibData" = {
AngleInDegrees = "180";
};
}),
(653,326,ls,{
"Letterink-NibData" = {
AngleInDegrees = "180";
};
}),
(653,170,o),
(541,54,o),
(394,54,cs,{
"Letterink-NibData" = {
AngleInDegrees = "270";
};
})
);
}
);
};
layerId = m004;
shapes = (
{
closed = 1;
nodes = (
(586,-31,o),
(723,116,o),
(723,340,c),
(723,387,l),
(406,387,l),
(406,239,l),
(649,239,l),
(575,313,l),
(575,193,o),
(509,117,o),
(394,117,cs),
(277,117,o),
(197,201,o),
(197,338,cs),
(197,467,o),
(275,565,o),
(398,565,cs),
(477,565,o),
(530,522,o),
(541,485,c),
(683,527,l),
(648,648,o),
(527,713,o),
(394,713,cs),
(187,713,o),
(32,559,o),
(32,340,cs),
(32,118,o),
(183,-31,o),
(384,-31,cs)
);
}
);
width = 755;
},
{
anchors = (
{
name = bottom;
pos = (387,0);
},
{
name = top;
pos = (401,684);
}
);
associatedMasterId = m004;
layerId = "2166FA3C-D590-4885-A8B0-B32BF30CBC31";
name = "5 Jan 22, 08:26";
shapes = (
{
attr = {
strokeHeight = 74;
strokeWidth = 80;
};
closed = 0;
nodes = (
(618,528,ls,{
"Letterink-NibData" = {
AngleInDegrees = 356.63354;
};
}),
(613,613,o),
(519,675,o),
(391,669,cs,{
"Letterink-NibData" = {
AngleInDegrees = 267.25739;
};
}),
(224,661,o),
(90,523,o),
(90,331,cs,{
"Letterink-NibData" = {
AngleInDegrees = 180;
};
}),
(90,145,o),
(222,15,o),
(403,15,c,{
"Letterink-NibData" = {
AngleInDegrees = 86.42367;
};
}),
(563,25,o),
(648,137,o),
(648,281,c,{
"Letterink-NibData" = {
AngleInDegrees = 358.26429;
};
}),
(647,314,l,{
"Letterink-NibData" = {
AngleInDegrees = 270.21221;
};
}),
(377,315,l,{
"Letterink-NibData" = {
AngleInDegrees = 270.21221;
};
})
);
}
);
width = 730;
}
);
metricLeft = O;
metricRight = O;
userData = {
position = 593;
width = 57;
};
},
{
glyphname = G.swsh;
kernLeft = O;
kernRight = O;
layers = (
{
layerId = "0CAF3BED-C4AC-4024-B3E1-4C69D1EF7EC0";
shapes = (
{
closed = 1;
nodes = (
(627,-266,o),
(694,-216,o),
(694,-110,cs),
(694,342,l),
(617,342,l),
(617,-110,ls),
(617,-156,o),
(596,-190,o),
(556,-190,cs),
(536,-190,o),
(513,-177,o),
(501,-153,c),
(433,-187,l),
(457,-235,o),
(504,-266,o),
(556,-266,cs)
);
},
{
ref = G;
}
);
width = 749;
},
{
layerId = "49C16FD3-6177-408B-A733-AEB3898BB77C";
shapes = (
{
closed = 1;
nodes = (
(646,-278,o),
(705,-232,o),
(705,-137,cs),
(705,318,l),
(666,318,l),
(666,-137,ls),
(666,-198,o),
(630,-236,o),
(582,-236,cs),
(552,-236,o),
(524,-219,o),
(509,-188,c),
(471,-208,l),
(494,-251,o),
(536,-278,o),
(582,-278,cs)
);
},
{
ref = G;
}
);
width = 764;
},
{
anchors = (
{
name = bottom;
pos = (393,0);
},
{
name = top;
pos = (402,684);
}
);
associatedMasterId = "49C16FD3-6177-408B-A733-AEB3898BB77C";
layerId = "99324C05-2E3B-491C-BB33-A281431388C0";
name = "3 Jan 22, 15:43";
shapes = (
{
closed = 1;
nodes = (
(632,-275,o),
(677,-247,o),
(677,-188,cs),
(677,296,l,{
"Letterink-NibData" = {
AngleInDegrees = 270;
};
}),
(635,296,l,{
"Letterink-NibData" = {
AngleInDegrees = 180;
};
}),
(635,231,l,{
"Letterink-NibData" = {
AngleInDegrees = 189.05072;
};
}),
(617,118,o),
(524,19,o),
(389,19,cs,{
"Letterink-NibData" = {
AngleInDegrees = 270;
};
}),
(229,19,o),
(103,157,o),
(103,331,cs),
(103,504,o),
(226,661,o),
(399,661,cs,{
"Letterink-NibData" = {
AngleInDegrees = 90;
};
}),
(467,661,o),
(588,637,o),
(588,563,cs,{
"Letterink-NibData" = {
AngleInDegrees = 180;
};
}),
(588,537,o),
(571,514,o),
(548,514,cs,{
"Letterink-NibData" = {
AngleInDegrees = 270;
};
}),
(542,514,o),
(535,516,o),
(528,519,c,{
"Letterink-NibData" = {
AngleInDegrees = 218.23383;
};
}),
(502,486,l,{
"Letterink-NibData" = {
AngleInDegrees = 122.73523;
};
}),
(516,477,o),
(531,473,o),
(547,473,cs,{
"Letterink-NibData" = {
AngleInDegrees = 90;
};
}),
(595,473,o),
(629,509,o),
(629,562,cs),
(629,670,o),
(485,701,o),
(402,701,cs,{
"Letterink-NibData" = {
AngleInDegrees = 270;
};
}),
(204,701,o),
(61,530,o),
(61,333,cs,{
"Letterink-NibData" = {
AngleInDegrees = 180;
};
}),
(61,137,o),
(202,-21,o),
(385,-21,cs,{
"Letterink-NibData" = {
AngleInDegrees = 90;
};
}),
(490,-21,o),
(597,31,o),
(635,124,c,{
"Letterink-NibData" = {
AngleInDegrees = 180;
};
}),
(635,-188,l,{
"Letterink-NibData" = {
AngleInDegrees = 186.00901;
};
}),
(633,-207,o),
(619,-229,o),
(592,-229,cs,{
"Letterink-NibData" = {
AngleInDegrees = 270;
};
}),
(579,-229,o),
(569,-224,o),
(562,-217,c,{
"Letterink-NibData" = {
AngleInDegrees = 236.65929;
};
}),
(524,-242,l,{
"Letterink-NibData" = {
AngleInDegrees = 142.69605;
};
}),
(540,-263,o),
(563,-275,o),
(591,-275,cs,{
"Letterink-NibData" = {
AngleInDegrees = 90;
};
})
);
}
);
width = 745;
},
{
anchors = (
{
name = bottom;
pos = (392,-35);
},
{
name = top;
pos = (402,683);
}
);
associatedMasterId = "49C16FD3-6177-408B-A733-AEB3898BB77C";
layerId = "993784D9-67C7-4A50-9317-88BF6374F3F5";
name = "5 Jan 22, 08:42";
shapes = (
{
closed = 1;
nodes = (
(632,-188,l,{
"Letterink-NibData" = {
AngleInDegrees = 186.00901;
};
}),
(630,-207,o),
(616,-229,o),
(589,-229,cs,{
"Letterink-NibData" = {
AngleInDegrees = 270;
};
}),
(576,-229,o),
(566,-224,o),
(559,-217,c,{
"Letterink-NibData" = {
AngleInDegrees = 236.65929;
};
}),
(521,-242,l,{
"Letterink-NibData" = {
AngleInDegrees = 142.69605;
};
}),
(537,-263,o),
(560,-275,o),
(588,-275,cs,{
"Letterink-NibData" = {
AngleInDegrees = 90;
};
}),
(629,-275,o),
(674,-247,o),
(674,-188,cs),
(674,296,l,{
"Letterink-NibData" = {
AngleInDegrees = 270;
};
}),
(632,296,l,{
"Letterink-NibData" = {
AngleInDegrees = 180;
};
})
);
},
{
ref = G;
}
);
width = 745;
},
{
anchors = (
{
name = bottom;
pos = (392,-35);
},
{
name = top;
pos = (402,683);
}
);
associatedMasterId = "49C16FD3-6177-408B-A733-AEB3898BB77C";
hints = (
{
name = _corner.caps_swash;
options = 1;
origin = (0,2);
scale = (-1,1);
type = Corner;
}
);
layerId = "A1B0A753-5F1E-49B0-BC7C-F65043380999";
name = "5 Jan 22, 08:46";
shapes = (
{
closed = 1;
nodes = (
(651,330,l,{
"Letterink-NibData" = {
AngleInDegrees = 270;
};
}),
(651,-154,l),
(693,-154,l,{
"Letterink-NibData" = {
AngleInDegrees = 186.00901;
};
}),
(693,330,l,{
"Letterink-NibData" = {
AngleInDegrees = 180;
};
})
);
},
{
ref = G;
},
{
closed = 0;
nodes = (
(344,-192,l),
(363,-228,o),
(402,-253,o),
(446,-253,cs),
(509,-253,o),
(561,-202,o),
(561,-139,cs),
(561,-139,o),
(561,-139,o),
(561,-138,cs),
(561,308,l)
);
}
);
width = 745;
},
{
anchors = (
{
name = bottom;
pos = (393,-16);
},
{
name = top;
pos = (396,689);
}
);
associatedMasterId = "0CAF3BED-C4AC-4024-B3E1-4C69D1EF7EC0";
layerId = "14C1AB9A-2353-4380-971D-F4E2C0A0EA14";
name = "5 Jan 22, 08:50";
shapes = (
{
closed = 1;
nodes = (
(605,-161,l,{
"Letterink-NibData" = {
AngleInDegrees = 180;
};
}),
(605,-174,o),
(595,-183,o),
(582,-183,cs,{
"Letterink-NibData" = {
AngleInDegrees = 270;
};
}),
(569,-183,o),
(563,-178,o),
(556,-165,c,{
"Letterink-NibData" = {
AngleInDegrees = 235.68491;
};
}),
(493,-208,l,{
"Letterink-NibData" = {
AngleInDegrees = 154.88516;
};
}),
(508,-240,o),
(544,-263,o),
(581,-263,cs,{
"Letterink-NibData" = {
AngleInDegrees = 90;
};
}),
(626,-263,o),
(685,-228,o),
(685,-162,cs),
(685,317,l,{
"Letterink-NibData" = {
AngleInDegrees = 270;
};
}),
(605,317,l,{
"Letterink-NibData" = {
AngleInDegrees = 180;
};
})
);
},
{
attr = {
strokeHeight = 74;
strokeWidth = 80;
};
closed = 0;
nodes = (
(515,478,l,{
"Letterink-NibData" = {
AngleInDegrees = 116.56505;
};
}),
(525,473,o),
(534,471,o),
(543,471,cs,{
"Letterink-NibData" = {
AngleInDegrees = 90;
};
}),
(587,471,o),
(608,511,o),
(608,546,cs),
(608,617,o),
(519,674,o),
(391,668,cs,{
"Letterink-NibData" = {
AngleInDegrees = 267.25739;
};
}),
(224,660,o),
(90,522,o),
(90,334,cs,{
"Letterink-NibData" = {
AngleInDegrees = 180;
};
}),
(90,144,o),
(227,4,o),
(408,15,cs,{
"Letterink-NibData" = {
AngleInDegrees = 86.30861;
};
}),
(563,25,o),
(648,137,o),
(648,281,c,{
"Letterink-NibData" = {
AngleInDegrees = 358.26429;
};
}),
(647,314,l,{
"Letterink-NibData" = {
AngleInDegrees = 270.21221;
};
}),
(377,315,l,{
"Letterink-NibData" = {
AngleInDegrees = 270.21221;
};
})
);
}
);
width = 749;
},
{
layerId = m004;
shapes = (
{
closed = 1;
nodes = (
(618,-262,o),
(714,-196,o),
(714,-50,cs),
(714,312,l),
(554,312,l),
(554,-50,ls),
(554,-83,o),
(547,-114,o),
(518,-114,cs),
(508,-114,o),
(489,-105,o),
(480,-87,c),
(348,-153,l),
(381,-219,o),
(444,-262,o),
(518,-262,cs)
);
},
{
ref = G;
}
);
width = 745;
},
{
anchors = (
{
name = bottom;
pos = (393,-16);
},
{
name = top;
pos = (396,689);
}
);
associatedMasterId = m004;
layerId = "1BDCECD6-6FE7-4C37-9D37-AA6D55EDC2F1";
name = "5 Jan 22, 08:50";
shapes = (
{
closed = 1;
nodes = (
(605,-161,l,{
"Letterink-NibData" = {
AngleInDegrees = 180;
};
}),
(605,-174,o),
(595,-183,o),
(582,-183,cs,{
"Letterink-NibData" = {
AngleInDegrees = 270;
};
}),
(569,-183,o),
(563,-178,o),
(556,-165,c,{
"Letterink-NibData" = {
AngleInDegrees = 235.68491;
};
}),
(493,-208,l,{
"Letterink-NibData" = {
AngleInDegrees = 154.88516;
};
}),
(508,-240,o),
(544,-263,o),
(581,-263,cs,{
"Letterink-NibData" = {
AngleInDegrees = 90;
};
}),
(626,-263,o),
(685,-228,o),
(685,-162,cs),
(685,317,l,{
"Letterink-NibData" = {
AngleInDegrees = 270;
};
}),
(605,317,l,{
"Letterink-NibData" = {
AngleInDegrees = 180;
};
})
);
},
{
attr = {
strokeHeight = 74;
strokeWidth = 80;
};
closed = 0;
nodes = (
(515,478,l,{
"Letterink-NibData" = {
AngleInDegrees = 116.56505;
};
}),
(525,473,o),
(534,471,o),
(543,471,cs,{
"Letterink-NibData" = {
AngleInDegrees = 90;
};
}),
(587,471,o),
(608,511,o),
(608,546,cs),
(608,617,o),
(519,674,o),
(391,668,cs,{
"Letterink-NibData" = {
AngleInDegrees = 267.25739;
};
}),
(224,660,o),
(90,522,o),
(90,334,cs,{
"Letterink-NibData" = {
AngleInDegrees = 180;
};
}),
(90,144,o),
(227,4,o),
(408,15,cs,{
"Letterink-NibData" = {
AngleInDegrees = 86.30861;
};
}),
(563,25,o),
(648,137,o),
(648,281,c,{
"Letterink-NibData" = {
AngleInDegrees = 358.26429;
};
}),
(647,314,l,{
"Letterink-NibData" = {
AngleInDegrees = 270.21221;
};
}),
(377,315,l,{
"Letterink-NibData" = {
AngleInDegrees = 270.21221;
};
})
);
}
);
width = 749;
}
);
metricLeft = O;
metricRight = G;
userData = {
position = 593;
width = 57;
};
},
{
glyphname = H;
kernLeft = E;
layers = (
{
anchors = (
{
name = bottom;
pos = (386,0);
},
{
name = center;
pos = (386,500);
},
{
name = top;
pos = (386,675);
},
{
name = topleft;
pos = (27,684);
}
);
hints = (
{
name = _corner.caps_vert;
origin = (0,9);
type = Corner;
}
);
layerId = "0CAF3BED-C4AC-4024-B3E1-4C69D1EF7EC0";
shapes = (
{
closed = 1;
nodes = (
(203,-1,l),
(203,319,l,{
"Letterink-NibData" = {
AngleInDegrees = 90;
};
}),
(569,319,l,{
"Letterink-NibData" = {
AngleInDegrees = 180;
};
}),
(569,-1,l,{
"Letterink-NibData" = {
AngleInDegrees = 90;
};
}),
(651,-1,l),
(651,686,l,{
"Letterink-NibData" = {
AngleInDegrees = 270;
};
}),
(569,686,l,{
"Letterink-NibData" = {
AngleInDegrees = 180;
};
}),
(569,395,l,{
"Letterink-NibData" = {
AngleInDegrees = 270;
};
}),
(203,395,l),
(203,585,l,{
"Letterink-NibData" = {
AngleInDegrees = 269.30131;
};
}),
(121,584,l,{
"Letterink-NibData" = {
AngleInDegrees = 180;
};
}),
(121,-1,l,{
"Letterink-NibData" = {
AngleInDegrees = 90;
};
})
);
}
);
width = 732;
},
{
anchors = (
{
name = bottom;
pos = (385,0);
},
{
name = center;
pos = (385,489);
},
{
name = top;
pos = (385,685);
},
{
name = topleft;
pos = (58,684);
}
);
hints = (
{
name = _corner.caps_vert;
origin = (0,9);
type = Corner;
}
);
layerId = "49C16FD3-6177-408B-A733-AEB3898BB77C";
shapes = (
{
closed = 1;
nodes = (
(172,1,l),
(172,340,l,{
"Letterink-NibData" = {
AngleInDegrees = 90;
};
}),
(600,340,l,{
"Letterink-NibData" = {
AngleInDegrees = 180;
};
}),
(600,1,l,{
"Letterink-NibData" = {
AngleInDegrees = 90;
};
}),
(637,1,l),
(637,685,l,{
"Letterink-NibData" = {
AngleInDegrees = 270;
};
}),
(600,685,l,{
"Letterink-NibData" = {
AngleInDegrees = 180;
};
}),
(600,376,l,{
"Letterink-NibData" = {
AngleInDegrees = 270;
};
}),
(172,376,l),
(172,595,l,{
"Letterink-NibData" = {
AngleInDegrees = 270;
};
}),
(134,595,l,{
"Letterink-NibData" = {
AngleInDegrees = 180;
};
}),
(134,1,l,{
"Letterink-NibData" = {
AngleInDegrees = 90;
};
})
);
}
);
width = 728;
},
{
anchors = (
{
name = bottom;
pos = (417,0);
},
{
name = center;
pos = (417,500);
},
{
name = top;
pos = (416,684);
},
{
name = topleft;
pos = (96,684);
}
);
hints = (
{
name = _corner.caps_vert;
origin = (0,9);
type = Corner;
}
);
layerId = m004;
shapes = (
{
closed = 1;
nodes = (
(299,0,l),
(299,270,l,{
"Letterink-NibData" = {
AngleInDegrees = "90";
};
}),
(544,270,l,{
"Letterink-NibData" = {
AngleInDegrees = "180";
};
}),
(544,0,l,{
"Letterink-NibData" = {
AngleInDegrees = "90";
};
}),
(709,0,l),
(709,684,l,{
"Letterink-NibData" = {
AngleInDegrees = "270";
};
}),
(544,684,l,{
"Letterink-NibData" = {
AngleInDegrees = "180";
};
}),
(544,422,l,{
"Letterink-NibData" = {
AngleInDegrees = "270";
};
}),
(299,422,l),
(299,526,l,{
"Letterink-NibData" = {
AngleInDegrees = "270";
};
}),
(134,526,l,{
"Letterink-NibData" = {
AngleInDegrees = "180";
};
}),
(134,0,l,{
"Letterink-NibData" = {
AngleInDegrees = "90";
};
})
);
}
);
width = 767;
}
);
unicode = 72;
userData = {
position = 554;
width = 61;
};
},
{
glyphname = H.ss01;
layers = (
{
anchors = (
{
name = bottom;
pos = (354,0);
},
{
name = center;
pos = (354,512);
},
{
name = top;
pos = (354,684);
},
{
name = topleft;
pos = (37,684);
}
);
layerId = "0CAF3BED-C4AC-4024-B3E1-4C69D1EF7EC0";
shapes = (
{
closed = 1;
nodes = (
(163,-1,l),
(163,318,l,{
"Letterink-NibData" = {
AngleInDegrees = 90;
};
}),
(541,318,l,{
"Letterink-NibData" = {
AngleInDegrees = 180;
};
}),
(541,-1,l,{
"Letterink-NibData" = {
AngleInDegrees = 90;
};
}),
(623,-1,l),
(623,684,l,{
"Letterink-NibData" = {
AngleInDegrees = 270;
};
}),
(541,684,l,{
"Letterink-NibData" = {
AngleInDegrees = 180;
};
}),
(541,394,l,{
"Letterink-NibData" = {
AngleInDegrees = 270;
};
}),
(163,394,l),
(163,684,l,{
"Letterink-NibData" = {
AngleInDegrees = 270;
};
}),
(81,684,l,{
"Letterink-NibData" = {
AngleInDegrees = 180;
};
}),
(81,-1,l,{
"Letterink-NibData" = {
AngleInDegrees = 90;
};
})
);
}
);
width = 704;
},
{
anchors = (
{
name = bottom;
pos = (341,0);
},
{
name = center;
pos = (343,498);
},
{
name = top;
pos = (342,684);
},
{
name = topleft;
pos = (32,684);
}
);
layerId = "49C16FD3-6177-408B-A733-AEB3898BB77C";
shapes = (
{
closed = 1;
nodes = (
(129,0,l),
(129,340,l,{
"Letterink-NibData" = {
AngleInDegrees = 90;
};
}),
(557,340,l,{
"Letterink-NibData" = {
AngleInDegrees = 180;
};
}),
(557,0,l,{
"Letterink-NibData" = {
AngleInDegrees = 90;
};
}),
(595,0,l),
(595,684,l,{
"Letterink-NibData" = {
AngleInDegrees = 270;
};
}),
(557,684,l,{
"Letterink-NibData" = {
AngleInDegrees = 180;
};
}),
(557,376,l,{
"Letterink-NibData" = {
AngleInDegrees = 270;
};
}),
(129,376,l),
(129,684,l,{
"Letterink-NibData" = {
AngleInDegrees = 270;
};
}),
(91,684,l,{
"Letterink-NibData" = {
AngleInDegrees = 180;
};
}),
(91,0,l,{
"Letterink-NibData" = {
AngleInDegrees = 90;
};
})
);
}
);
width = 686;
},
{
anchors = (
{
name = bottom;
pos = (349,0);
},
{
name = center;
pos = (350,508);
},
{
name = top;
pos = (349,684);
},
{
name = topleft;
pos = (15,684);
}
);
layerId = m004;
shapes = (
{
closed = 1;
nodes = (
(223,0,l),
(223,270,l,{
"Letterink-NibData" = {
AngleInDegrees = "90";
};
}),
(474,270,l,{
"Letterink-NibData" = {
AngleInDegrees = "180";
};
}),
(474,0,l,{
"Letterink-NibData" = {
AngleInDegrees = "90";
};
}),
(639,0,l),
(639,684,l,{
"Letterink-NibData" = {
AngleInDegrees = "270";
};
}),
(474,684,l,{
"Letterink-NibData" = {
AngleInDegrees = "180";
};
}),
(474,422,l,{
"Letterink-NibData" = {
AngleInDegrees = "270";
};
}),
(223,422,l),
(223,684,l,{
"Letterink-NibData" = {
AngleInDegrees = "270";
};
}),
(58,684,l,{
"Letterink-NibData" = {
AngleInDegrees = "180";
};
}),
(58,0,l,{
"Letterink-NibData" = {
AngleInDegrees = "90";
};
})
);
}
);
width = 697;
}
);
metricLeft = "=|H";
metricRight = H;
userData = {
position = 525;
width = 61;
};
},
{
glyphname = H.swsh;
kernLeft = Swash;
layers = (
{
anchors = (
{
name = bottom;
pos = (426,0);
},
{
name = center;
pos = (426,478);
},
{
name = top;
pos = (426,675);
},
{
name = topleft;
pos = (64,684);
}
);
hints = (
{
name = _corner.caps_swash_vert;
origin = (0,9);
type = Corner;
}
);
layerId = "0CAF3BED-C4AC-4024-B3E1-4C69D1EF7EC0";
shapes = (
{
closed = 1;
nodes = (
(250,-1,l),
(250,317,l,{
"Letterink-NibData" = {
AngleInDegrees = 90;
};
}),
(595,317,l,{
"Letterink-NibData" = {
AngleInDegrees = 180;
};
}),
(595,-1,l,{
"Letterink-NibData" = {
AngleInDegrees = 90;
};
}),
(677,-1,l),
(677,686,l,{
"Letterink-NibData" = {
AngleInDegrees = 270;
};
}),
(595,686,l,{
"Letterink-NibData" = {
AngleInDegrees = 180;
};
}),
(595,395,l,{
"Letterink-NibData" = {
AngleInDegrees = 270;
};
}),
(250,395,l),
(250,559,l,{
"Letterink-NibData" = {
AngleInDegrees = 270;
};
}),
(168,559,l,{
"Letterink-NibData" = {
AngleInDegrees = 180;
};
}),
(168,-1,l,{
"Letterink-NibData" = {
AngleInDegrees = 90;
};
})
);
}
);
width = 758;
},
{
anchors = (
{
name = bottom;
pos = (417,0);
},
{
name = center;
pos = (417,450);
},
{
name = top;
pos = (417,684);
},
{
name = topleft;
pos = (84,684);
}
);
hints = (
{
name = _corner.caps_swash_vert;
origin = (0,9);
type = Corner;
}
);
layerId = "49C16FD3-6177-408B-A733-AEB3898BB77C";
shapes = (
{
closed = 1;
nodes = (
(212,1,l),
(212,340,l,{
"Letterink-NibData" = {
AngleInDegrees = 90;
};
}),
(623,340,l,{
"Letterink-NibData" = {
AngleInDegrees = 180;
};
}),
(623,1,l,{
"Letterink-NibData" = {
AngleInDegrees = 90;
};
}),
(661,1,l),
(661,685,l,{
"Letterink-NibData" = {
AngleInDegrees = 270;
};
}),
(623,685,l,{
"Letterink-NibData" = {
AngleInDegrees = 180;
};
}),
(623,376,l,{
"Letterink-NibData" = {
AngleInDegrees = 270;
};
}),
(212,376,l),
(212,570,l,{
"Letterink-NibData" = {
AngleInDegrees = 270;
};
}),
(174,570,l,{
"Letterink-NibData" = {
AngleInDegrees = 180;
};
}),
(174,1,l,{
"Letterink-NibData" = {
AngleInDegrees = 90;
};
})
);
}
);
width = 752;
},
{
anchors = (
{
name = bottom;
pos = (468,0);
},
{
name = center;
pos = (468,512);
},
{
name = top;
pos = (468,684);
},
{
name = topleft;
pos = (143,684);
}
);
hints = (
{
name = _corner.caps_swash_vert;
origin = (0,9);
type = Corner;
}
);
layerId = m004;
shapes = (
{
closed = 1;
nodes = (
(353,-5,l),
(353,270,l,{
"Letterink-NibData" = {
AngleInDegrees = "90";
};
}),
(590,270,l,{
"Letterink-NibData" = {
AngleInDegrees = "180";
};
}),
(590,-5,l,{
"Letterink-NibData" = {
AngleInDegrees = "90";
};
}),
(755,-5,l),
(755,684,l,{
"Letterink-NibData" = {
AngleInDegrees = "270";
};
}),
(590,684,l,{
"Letterink-NibData" = {
AngleInDegrees = "180";
};
}),
(590,422,l,{
"Letterink-NibData" = {
AngleInDegrees = "270";
};
}),
(353,422,l),
(353,503,l,{
"Letterink-NibData" = {
AngleInDegrees = "270";
};
}),
(188,503,l,{
"Letterink-NibData" = {
AngleInDegrees = "180";
};
}),
(188,-5,l,{
"Letterink-NibData" = {
AngleInDegrees = "90";
};
})
);
}
);
width = 813;
}
);
metricLeft = "=H";
metricRight = H;
userData = {
position = 554;
width = 61;
};
},
{
glyphname = I;
layers = (
{
anchors = (
{
name = bottom;
pos = (122,0);
},
{
name = center;
pos = (121,340);
},
{
name = ogonek;
pos = (163,-1);
},
{
name = top;
pos = (120,684);
},
{
name = topleft;
pos = (15,684);
}
);
layerId = "0CAF3BED-C4AC-4024-B3E1-4C69D1EF7EC0";
shapes = (
{
closed = 1;
nodes = (
(163,-1,l),
(163,684,l,{
"Letterink-NibData" = {
AngleInDegrees = 270;
};
}),
(81,684,l,{
"Letterink-NibData" = {
AngleInDegrees = 180;
};
}),
(81,-1,l,{
"Letterink-NibData" = {
AngleInDegrees = 90;
};
})
);
}
);
width = 244;
},
{
anchors = (
{
name = bottom;
pos = (108,0);
},
{
name = center;
pos = (108,343);
},
{
name = ogonek;
pos = (129,1);
},
{
name = top;
pos = (110,685);
},
{
name = topleft;
pos = (22,684);
}
);
layerId = "49C16FD3-6177-408B-A733-AEB3898BB77C";
shapes = (
{
closed = 1;
nodes = (
(129,1,l),
(129,684,l,{
"Letterink-NibData" = {
AngleInDegrees = 270;
};
}),
(91,684,l,{
"Letterink-NibData" = {
AngleInDegrees = 180;
};
}),
(91,1,l,{
"Letterink-NibData" = {
AngleInDegrees = 90;
};
})
);
}
);
width = 220;
},
{
anchors = (
{
name = bottom;
pos = (141,-1);
},
{
name = center;
pos = (141,339);
},
{
name = ogonek;
pos = (223,0);
},
{
name = top;
pos = (140,684);
},
{
name = topleft;
pos = (-4,684);
}
);
layerId = m004;
shapes = (
{
closed = 1;
nodes = (
(223,0,l),
(223,684,l,{
"Letterink-NibData" = {
AngleInDegrees = 270;
};
}),
(58,684,l,{
"Letterink-NibData" = {
AngleInDegrees = 180;
};
}),
(58,0,l,{
"Letterink-NibData" = {
AngleInDegrees = 90;
};
})
);
}
);
width = 281;
}
);
metricLeft = "=|H";
metricRight = H;
unicode = 73;
userData = {
position = 54;
width = 61;
};
},
{
glyphname = I.swsh;
kernLeft = Swash;
layers = (
{
anchors = (
{
name = bottom;
pos = (231,0);
},
{
name = center;
pos = (230,340);
},
{
name = ogonek;
pos = (272,-1);
},
{
name = top;
pos = (231,684);
},
{
name = topleft;
pos = (124,684);
}
);
hints = (
{
name = _corner.caps_swash;
origin = (0,2);
type = Corner;
}
);
layerId = "0CAF3BED-C4AC-4024-B3E1-4C69D1EF7EC0";
shapes = (
{
closed = 1;
nodes = (
(235,608,l),
(235,684,l),
(170,684,l),
(170,608,l)
);
},
{
closed = 1;
nodes = (
(272,0,l),
(272,684,l,{
"Letterink-NibData" = {
AngleInDegrees = 270;
};
}),
(190,684,l,{
"Letterink-NibData" = {
AngleInDegrees = 180;
};
}),
(190,0,l,{
"Letterink-NibData" = {
AngleInDegrees = 90;
};
})
);
}
);
width = 353;
},
{
anchors = (
{
name = bottom;
pos = (219,0);
},
{
name = center;
pos = (218,342);
},
{
name = ogonek;
pos = (241,1);
},
{
name = top;
pos = (218,684);
},
{
name = topleft;
pos = (130,684);
}
);
hints = (
{
name = _corner.caps_swash;
origin = (0,2);
type = Corner;
}
);
layerId = "49C16FD3-6177-408B-A733-AEB3898BB77C";
shapes = (
{
closed = 1;
nodes = (
(205,648,l),
(205,684,l),
(151,684,l),
(151,648,l)
);
},
{
closed = 1;
nodes = (
(236,1,l),
(236,684,l,{
"Letterink-NibData" = {
AngleInDegrees = 270;
};
}),
(199,684,l,{
"Letterink-NibData" = {
AngleInDegrees = 180;
};
}),
(199,1,l,{
"Letterink-NibData" = {
AngleInDegrees = 90;
};
})
);
}
);
width = 327;
},
{
anchors = (
{
name = bottom;
pos = (179,0);
},
{
name = center;
pos = (178,386);
},
{
name = ogonek;
pos = (202,1);
},
{
name = top;
pos = (176,684);
},
{
name = topleft;
pos = (88,684);
}
);
associatedMasterId = "49C16FD3-6177-408B-A733-AEB3898BB77C";
hints = (
{
name = _corner.caps_swash_vert;
options = 1;
origin = (0,1);
type = Corner;
}
);
layerId = "AE169FFE-AC8B-4E8A-9035-7F809B0493BD";
name = "5 Jan 22, 09:48";
shapes = (
{
closed = 1;
nodes = (
(198,1,l),
(198,576,l,{
"Letterink-NibData" = {
AngleInDegrees = 270;
};
}),
(156,576,l,{
"Letterink-NibData" = {
AngleInDegrees = 180;
};
}),
(156,1,l,{
"Letterink-NibData" = {
AngleInDegrees = 90;
};
})
);
}
);
width = 301;
},
{
anchors = (
{
name = bottom;
pos = (295,0);
},
{
name = center;
pos = (299,341);
},
{
name = ogonek;
pos = (378,-1);
},
{
name = top;
pos = (298,684);
},
{
name = topleft;
pos = (147,684);
}
);
hints = (
{
name = _corner.caps_swash;
origin = (0,2);
type = Corner;
}
);
layerId = m004;
shapes = (
{
closed = 1;
nodes = (
(340,536,l),
(340,684,l),
(202,684,l,{
"Letterink-NibData" = {
AngleInDegrees = 180;
};
}),
(202,536,l)
);
},
{
closed = 1;
nodes = (
(378,-1,l),
(378,684,l,{
"Letterink-NibData" = {
AngleInDegrees = 270;
};
}),
(213,684,l,{
"Letterink-NibData" = {
AngleInDegrees = 180;
};
}),
(213,-1,l,{
"Letterink-NibData" = {
AngleInDegrees = 90;
};
})
);
}
);
width = 436;
}
);
metricLeft = H.swsh;
metricRight = H;
userData = {
position = 54;
width = 61;
};
},
{
glyphname = IJ;
kernRight = J;
layers = (
{
anchors = (
{
name = bottom;
pos = (318,0);
},
{
name = top;
pos = (318,684);
}
);
background = {
shapes = (
{
closed = 1;
nodes = (
(424,-7,o),
(502,70,o),
(502,193,cs),
(502,689,l,{
"Letterink-NibData" = {
AngleInDegrees = "270";
};
}),
(433,689,l,{
"Letterink-NibData" = {
AngleInDegrees = "211.6075";
};
}),
(425,676,o),
(395,663,o),
(375,663,cs,{
"Letterink-NibData" = {
AngleInDegrees = "270";
};
}),
(333,663,o),
(300,698,o),
(250,698,cs,{
"Letterink-NibData" = {
AngleInDegrees = "270";
};
}),
(214,698,o),
(182,692,o),
(125,664,c,{
"Letterink-NibData" = {
AngleInDegrees = "153.09391";
};
}),
(159,597,l,{
"Letterink-NibData" = {
AngleInDegrees = "67.52057000000001";
};
}),
(188,609,o),
(217,620,o),
(242,620,cs,{
"Letterink-NibData" = {
AngleInDegrees = "90";
};
}),
(290,620,o),
(327,587,o),
(370,587,cs,{
"Letterink-NibData" = {
AngleInDegrees = "90";
};
}),
(392,587,o),
(407,589,o),
(420,594,c,{
"Letterink-NibData" = {
AngleInDegrees = "180";
};
}),
(420,196,ls,{
"Letterink-NibData" = {
AngleInDegrees = "180";
};
}),
(420,118,o),
(375,69,o),
(303,69,cs,{
"Letterink-NibData" = {
AngleInDegrees = "270";
};
}),
(227,69,o),
(182,115,o),
(186,188,c,{
"Letterink-NibData" = {
AngleInDegrees = "274.39871";
};
}),
(108,194,l,{
"Letterink-NibData" = {
AngleInDegrees = "181.88819";
};
}),
(104,71,o),
(178,-7,o),
(300,-7,cs,{
"Letterink-NibData" = {
AngleInDegrees = "90";
};
})
);
}
);
};
layerId = "0CAF3BED-C4AC-4024-B3E1-4C69D1EF7EC0";
shapes = (
{
closed = 1;
nodes = (
(466,-13,o),
(562,74,o),
(562,236,cs),
(562,684,l,{
"Letterink-NibData" = {
AngleInDegrees = "270";
};
}),
(487,684,l,{
"Letterink-NibData" = {
AngleInDegrees = "211.6075";
};
}),
(480,654,l),
(480,243,ls,{
"Letterink-NibData" = {
AngleInDegrees = "180";
};
}),
(480,122,o),
(417,63,o),
(318,63,cs,{
"Letterink-NibData" = {
AngleInDegrees = "270";
};
}),
(215,63,o),
(163,139,o),
(162,196,c),
(83,185,l),
(85,79,o),
(175,-13,o),
(315,-13,cs,{
"Letterink-NibData" = {
AngleInDegrees = "90";
};
})
);
},
{
pos = (0,285);
ref = I;
scale = (1,0.5845);
},
{
closed = 1;
nodes = (
(473,676,o),
(461,671,o),
(440,671,cs),
(410,671,o),
(386,702,o),
(334,702,cs),
(296,702,o),
(257,692,o),
(217,663,c),
(261,601,l),
(288,621,o),
(307,626,o),
(334,626,cs),
(364,626,o),
(388,595,o),
(440,595,cs),
(500,595,o),
(555,635,o),
(562,684,c),
(482,684,l)
);
}
);
width = 635;
},
{
anchors = (
{
name = bottom;
pos = (352,0);
},
{
name = top;
pos = (368,684);
}
);
layerId = "49C16FD3-6177-408B-A733-AEB3898BB77C";
shapes = (
{
closed = 1;
nodes = (
(454,-6,o),
(539,82,o),
(539,219,cs),
(539,687,l,{
"Letterink-NibData" = {
AngleInDegrees = "268.5679";
};
}),
(503,687,l,{
"Letterink-NibData" = {
AngleInDegrees = "184.66686";
};
}),
(501,656,l),
(501,222,ls,{
"Letterink-NibData" = {
AngleInDegrees = "180";
};
}),
(501,103,o),
(429,30,o),
(318,30,cs,{
"Letterink-NibData" = {
AngleInDegrees = "270";
};
}),
(217,30,o),
(147,85,o),
(138,177,c),
(100,172,l),
(110,64,o),
(192,-6,o),
(319,-6,cs,{
"Letterink-NibData" = {
AngleInDegrees = "90";
};
})
);
},
{
alignment = -1;
pos = (0,264);
ref = I;
scale = (1,0.6157);
},
{
closed = 1;
nodes = (
(490,674,o),
(470,666,o),
(443,666,cs),
(401,666,o),
(377,696,o),
(321,696,cs),
(286,696,o),
(246,682,o),
(221,662,c),
(243,634,l),
(261,649,o),
(293,660,o),
(321,660,cs),
(361,660,o),
(385,630,o),
(443,630,cs),
(485,630,o),
(526,650,o),
(538,687,c),
(500,687,l)
);
}
);
width = 621;
},
{
anchors = (
{
name = bottom;
pos = (384,0);
},
{
name = top;
pos = (359,684);
}
);
layerId = m004;
shapes = (
{
closed = 1;
nodes = (
(527,-27,o),
(638,77,o),
(638,244,cs),
(638,684,l,{
"Letterink-NibData" = {
AngleInDegrees = "270";
};
}),
(516,684,l,{
"Letterink-NibData" = {
AngleInDegrees = "211.6075";
};
}),
(473,632,l),
(473,247,ls,{
"Letterink-NibData" = {
AngleInDegrees = "180";
};
}),
(473,187,o),
(429,125,o),
(351,125,cs,{
"Letterink-NibData" = {
AngleInDegrees = "270";
};
}),
(284,125,o),
(225,165,o),
(221,225,c),
(69,212,l),
(76,77,o),
(182,-27,o),
(352,-27,cs,{
"Letterink-NibData" = {
AngleInDegrees = "90";
};
})
);
},
{
pos = (0,300);
ref = I;
scale = (1,0.5611);
},
{
closed = 1;
nodes = (
(498,676,o),
(487,668,o),
(472,668,cs),
(449,668,o),
(409,703,o),
(351,703,cs),
(316,703,o),
(273,692,o),
(239,666,c),
(307,538,l),
(326,552,o),
(336,555,o),
(351,555,cs),
(378,555,o),
(417,520,o),
(472,520,cs),
(549,520,o),
(637,599,o),
(638,684,c),
(500,684,l)
);
}
);
width = 690;
},
{
anchors = (
{
name = bottom;
pos = (352,0);
},
{
name = top;
pos = (368,684);
}
);
associatedMasterId = "49C16FD3-6177-408B-A733-AEB3898BB77C";
layerId = "60A306EB-A9BE-4CAC-A58E-BFF0F7C2CB4B";
name = "7 Jul 22, 13:18";
shapes = (
{
closed = 1;
nodes = (
(457,-6,o),
(544,82,o),
(544,219,cs),
(544,687,l,{
"Letterink-NibData" = {
AngleInDegrees = "268.5679";
};
}),
(508,687,l,{
"Letterink-NibData" = {
AngleInDegrees = "184.66686";
};
}),
(504,656,l),
(508,222,ls,{
"Letterink-NibData" = {
AngleInDegrees = "180";
};
}),
(509,103,o),
(432,30,o),
(318,30,cs,{
"Letterink-NibData" = {
AngleInDegrees = "270";
};
}),
(217,30,o),
(147,85,o),
(138,177,c),
(100,172,l),
(110,64,o),
(192,-6,o),
(319,-6,cs,{
"Letterink-NibData" = {
AngleInDegrees = "90";
};
})
);
},
{
alignment = -1;
pos = (5,264);
ref = I;
scale = (1,0.6157);
},
{
attr = {
identifier = ID0x7f962dd1a620;
lineCapEnd = 4;
strokeHeight = 36;
strokeWidth = 34;
};
closed = 0;
nodes = (
(237,648,l),
(258,665,o),
(295,678,o),
(326,678,cs),
(374,678,o),
(398,648,o),
(448,648,cs),
(483,648,o),
(514,663,o),
(525,687,c)
);
}
);
width = 634;
},
{
anchors = (
{
name = bottom;
pos = (319,0);
},
{
name = top;
pos = (319,684);
}
);
associatedMasterId = "0CAF3BED-C4AC-4024-B3E1-4C69D1EF7EC0";
background = {
shapes = (
{
closed = 1;
nodes = (
(430,-7,o),
(508,70,o),
(508,193,cs),
(508,689,l,{
"Letterink-NibData" = {
AngleInDegrees = "270";
};
}),
(439,689,l,{
"Letterink-NibData" = {
AngleInDegrees = "211.6075";
};
}),
(431,676,o),
(401,663,o),
(381,663,cs,{
"Letterink-NibData" = {
AngleInDegrees = "270";
};
}),
(339,663,o),
(306,698,o),
(256,698,cs,{
"Letterink-NibData" = {
AngleInDegrees = "270";
};
}),
(220,698,o),
(188,692,o),
(131,664,c,{
"Letterink-NibData" = {
AngleInDegrees = "153.09391";
};
}),
(165,597,l,{
"Letterink-NibData" = {
AngleInDegrees = "67.52057000000001";
};
}),
(194,609,o),
(223,620,o),
(248,620,cs,{
"Letterink-NibData" = {
AngleInDegrees = "90";
};
}),
(296,620,o),
(333,587,o),
(376,587,cs,{
"Letterink-NibData" = {
AngleInDegrees = "90";
};
}),
(398,587,o),
(413,589,o),
(426,594,c,{
"Letterink-NibData" = {
AngleInDegrees = "180";
};
}),
(426,196,ls,{
"Letterink-NibData" = {
AngleInDegrees = "180";
};
}),
(426,118,o),
(381,69,o),
(309,69,cs,{
"Letterink-NibData" = {
AngleInDegrees = "270";
};
}),
(233,69,o),
(188,115,o),
(192,188,c,{
"Letterink-NibData" = {
AngleInDegrees = "274.39871";
};
}),
(114,194,l,{
"Letterink-NibData" = {
AngleInDegrees = "181.88819";
};
}),
(110,71,o),
(184,-7,o),
(306,-7,cs,{
"Letterink-NibData" = {
AngleInDegrees = "90";
};
})
);
}
);
};
layerId = "3FE10B5F-3F42-4C74-9893-12DD354C702F";
name = "7 Jul 22, 13:18";
shapes = (
{
closed = 1;
nodes = (
(470,-13,o),
(568,74,o),
(568,236,cs),
(568,684,l,{
"Letterink-NibData" = {
AngleInDegrees = "270";
};
}),
(493,684,l,{
"Letterink-NibData" = {
AngleInDegrees = "211.6075";
};
}),
(487,654,l),
(486,243,ls,{
"Letterink-NibData" = {
AngleInDegrees = "180";
};
}),
(486,122,o),
(421,63,o),
(319,63,cs,{
"Letterink-NibData" = {
AngleInDegrees = "270";
};
}),
(216,63,o),
(164,139,o),
(163,196,c),
(84,185,l),
(86,79,o),
(176,-13,o),
(316,-13,cs,{
"Letterink-NibData" = {
AngleInDegrees = "90";
};
})
);
},
{
pos = (6,285);
ref = I;
scale = (1,0.5845);
},
{
attr = {
identifier = ID0x7f962dd1a620;
lineCapEnd = "4";
strokeHeight = 76;
strokeWidth = 74;
};
closed = 0;
nodes = (
(240,632,l),
(273,656,o),
(303,664,o),
(335,664,cs),
(378,664,o),
(398,633,o),
(441,633,cs),
(483,633,o),
(522,656,o),
(530,684,c)
);
}
);
width = 644;
},
{
anchors = (
{
name = bottom;
pos = (384,0);
},
{
name = top;
pos = (359,684);
}
);
associatedMasterId = m004;
layerId = "E0D82B3F-63AD-4562-96C8-18F73390CCF6";
name = "7 Jul 22, 13:19";
shapes = (
{
closed = 1;
nodes = (
(531,-27,o),
(644,77,o),
(644,244,cs),
(644,684,l,{
"Letterink-NibData" = {
AngleInDegrees = "270";
};
}),
(522,684,l,{
"Letterink-NibData" = {
AngleInDegrees = "211.6075";
};
}),
(479,632,l),
(479,247,ls,{
"Letterink-NibData" = {
AngleInDegrees = "180";
};
}),
(479,187,o),
(433,125,o),
(351,125,cs,{
"Letterink-NibData" = {
AngleInDegrees = "270";
};
}),
(284,125,o),
(223,165,o),
(223,225,c),
(69,212,l),
(76,77,o),
(182,-27,o),
(352,-27,cs,{
"Letterink-NibData" = {
AngleInDegrees = "90";
};
})
);
},
{
pos = (0,300);
ref = I;
scale = (1,0.5611);
},
{
attr = {
identifier = ID0x7f962dd1a620;
lineCapEnd = "4";
strokeHeight = 148;
strokeWidth = 138;
};
closed = 0;
nodes = (
(267,598,l),
(296,619,o),
(325,629,o),
(351,629,cs),
(400,629,o),
(434,594,o),
(478,594,cs),
(519,594,o),
(574,642,o),
(575,684,c)
);
}
);
width = 696;
}
);
metricLeft = I;
metricRight = J;
unicode = 306;
userData = {
position = 507;
width = 53;
};
},
{
glyphname = IJ.ss01;
kernRight = J;
layers = (
{
layerId = "0CAF3BED-C4AC-4024-B3E1-4C69D1EF7EC0";
shapes = (
{
closed = 1;
nodes = (
(437,-13,o),
(527,74,o),
(527,212,cs),
(527,684,l,{
"Letterink-NibData" = {
AngleInDegrees = "270";
};
}),
(446,684,l,{
"Letterink-NibData" = {
AngleInDegrees = "211.6075";
};
}),
(445,215,ls,{
"Letterink-NibData" = {
AngleInDegrees = "180";
};
}),
(445,122,o),
(388,63,o),
(298,63,cs,{
"Letterink-NibData" = {
AngleInDegrees = "270";
};
}),
(208,63,o),
(163,123,o),
(162,176,c),
(83,165,l),
(85,69,o),
(167,-13,o),
(295,-13,cs,{
"Letterink-NibData" = {
AngleInDegrees = "90";
};
})
);
},
{
pos = (0,241);
ref = I;
scale = (1,0.6481);
}
);
width = 600;
},
{
layerId = "49C16FD3-6177-408B-A733-AEB3898BB77C";
shapes = (
{
closed = 1;
nodes = (
(441,-6,o),
(524,80,o),
(524,214,cs),
(524,685,l,{
"Letterink-NibData" = {
AngleInDegrees = 268.5679;
};
}),
(486,684,l,{
"Letterink-NibData" = {
AngleInDegrees = 184.66686;
};
}),
(486,217,ls,{
"Letterink-NibData" = {
AngleInDegrees = 180;
};
}),
(486,101,o),
(416,30,o),
(308,30,cs,{
"Letterink-NibData" = {
AngleInDegrees = 270;
};
}),
(218,30,o),
(147,85,o),
(138,177,c),
(100,172,l),
(109,64,o),
(188,-6,o),
(309,-6,cs,{
"Letterink-NibData" = {
AngleInDegrees = 90;
};
})
);
},
{
alignment = -1;
pos = (0,234);
ref = I;
scale = (1,0.6583);
}
);
width = 606;
},
{
layerId = m004;
shapes = (
{
closed = 1;
nodes = (
(483,-22,o),
(579,78,o),
(579,239,cs),
(579,684,l,{
"Letterink-NibData" = {
AngleInDegrees = "270";
};
}),
(414,684,l,{
"Letterink-NibData" = {
AngleInDegrees = "211.6075";
};
}),
(414,242,ls,{
"Letterink-NibData" = {
AngleInDegrees = "180";
};
}),
(414,187,o),
(384,130,o),
(316,130,cs,{
"Letterink-NibData" = {
AngleInDegrees = "270";
};
}),
(249,130,o),
(218,170,o),
(218,230,c),
(64,217,l),
(56,82,o),
(147,-22,o),
(317,-22,cs,{
"Letterink-NibData" = {
AngleInDegrees = "90";
};
})
);
},
{
pos = (0,275);
ref = I;
scale = (1,0.5969);
}
);
width = 631;
}
);
metricLeft = I;
metricRight = J;
userData = {
position = 507;
width = 53;
};
},
{
glyphname = J;
kernLeft = J;
kernRight = J;
layers = (
{
anchors = (
{
name = bottom;
pos = (282,0);
},
{
name = top;
pos = (282,689);
}
);
layerId = "0CAF3BED-C4AC-4024-B3E1-4C69D1EF7EC0";
shapes = (
{
closed = 1;
nodes = (
(385,-7,o),
(471,74,o),
(471,203,cs),
(471,689,l,{
"Letterink-NibData" = {
AngleInDegrees = 270;
};
}),
(402,689,l,{
"Letterink-NibData" = {
AngleInDegrees = 211.6075;
};
}),
(394,676,o),
(364,663,o),
(344,663,cs,{
"Letterink-NibData" = {
AngleInDegrees = 270;
};
}),
(302,663,o),
(269,698,o),
(219,698,cs,{
"Letterink-NibData" = {
AngleInDegrees = 270;
};
}),
(183,698,o),
(151,692,o),
(94,664,c,{
"Letterink-NibData" = {
AngleInDegrees = 153.09391;
};
}),
(128,597,l,{
"Letterink-NibData" = {
AngleInDegrees = 67.52057;
};
}),
(157,609,o),
(186,620,o),
(211,620,cs,{
"Letterink-NibData" = {
AngleInDegrees = 90;
};
}),
(259,620,o),
(296,587,o),
(339,587,cs,{
"Letterink-NibData" = {
AngleInDegrees = 90;
};
}),
(361,587,o),
(376,589,o),
(389,594,c,{
"Letterink-NibData" = {
AngleInDegrees = 180;
};
}),
(389,206,ls,{
"Letterink-NibData" = {
AngleInDegrees = 180;
};
}),
(389,122,o),
(336,69,o),
(252,69,cs,{
"Letterink-NibData" = {
AngleInDegrees = 270;
};
}),
(164,69,o),
(111,125,o),
(115,204,c,{
"Letterink-NibData" = {
AngleInDegrees = 274.39871;
};
}),
(37,204,l,{
"Letterink-NibData" = {
AngleInDegrees = 181.88819;
};
}),
(33,75,o),
(115,-7,o),
(249,-7,cs,{
"Letterink-NibData" = {
AngleInDegrees = 90;
};
})
);
}
);
width = 544;
},
{
anchors = (
{
name = bottom;
pos = (289,0);
},
{
name = top;
pos = (305,689);
}
);
background = {
shapes = (
{
closed = 1;
nodes = (
(386,-6,o),
(460,68,o),
(460,184,cs),
(460,688,l,{
"Letterink-NibData" = {
AngleInDegrees = "270";
};
}),
(415,688,l,{
"Letterink-NibData" = {
AngleInDegrees = "209.35776";
};
}),
(405,677,o),
(378,670,o),
(356,670,cs,{
"Letterink-NibData" = {
AngleInDegrees = "270";
};
}),
(338,670,o),
(296,697,o),
(248,697,cs,{
"Letterink-NibData" = {
AngleInDegrees = "270";
};
}),
(206,697,o),
(183,690,o),
(166,673,c,{
"Letterink-NibData" = {
AngleInDegrees = "153.43495";
};
}),
(182,641,l,{
"Letterink-NibData" = {
AngleInDegrees = "70.82098999999999";
};
}),
(188,647,o),
(202,662,o),
(248,662,cs,{
"Letterink-NibData" = {
AngleInDegrees = "90";
};
}),
(302,662,o),
(321,635,o),
(354,635,cs,{
"Letterink-NibData" = {
AngleInDegrees = "90";
};
}),
(381,635,o),
(405,639,o),
(422,650,c,{
"Letterink-NibData" = {
AngleInDegrees = "180";
};
}),
(422,187,ls,{
"Letterink-NibData" = {
AngleInDegrees = "180";
};
}),
(422,90,o),
(364,30,o),
(273,30,cs,{
"Letterink-NibData" = {
AngleInDegrees = "270";
};
}),
(181,30,o),
(129,83,o),
(127,156,c,{
"Letterink-NibData" = {
AngleInDegrees = "275.5722";
};
}),
(90,156,l,{
"Letterink-NibData" = {
AngleInDegrees = "176.71075";
};
}),
(97,58,o),
(167,-6,o),
(270,-6,cs,{
"Letterink-NibData" = {
AngleInDegrees = "90";
};
})
);
}
);
};
layerId = "49C16FD3-6177-408B-A733-AEB3898BB77C";
shapes = (
{
closed = 1;
nodes = (
(383,-6,o),
(465,72,o),
(465,194,cs),
(465,688,l,{
"Letterink-NibData" = {
AngleInDegrees = "270";
};
}),
(420,688,l,{
"Letterink-NibData" = {
AngleInDegrees = "209.35776";
};
}),
(410,671,o),
(383,660,o),
(361,660,cs,{
"Letterink-NibData" = {
AngleInDegrees = "270";
};
}),
(320,660,o),
(260,696,o),
(217,696,cs,{
"Letterink-NibData" = {
AngleInDegrees = "270";
};
}),
(192,696,o),
(167,696,o),
(121,672,c,{
"Letterink-NibData" = {
AngleInDegrees = "153.43495";
};
}),
(137,640,l,{
"Letterink-NibData" = {
AngleInDegrees = "70.82098999999999";
};
}),
(155,650,o),
(183,661,o),
(213,661,cs,{
"Letterink-NibData" = {
AngleInDegrees = "90";
};
}),
(277,661,o),
(295,625,o),
(359,625,cs,{
"Letterink-NibData" = {
AngleInDegrees = "90";
};
}),
(386,625,o),
(410,632,o),
(427,650,c,{
"Letterink-NibData" = {
AngleInDegrees = "180";
};
}),
(427,197,ls,{
"Letterink-NibData" = {
AngleInDegrees = "180";
};
}),
(427,94,o),
(361,30,o),
(258,30,cs,{
"Letterink-NibData" = {
AngleInDegrees = "270";
};
}),
(149,30,o),
(94,89,o),
(92,168,c,{
"Letterink-NibData" = {
AngleInDegrees = "275.5722";
};
}),
(55,168,l,{
"Letterink-NibData" = {
AngleInDegrees = "176.71075";
};
}),
(62,62,o),
(136,-6,o),
(255,-6,cs,{
"Letterink-NibData" = {
AngleInDegrees = "90";
};
})
);
}
);
width = 547;
},
{
anchors = (
{
name = bottom;
pos = (313,0);
},
{
name = top;
pos = (288,689);
}
);
layerId = m004;
shapes = (
{
closed = 1;
nodes = (
(419,-22,o),
(513,70,o),
(513,217,cs),
(513,697,l,{
"Letterink-NibData" = {
AngleInDegrees = 270;
};
}),
(406,697,l,{
"Letterink-NibData" = {
AngleInDegrees = 211.6075;
};
}),
(390,682,o),
(365,674,o),
(342,674,cs,{
"Letterink-NibData" = {
AngleInDegrees = 270;
};
}),
(300,674,o),
(260,696,o),
(187,696,cs,{
"Letterink-NibData" = {
AngleInDegrees = 270;
};
}),
(128,696,o),
(92,686,o),
(42,653,c,{
"Letterink-NibData" = {
AngleInDegrees = 153.09391;
};
}),
(110,521,l,{
"Letterink-NibData" = {
AngleInDegrees = 67.52057;
};
}),
(139,534,o),
(172,541,o),
(202,541,cs,{
"Letterink-NibData" = {
AngleInDegrees = 90;
};
}),
(247,541,o),
(275,524,o),
(307,524,cs,{
"Letterink-NibData" = {
AngleInDegrees = 90;
};
}),
(329,524,o),
(344,529,o),
(348,533,c,{
"Letterink-NibData" = {
AngleInDegrees = 180;
};
}),
(348,220,ls,{
"Letterink-NibData" = {
AngleInDegrees = 180;
};
}),
(348,172,o),
(319,130,o),
(264,130,cs,{
"Letterink-NibData" = {
AngleInDegrees = 270;
};
}),
(206,130,o),
(173,168,o),
(173,237,c,{
"Letterink-NibData" = {
AngleInDegrees = 274.39871;
};
}),
(19,237,l,{
"Letterink-NibData" = {
AngleInDegrees = 181.88819;
};
}),
(8,94,o),
(101,-22,o),
(265,-22,cs,{
"Letterink-NibData" = {
AngleInDegrees = 90;
};
})
);
}
);
width = 565;
}
);
metricRight = "=H*.9";
unicode = 74;
userData = {
position = 333;
width = 53;
};
},
